{
.appVersion = "1254";
DisplayStrings = (
"/a.sc",
"/a.sc/b.sc B/c.sc/d.sc/e.sc/f.sc/g.sc/h.sc",
A,

glyphs = (
{
color = 11;
glyphname = A;
lastChange = "2019-07-26 15:57:21 +0000";
layers = (
{
anchors = (
{
name = bottom;
position = "{560, 0}";
},
{
name = ogonek;
position = "{1157, 20}";
},
{
name = top;
position = "{612, 1486}";
}
);
layerId = "184155C8-9F61-4F1C-9784-DDA8EA717636";
paths = (
{
closed = 1;
nodes = (
"-150 38 LINE",
"-150 0 LINE",
"250 0 LINE",
"250 38 LINE",
"109 72 LINE",
"209 435 LINE",
"674 435 LINE",
"779 72 LINE",
"637 38 LINE",
"637 0 LINE",
"1327 0 LINE",
"1327 38 LINE",
"1213 69 LINE",
"751 1487 LINE",
"474 1487 LINE",
"2 76 LINE"
);
},
{
closed = 1;
nodes = (
"231 499 LINE",
"417 1089 LINE",
"447 1201 LINE",
"476 1089 LINE",
"651 499 LINE"
);
}
);
width = 1237;
},
{
anchors = (
{
name = bottom;
position = "{643, 0}";
},
{
name = ogonek;
position = "{1203, 20}";
},
{
name = top;
position = "{656, 1486}";
}
);
layerId = "C9B9556E-C2FD-4F62-BB40-44923C452C22";
paths = (
{
closed = 1;
nodes = (
"-15 36 LINE",
"-15 0 LINE",
"352 0 LINE",
"352 36 LINE",
"219 60 LINE",
"348 460 LINE",
"900 460 LINE",
"1020 60 LINE",
"884 36 LINE",
"884 0 LINE",
"1319 0 LINE",
"1319 36 LINE",
"1189 60 LINE",
"742 1500 LINE",
"601 1500 LINE",
"99 58 LINE"
);
},
{
closed = 1;
nodes = (
"368 526 LINE",
"601 1251 LINE",
"637 1365 LINE",
"669 1251 LINE",
"879 526 LINE"
);
}
);
width = 1304;
}
);
leftKerningGroup = A;
rightKerningGroup = A;
unicode = 0041;
},
{
color = 4;
glyphname = AE;
lastChange = "2019-07-26 15:57:21 +0000";
layers = (
{
anchors = (
{
name = bottom;
position = "{831, 0}";
},
{
name = mark0;
position = "{793, -166}";
},
{
name = top;
position = "{831, 1486}";
}
);
layerId = "184155C8-9F61-4F1C-9784-DDA8EA717636";
paths = (
{
closed = 1;
nodes = (
"549 38 LINE",
"549 0 LINE",
"1713 0 LINE",
"1791 401 LINE",
"1627 429 LINE",
"1476 111 LINE",
"1063 59 LINE",
"1063 736 LINE",
"1326 729 LINE",
"1398 502 LINE",
"1439 502 LINE",
"1439 1004 LINE",
"1397 1004 LINE",
"1327 794 LINE",
"1063 788 LINE",
"1063 1427 LINE",
"1452 1400 LINE",
"1575 1113 LINE",
"1705 1113 LINE",
"1674 1486 LINE",
"309 1486 LINE",
"309 1450 LINE",
"553 1369 LINE",
"16 130 LINE",
"-136 38 LINE",
"-136 0 LINE",
"248 0 LINE",
"248 38 LINE",
"99 125 LINE",
"236 435 LINE",
"682 435 LINE",
"682 79 LINE"
);
},
{
closed = 1;
nodes = (
"265 499 LINE",
"547 1191 LINE",
"653 1412 LINE",
"682 1412 LINE",
"682 499 LINE"
);
}
);
width = 1801;
},
{
anchors = (
{
name = bottom;
position = "{877, 0}";
},
{
name = mark0;
position = "{833, -166}";
},
{
name = top;
position = "{877, 1486}";
}
);
layerId = "C9B9556E-C2FD-4F62-BB40-44923C452C22";
paths = (
{
closed = 1;
nodes = (
"632 36 LINE",
"632 0 LINE",
"1667 0 LINE",
"1729 337 LINE",
"1663 363 LINE",
"1544 68 LINE",
"932 49 LINE",
"932 735 LINE",
"1333 722 LINE",
"1369 542 LINE",
"1423 542 LINE",
"1423 984 LINE",
"1369 984 LINE",
"1333 808 LINE",
"932 793 LINE",
"932 1434 LINE",
"1461 1422 LINE",
"1549 1192 LINE",
"1615 1192 LINE",
"1586 1486 LINE",
"394 1486 LINE",
"394 1450 LINE",
"582 1412 LINE",
"-7 58 LINE",
"-120 36 LINE",
"-120 0 LINE",
"281 0 LINE",
"280 36 LINE",
"118 60 LINE",
"287 499 LINE",
"775 499 LINE",
"775 67 LINE"
);
},
{
closed = 1;
nodes = (
"315 569 LINE",
"553 1134 LINE",
"662 1434 LINE",
"776 1434 LINE",
"776 569 LINE"
);
}
);
width = 1762;
}
);
leftKerningGroup = AE;
rightKerningGroup = E;
rightMetricsKey = E;
unicode = 00C6;
},
{
color = 9;
glyphname = B;
lastChange = "2019-07-26 15:57:21 +0000";
layers = (
{
anchors = (
{
name = bottom;
position = "{668, 0}";
},
{
name = mark0;
position = "{684, -166}";
},
{
name = top;
position = "{668, 1486}";
}
);
layerId = "184155C8-9F61-4F1C-9784-DDA8EA717636";
paths = (
{
closed = 1;
nodes = (
"18 37 LINE",
"18 0 LINE",
"342 0 LINE SMOOTH",
"472 0 OFFCURVE",
"530 -12 OFFCURVE",
"680 -12 CURVE SMOOTH",
"1182 -12 OFFCURVE",
"1326 192 OFFCURVE",
"1326 450 CURVE SMOOTH",
"1326 672 OFFCURVE",
"1158 794 OFFCURVE",
"896 794 CURVE",
"1082 820 OFFCURVE",
"1226 954 OFFCURVE",
"1226 1160 CURVE SMOOTH",
"1226 1368 OFFCURVE",
"1112 1500 OFFCURVE",
"662 1500 CURVE SMOOTH",
"560 1500 OFFCURVE",
"464 1486 OFFCURVE",
"338 1486 CURVE SMOOTH",
"19 1486 LINE",
"19 1450 LINE",
"152 1412 LINE",
"152 73 LINE"
);
},
{
closed = 1;
nodes = (
"530 1431 LINE",
"554 1435 OFFCURVE",
"616 1442 OFFCURVE",
"644 1442 CURVE SMOOTH",
"802 1442 OFFCURVE",
"858 1336 OFFCURVE",
"858 1139 CURVE SMOOTH",
"858 960 OFFCURVE",
"808 796 OFFCURVE",
"639 796 CURVE SMOOTH",
"601 796 OFFCURVE",
"563 796 OFFCURVE",
"530 800 CURVE"
);
},
{
closed = 1;
nodes = (
"530 725 LINE",
"563 727 OFFCURVE",
"607 730 OFFCURVE",
"657 730 CURVE SMOOTH",
"847 730 OFFCURVE",
"918 648 OFFCURVE",
"918 421 CURVE SMOOTH",
"918 198 OFFCURVE",
"854 49 OFFCURVE",
"662 49 CURVE SMOOTH",
"612 49 OFFCURVE",
"558 55 OFFCURVE",
"530 68 CURVE"
);
}
);
width = 1372;
},
{
anchors = (
{
name = bottom;
position = "{596, 0}";
},
{
name = mark0;
position = "{644, -166}";
},
{
name = top;
position = "{596, 1486}";
}
);
layerId = "C9B9556E-C2FD-4F62-BB40-44923C452C22";
paths = (
{
closed = 1;
nodes = (
"24 36 LINE",
"24 0 LINE",
"248 0 LINE SMOOTH",
"382 0 OFFCURVE",
"418 -12 OFFCURVE",
"516 -12 CURVE SMOOTH",
"978 -12 OFFCURVE",
"1125 204 OFFCURVE",
"1125 435 CURVE SMOOTH",
"1125 632 OFFCURVE",
"958 776 OFFCURVE",
"724 768 CURVE",
"918 806 OFFCURVE",
"1022 982 OFFCURVE",
"1022 1162 CURVE SMOOTH",
"1022 1376 OFFCURVE",
"870 1502 OFFCURVE",
"528 1502 CURVE SMOOTH",
"428 1502 OFFCURVE",
"376 1486 OFFCURVE",
"256 1486 CURVE SMOOTH",
"25 1486 LINE",
"25 1450 LINE",
"174 1420 LINE",
"174 67 LINE"
);
},
{
closed = 1;
nodes = (
"333 1438 LINE",
"375 1442 OFFCURVE",
"417 1453 OFFCURVE",
"521 1453 CURVE SMOOTH",
"785 1453 OFFCURVE",
"869 1360 OFFCURVE",
"869 1155 CURVE SMOOTH",
"869 922 OFFCURVE",
"769 797 OFFCURVE",
"581 797 CURVE SMOOTH",
"526 797 OFFCURVE",
"398 795 OFFCURVE",
"332 799 CURVE"
);
},
{
closed = 1;
nodes = (
"332 734 LINE",
"397 739 OFFCURVE",
"525 738 OFFCURVE",
"602 738 CURVE SMOOTH",
"832 738 OFFCURVE",
"969 621 OFFCURVE",
"969 415 CURVE SMOOTH",
"969 206 OFFCURVE",
"872 37 OFFCURVE",
"537 37 CURVE SMOOTH",
"463 37 OFFCURVE",
"387 46 OFFCURVE",
"331 63 CURVE"
);
}
);
width = 1164;
}
);
leftKerningGroup = H;
leftMetricsKey = H;
rightKerningGroup = B;
unicode = 0042;
},
{
color = 9;
glyphname = C;
lastChange = "2019-07-26 15:57:21 +0000";
layers = (
{
anchors = (
{
name = bottom;
position = "{727, 0}";
},
{
name = mark0;
position = "{730, -166}";
},
{
name = top;
position = "{757, 1486}";
}
);
layerId = "184155C8-9F61-4F1C-9784-DDA8EA717636";
paths = (
{
closed = 1;
nodes = (
"1044 -22 OFFCURVE",
"1097 54 OFFCURVE",
"1201 54 CURVE",
"1237 463 LINE",
"1087 463 LINE",
"1000 184 LINE SMOOTH",
"982 125 OFFCURVE",
"906 36 OFFCURVE",
"797 36 CURVE SMOOTH",
"548 36 OFFCURVE",
"466 386 OFFCURVE",
"466 758 CURVE SMOOTH",
"466 1245 OFFCURVE",
"572 1447 OFFCURVE",
"775 1447 CURVE SMOOTH",
"891 1447 OFFCURVE",
"938 1381 OFFCURVE",
"948 1316 CURVE",
"1000 1006 LINE",
"1195 1006 LINE",
"1249 1437 LINE",
"1059 1437 OFFCURVE",
"1003 1507 OFFCURVE",
"751 1507 CURVE SMOOTH",
"321 1507 OFFCURVE",
"40 1213 OFFCURVE",
"40 734 CURVE SMOOTH",
"40 289 OFFCURVE",
"260 -22 OFFCURVE",
"758 -22 CURVE SMOOTH"
);
}
);
width = 1269;
},
{
anchors = (
{
name = bottom;
position = "{671, 0}";
},
{
name = mark0;
position = "{689, -166}";
},
{
name = top;
position = "{671, 1486}";
}
);
layerId = "C9B9556E-C2FD-4F62-BB40-44923C452C22";
paths = (
{
closed = 1;
nodes = (
"945 -20 OFFCURVE",
"998 50 OFFCURVE",
"1102 54 CURVE",
"1143 332 LINE",
"1064 350 LINE",
"989 148 LINE",
"937 96 OFFCURVE",
"856 29 OFFCURVE",
"721 29 CURVE SMOOTH",
"332 29 OFFCURVE",
"210 388 OFFCURVE",
"210 746 CURVE SMOOTH",
"210 1178 OFFCURVE",
"406 1450 OFFCURVE",
"755 1450 CURVE SMOOTH",
"873 1450 OFFCURVE",
"959 1416 OFFCURVE",
"995 1384 CURVE",
"1027 1108 LINE",
"1130 1108 LINE",
"1146 1438 LINE",
"1076 1438 OFFCURVE",
"980 1502 OFFCURVE",
"742 1502 CURVE SMOOTH",
"336 1502 OFFCURVE",
"40 1181 OFFCURVE",
"40 725 CURVE SMOOTH",
"40 312 OFFCURVE",
"263 -20 OFFCURVE",
"678 -20 CURVE SMOOTH"
);
}
);
width = 1239;
}
);
leftKerningGroup = O;
rightKerningGroup = C;
unicode = 0043;
},
{
color = 9;
glyphname = D;
lastChange = "2019-08-01 09:20:41 +0000";
layers = (
{
anchors = (
{
name = bottom;
position = "{712, 0}";
},
{
name = center;
position = "{712, 744}";
},
{
name = mark0;
position = "{745, -166}";
},
{
name = top;
position = "{712, 1486}";
}
);
background = {
paths = (
{
closed = 1;
nodes = (
"26 32 LINE",
"26 0 LINE",
"335 0 LINE SMOOTH",
"459 0 OFFCURVE",
"517 -10 OFFCURVE",
"666 -10 CURVE SMOOTH",
"1151 -10 OFFCURVE",
"1268 164 OFFCURVE",
"1268 395 CURVE SMOOTH",
"1268 591 OFFCURVE",
"1133 694 OFFCURVE",
"874 697 CURVE",
"1056 717 OFFCURVE",
"1192 825 OFFCURVE",
"1192 1008 CURVE SMOOTH",
"1192 1187 OFFCURVE",
"1087 1303 OFFCURVE",
"646 1303 CURVE SMOOTH",
"548 1303 OFFCURVE",
"451 1292 OFFCURVE",
"330 1292 CURVE SMOOTH",
"27 1292 LINE",
"27 1261 LINE",
"152 1225 LINE",
"153 65 LINE"
);
},
{
closed = 1;
nodes = (
"524 1242 LINE",
"548 1246 OFFCURVE",
"610 1251 OFFCURVE",
"627 1251 CURVE SMOOTH",
"770 1251 OFFCURVE",
"821 1154 OFFCURVE",
"821 986 CURVE SMOOTH",
"821 844 OFFCURVE",
"777 691 OFFCURVE",
"617 691 CURVE SMOOTH",
"580 691 OFFCURVE",
"551 692 OFFCURVE",
"525 695 CURVE"
);
},
{
closed = 1;
nodes = (
"525 627 LINE",
"551 628 OFFCURVE",
"584 632 OFFCURVE",
"634 632 CURVE SMOOTH",
"812 632 OFFCURVE",
"875 570 OFFCURVE",
"875 367 CURVE SMOOTH",
"875 170 OFFCURVE",
"816 46 OFFCURVE",
"645 46 CURVE SMOOTH",
"601 46 OFFCURVE",
"549 50 OFFCURVE",
"525 60 CURVE"
);
}
);
};
layerId = "184155C8-9F61-4F1C-9784-DDA8EA717636";
paths = (
{
closed = 1;
nodes = (
"18 37 LINE",
"18 0 LINE",
"284 0 LINE SMOOTH",
"362 0 OFFCURVE",
"538 -14 OFFCURVE",
"632 -16 CURVE SMOOTH",
"1151 -26 OFFCURVE",
"1385 317 OFFCURVE",
"1385 793 CURVE SMOOTH",
"1385 1200 OFFCURVE",
"1234 1499 OFFCURVE",
"678 1499 CURVE SMOOTH",
"562 1499 OFFCURVE",
"405 1486 OFFCURVE",
"276 1486 CURVE SMOOTH",
"19 1486 LINE",
"19 1450 LINE",
"152 1412 LINE",
"153 78 LINE"
);
},
{
closed = 1;
nodes = (
"525 1424 LINE",
"544 1426 OFFCURVE",
"596 1439 OFFCURVE",
"640 1439 CURVE SMOOTH",
"901 1439 OFFCURVE",
"968 1146 OFFCURVE",
"968 750 CURVE SMOOTH",
"968 275 OFFCURVE",
"849 51 OFFCURVE",
"630 45 CURVE SMOOTH",
"597 44 OFFCURVE",
"561 49 OFFCURVE",
"525 64 CURVE"
);
}
);
width = 1432;
},
{
anchors = (
{
name = bottom;
position = "{702, 0}";
},
{
name = center;
position = "{702, 744}";
},
{
name = mark0;
position = "{732, -166}";
},
{
name = top;
position = "{702, 1486}";
}
);
layerId = "C9B9556E-C2FD-4F62-BB40-44923C452C22";
paths = (
{
closed = 1;
nodes = (
"24 36 LINE",
"24 0 LINE",
"249 0 LINE SMOOTH",
"307 0 OFFCURVE",
"467 -17 OFFCURVE",
"590 -17 CURVE SMOOTH",
"987 -17 OFFCURVE",
"1289 300 OFFCURVE",
"1289 785 CURVE SMOOTH",
"1289 1185 OFFCURVE",
"1087 1497 OFFCURVE",
"581 1497 CURVE SMOOTH",
"469 1497 OFFCURVE",
"329 1486 OFFCURVE",
"247 1486 CURVE SMOOTH",
"26 1486 LINE",
"26 1450 LINE",
"165 1420 LINE",
"165 67 LINE"
);
},
{
closed = 1;
nodes = (
"321 1430 LINE",
"337 1432 OFFCURVE",
"446 1447 OFFCURVE",
"536 1447 CURVE SMOOTH",
"922 1447 OFFCURVE",
"1130 1229 OFFCURVE",
"1130 763 CURVE SMOOTH",
"1130 333 OFFCURVE",
"923 33 OFFCURVE",
"548 33 CURVE SMOOTH",
"481 33 OFFCURVE",
"364 49 OFFCURVE",
"321 67 CURVE"
);
}
);
width = 1353;
}
);
leftKerningGroup = H;
leftMetricsKey = H;
rightKerningGroup = D;
unicode = 0044;
},
{
color = 7;
glyphname = Eth;
lastChange = "2019-07-26 15:57:21 +0000";
layers = (
{
components = (
{
name = D;
}
);
layerId = "184155C8-9F61-4F1C-9784-DDA8EA717636";
paths = (
{
closed = 1;
nodes = (
"752 710 LINE",
"752 832 LINE",
"38 832 LINE",
"38 710 LINE"
);
}
);
width = 1432;
},
{
components = (
{
name = D;
}
);
layerId = "C9B9556E-C2FD-4F62-BB40-44923C452C22";
paths = (
{
closed = 1;
nodes = (
"722 730 LINE",
"722 822 LINE",
"38 822 LINE",
"38 730 LINE"
);
}
);
width = 1319;
}
);
leftKerningGroup = H;
leftMetricsKey = D;
rightKerningGroup = D;
rightMetricsKey = D;
unicode = 00D0;
},
{
color = 9;
glyphname = E;
lastChange = "2019-07-26 15:57:21 +0000";
layers = (
{
anchors = (
{
name = bottom;
position = "{653, 0}";
},
{
name = mark0;
position = "{693, -166}";
},
{
name = ogonek;
position = "{1073, 20}";
},
{
name = top;
position = "{678, 1486}";
},
{
name = topleft;
position = "{36, 1486}";
}
);
layerId = "184155C8-9F61-4F1C-9784-DDA8EA717636";
paths = (
{
closed = 1;
nodes = (
"18 37 LINE",
"18 0 LINE",
"1184 0 LINE",
"1279 438 LINE",
"1107 456 LINE",
"938 120 LINE",
"533 59 LINE",
"533 735 LINE",
"751 728 LINE",
"834 462 LINE",
"882 462 LINE",
"882 1043 LINE",
"834 1043 LINE",
"751 794 LINE",
"533 787 LINE",
"533 1427 LINE",
"904 1389 LINE",
"1041 1108 LINE",
"1178 1108 LINE",
"1144 1486 LINE",
"19 1486 LINE",
"19 1450 LINE",
"152 1412 LINE",
"152 78 LINE"
);
}
);
width = 1271;
},
{
anchors = (
{
name = bottom;
position = "{634, 0}";
},
{
name = mark0;
position = "{666, -166}";
},
{
name = ogonek;
position = "{1152, 20}";
},
{
name = top;
position = "{666, 1486}";
},
{
name = topleft;
position = "{24, 1486}";
}
);
layerId = "C9B9556E-C2FD-4F62-BB40-44923C452C22";
paths = (
{
closed = 1;
nodes = (
"24 36 LINE",
"24 0 LINE",
"1056 0 LINE",
"1118 338 LINE",
"1046 362 LINE",
"924 73 LINE",
"321 48 LINE",
"321 741 LINE",
"702 722 LINE",
"738 542 LINE",
"792 542 LINE",
"792 984 LINE",
"738 984 LINE",
"702 808 LINE",
"321 786 LINE",
"321 1435 LINE",
"837 1422 LINE",
"928 1192 LINE",
"994 1192 LINE",
"966 1486 LINE",
"25 1486 LINE",
"25 1450 LINE",
"165 1420 LINE",
"165 67 LINE"
);
}
);
width = 1151;
}
);
leftKerningGroup = H;
leftMetricsKey = H;
rightKerningGroup = E;
unicode = 0045;
},
{
color = 7;
glyphname = Ecedilla;
lastChange = "2019-07-26 15:57:21 +0000";
layers = (
{
anchors = (
{
name = _bottom;
position = "{657, 0}";
},
{
name = bottom;
position = "{657, 0}";
},
{
name = mark0;
position = "{697, -166}";
},
{
name = ogonek;
position = "{1183, 20}";
},
{
name = top;
position = "{665, 1486}";
},
{
name = topleft;
position = "{40, 1486}";
}
);
layerId = "184155C8-9F61-4F1C-9784-DDA8EA717636";
paths = (
{
closed = 1;
nodes = (
"756 -513 OFFCURVE",
"862 -460 OFFCURVE",
"871 -289 CURVE SMOOTH",
"878 -159 OFFCURVE",
"784 -43 OFFCURVE",
"738 0 CURVE",
"1246 0 LINE",
"1293 376 LINE",
"1123 424 LINE",
"1002 165 LINE",
"565 139 LINE",
"565 681 LINE",
"810 677 LINE",
"843 502 LINE",
"982 502 LINE",
"982 1003 LINE",
"843 1003 LINE",
"808 840 LINE",
"565 834 LINE",
"565 1354 LINE",
"959 1334 LINE",
"1027 1133 LINE",
"1186 1133 LINE",
"1159 1486 LINE",
"66 1486 LINE",
"66 1347 LINE",
"222 1319 LINE",
"222 153 LINE",
"69 132 LINE",
"69 0 LINE",
"592 0 LINE",
"613 -31 OFFCURVE",
"652 -107 OFFCURVE",
"652 -175 CURVE SMOOTH",
"652 -298 OFFCURVE",
"604 -312 OFFCURVE",
"514 -312 CURVE SMOOTH",
"498 -312 OFFCURVE",
"459 -308 OFFCURVE",
"431 -299 CURVE",
"430 -484 LINE",
"465 -499 OFFCURVE",
"526 -513 OFFCURVE",
"572 -513 CURVE SMOOTH"
);
}
);
width = 1314;
},
{
anchors = (
{
name = _bottom;
position = "{650, 0}";
},
{
name = bottom;
position = "{650, 0}";
},
{
name = mark0;
position = "{682, -166}";
},
{
name = ogonek;
position = "{1168, 20}";
},
{
name = top;
position = "{662, 1486}";
},
{
name = topleft;
position = "{40, 1486}";
}
);
layerId = "C9B9556E-C2FD-4F62-BB40-44923C452C22";
paths = (
{
closed = 1;
nodes = (
"722 -470 OFFCURVE",
"810 -422 OFFCURVE",
"816 -286 CURVE SMOOTH",
"822 -160 OFFCURVE",
"732 -38 OFFCURVE",
"690 0 CURVE",
"1184 0 LINE",
"1246 338 LINE",
"1150 368 LINE",
"1048 118 LINE",
"436 102 LINE",
"436 718 LINE",
"804 712 LINE",
"830 542 LINE",
"930 542 LINE",
"930 984 LINE",
"830 984 LINE",
"804 818 LINE",
"436 812 LINE",
"436 1394 LINE",
"972 1384 LINE",
"1026 1192 LINE",
"1122 1192 LINE",
"1094 1486 LINE",
"104 1486 LINE",
"104 1400 LINE",
"272 1378 LINE",
"272 104 LINE",
"100 86 LINE",
"100 0 LINE",
"608 0 LINE",
"626 -26 OFFCURVE",
"676 -116 OFFCURVE",
"676 -200 CURVE SMOOTH",
"676 -322 OFFCURVE",
"622 -342 OFFCURVE",
"524 -342 CURVE SMOOTH",
"504 -342 OFFCURVE",
"460 -336 OFFCURVE",
"432 -326 CURVE",
"430 -444 LINE",
"466 -458 OFFCURVE",
"526 -470 OFFCURVE",
"572 -470 CURVE SMOOTH"
);
}
);
width = 1298;
}
);
leftKerningGroup = H;
rightKerningGroup = E;
unicode = 0228;
},
{
color = 0;
glyphname = Ezh;
lastChange = "2019-07-26 15:57:21 +0000";
layers = (
{
anchors = (
{
name = top;
position = "{617, 1486}";
}
);
layerId = "184155C8-9F61-4F1C-9784-DDA8EA717636";
paths = (
{
closed = 1;
nodes = (
"1061 -12 OFFCURVE",
"1205 191 OFFCURVE",
"1205 446 CURVE SMOOTH",
"1205 668 OFFCURVE",
"1020 788 OFFCURVE",
"851 788 CURVE SMOOTH",
"772 788 OFFCURVE",
"718 783 OFFCURVE",
"690 780 CURVE",
"1196 1417 LINE",
"1150 1486 LINE",
"149 1486 LINE",
"104 1084 LINE",
"264 1058 LINE",
"373 1401 LINE",
"853 1433 LINE",
"706 1279 LINE",
"373 773 LINE",
"404 730 LINE",
"434 734 OFFCURVE",
"507 734 OFFCURVE",
"532 734 CURVE",
"731 734 OFFCURVE",
"795 642 OFFCURVE",
"795 437 CURVE SMOOTH",
"795 197 OFFCURVE",
"731 50 OFFCURVE",
"538 50 CURVE SMOOTH",
"468 50 OFFCURVE",
"400 90 OFFCURVE",
"381 138 CURVE",
"252 464 LINE",
"106 464 LINE",
"138 52 LINE",
"243 54 OFFCURVE",
"328 -12 OFFCURVE",
"540 -12 CURVE SMOOTH"
);
}
);
width = 1283;
},
{
anchors = (
{
name = top;
position = "{533, 1486}";
}
);
layerId = "C9B9556E-C2FD-4F62-BB40-44923C452C22";
paths = (
{
closed = 1;
nodes = (
"829 -12 OFFCURVE",
"1039 152 OFFCURVE",
"1039 466 CURVE SMOOTH",
"1039 724 OFFCURVE",
"836 837 OFFCURVE",
"674 837 CURVE SMOOTH",
"634 837 OFFCURVE",
"594 835 OFFCURVE",
"550 829 CURVE",
"988 1432 LINE",
"951 1486 LINE",
"117 1486 LINE",
"79 1142 LINE",
"157 1142 LINE",
"256 1406 LINE",
"806 1416 LINE",
"682 1255 LINE",
"365 808 LINE",
"379 768 LINE",
"407 768 OFFCURVE",
"435 768 OFFCURVE",
"463 768 CURVE",
"775 786 OFFCURVE",
"878 615 OFFCURVE",
"878 440 CURVE SMOOTH",
"878 152 OFFCURVE",
"689 38 OFFCURVE",
"461 38 CURVE SMOOTH",
"280 38 OFFCURVE",
"237 76 OFFCURVE",
"217 84 CURVE",
"170 376 LINE",
"79 376 LINE",
"50 56 LINE",
"102 44 OFFCURVE",
"222 -12 OFFCURVE",
"461 -12 CURVE SMOOTH"
);
}
);
width = 1069;
}
);
leftKerningGroup = Ezh;
rightKerningGroup = Ezh;
unicode = 01B7;
},
{
color = 4;
glyphname = F;
lastChange = "2019-07-31 17:53:11 +0000";
layers = (
{
anchors = (
{
name = bottom;
position = "{341, 0}";
},
{
name = mark0;
position = "{643, -166}";
},
{
name = top;
position = "{669, 1486}";
}
);
layerId = "184155C8-9F61-4F1C-9784-DDA8EA717636";
paths = (
{
closed = 1;
nodes = (
"18 38 LINE",
"18 0 LINE",
"750 0 LINE",
"750 38 LINE",
"533 72 LINE",
"533 711 LINE",
"751 704 LINE",
"834 438 LINE",
"882 438 LINE",
"882 1019 LINE",
"835 1019 LINE",
"751 770 LINE",
"533 763 LINE",
"533 1426 LINE",
"855 1389 LINE",
"987 1088 LINE",
"1127 1088 LINE",
"1098 1486 LINE",
"19 1486 LINE",
"19 1450 LINE",
"152 1412 LINE",
"152 72 LINE"
);
}
);
width = 1172;
},
{
anchors = (
{
name = bottom;
position = "{241, 0}";
},
{
name = mark0;
position = "{556, -166}";
},
{
name = top;
position = "{606, 1487}";
}
);
layerId = "C9B9556E-C2FD-4F62-BB40-44923C452C22";
paths = (
{
closed = 1;
nodes = (
"24 36 LINE",
"24 0 LINE",
"518 0 LINE",
"518 36 LINE",
"321 67 LINE",
"321 734 LINE",
"703 721 LINE",
"738 541 LINE",
"792 541 LINE",
"792 983 LINE",
"738 983 LINE",
"703 807 LINE",
"321 791 LINE",
"321 1433 LINE",
"849 1422 LINE",
"937 1192 LINE",
"1004 1192 LINE",
"977 1486 LINE",
"25 1486 LINE",
"25 1450 LINE",
"165 1420 LINE",
"165 67 LINE"
);
}
);
width = 1037;
}
);
leftKerningGroup = H;
leftMetricsKey = H;
rightKerningGroup = F;
unicode = 0046;
},
{
color = 9;
glyphname = G;
lastChange = "2019-07-26 15:57:21 +0000";
layers = (
{
anchors = (
{
name = bottom;
position = "{737, 0}";
},
{
name = mark0;
position = "{747, -166}";
},
{
name = top;
position = "{797, 1486}";
}
);
layerId = "184155C8-9F61-4F1C-9784-DDA8EA717636";
paths = (
{
closed = 1;
nodes = (
"1074 -22 OFFCURVE",
"1123 80 OFFCURVE",
"1315 80 CURVE",
"1315 621 LINE",
"1399 641 LINE",
"1399 694 LINE",
"797 694 LINE",
"797 641 LINE",
"973 621 LINE",
"973 184 LINE",
"943 88 OFFCURVE",
"846 36 OFFCURVE",
"741 36 CURVE SMOOTH",
"519 36 OFFCURVE",
"460 385 OFFCURVE",
"462 758 CURVE SMOOTH",
"464 1245 OFFCURVE",
"540 1447 OFFCURVE",
"719 1447 CURVE SMOOTH",
"913 1447 OFFCURVE",
"957 1381 OFFCURVE",
"967 1316 CURVE",
"1019 1006 LINE",
"1245 1006 LINE",
"1299 1437 LINE",
"1109 1437 OFFCURVE",
"1031 1507 OFFCURVE",
"743 1507 CURVE SMOOTH",
"289 1507 OFFCURVE",
"30 1213 OFFCURVE",
"30 734 CURVE SMOOTH",
"30 289 OFFCURVE",
"238 -22 OFFCURVE",
"712 -22 CURVE SMOOTH"
);
}
);
width = 1414;
},
{
anchors = (
{
name = bottom;
position = "{680, 0}";
},
{
name = mark0;
position = "{708, -166}";
},
{
name = top;
position = "{740, 1486}";
}
);
layerId = "C9B9556E-C2FD-4F62-BB40-44923C452C22";
paths = (
{
closed = 1;
nodes = (
"971 -20 OFFCURVE",
"1081 76 OFFCURVE",
"1179 80 CURVE",
"1179 629 LINE",
"1301 650 LINE",
"1301 718 LINE",
"784 718 LINE",
"784 650 LINE",
"1028 629 LINE",
"1028 121 LINE",
"958 74 OFFCURVE",
"844 32 OFFCURVE",
"722 32 CURVE SMOOTH",
"333 32 OFFCURVE",
"210 399 OFFCURVE",
"210 751 CURVE SMOOTH",
"210 1178 OFFCURVE",
"406 1451 OFFCURVE",
"773 1451 CURVE SMOOTH",
"891 1451 OFFCURVE",
"977 1416 OFFCURVE",
"1014 1384 CURVE",
"1045 1108 LINE",
"1149 1108 LINE",
"1164 1438 LINE",
"1094 1438 OFFCURVE",
"999 1502 OFFCURVE",
"747 1502 CURVE SMOOTH",
"336 1502 OFFCURVE",
"40 1181 OFFCURVE",
"40 724 CURVE SMOOTH",
"40 323 OFFCURVE",
"262 -20 OFFCURVE",
"678 -20 CURVE SMOOTH"
);
}
);
width = 1326;
}
);
leftKerningGroup = O;
rightKerningGroup = G;
unicode = 0047;
},
{
color = 0;
glyphname = Gstroke;
lastChange = "2019-07-26 15:57:21 +0000";
layers = (
{
anchors = (
{
name = bottom;
position = "{718, 0}";
},
{
name = mark0;
position = "{728, -166}";
},
{
name = top;
position = "{778, 1486}";
}
);
components = (
{
name = G;
}
);
layerId = "184155C8-9F61-4F1C-9784-DDA8EA717636";
paths = (
{
closed = 1;
nodes = (
"748 467 LINE",
"748 370 LINE",
"1501 370 LINE",
"1501 467 LINE"
);
}
);
width = 1414;
},
{
anchors = (
{
name = bottom;
position = "{737, 0}";
},
{
name = mark0;
position = "{765, -166}";
},
{
name = top;
position = "{797, 1486}";
}
);
components = (
{
name = G;
}
);
layerId = "C9B9556E-C2FD-4F62-BB40-44923C452C22";
paths = (
{
closed = 1;
nodes = (
"803 454 LINE",
"803 334 LINE",
"1499 334 LINE",
"1499 454 LINE"
);
}
);
width = 1484;
}
);
leftKerningGroup = G;
leftMetricsKey = G;
widthMetricsKey = G;
rightKerningGroup = Gstroke;
unicode = 01E4;
},
{
color = 9;
glyphname = H;
lastChange = "2019-07-26 15:57:21 +0000";
layers = (
{
anchors = (
{
name = bottom;
position = "{770, 0}";
},
{
name = center;
position = "{749, 743}";
},
{
name = top;
position = "{774, 1486}";
},
{
name = topleft;
position = "{12, 1486}";
}
);
layerId = "184155C8-9F61-4F1C-9784-DDA8EA717636";
paths = (
{
closed = 1;
nodes = (
"18 38 LINE",
"18 0 LINE",
"679 0 LINE",
"679 38 LINE",
"535 72 LINE",
"535 732 LINE",
"983 732 LINE",
"983 72 LINE",
"841 38 LINE",
"841 0 LINE",
"1500 0 LINE",
"1500 38 LINE",
"1366 72 LINE",
"1366 1412 LINE",
"1498 1450 LINE",
"1498 1486 LINE",
"841 1486 LINE",
"841 1450 LINE",
"983 1412 LINE",
"983 798 LINE",
"535 798 LINE",
"535 1412 LINE",
"678 1450 LINE",
"678 1486 LINE",
"19 1486 LINE",
"19 1450 LINE",
"152 1412 LINE",
"152 72 LINE"
);
}
);
width = 1518;
},
{
anchors = (
{
name = bottom;
position = "{715, 0}";
},
{
name = center;
position = "{690, 743}";
},
{
name = top;
position = "{731, 1486}";
},
{
name = topleft;
position = "{-5, 1486}";
}
);
layerId = "C9B9556E-C2FD-4F62-BB40-44923C452C22";
paths = (
{
closed = 1;
nodes = (
"24 36 LINE",
"24 0 LINE",
"466 0 LINE",
"466 36 LINE",
"321 67 LINE",
"321 732 LINE",
"1058 732 LINE",
"1058 67 LINE",
"913 36 LINE",
"913 0 LINE",
"1355 0 LINE",
"1355 36 LINE",
"1214 67 LINE",
"1214 1420 LINE",
"1354 1450 LINE",
"1354 1486 LINE",
"913 1486 LINE",
"913 1450 LINE",
"1058 1420 LINE",
"1058 794 LINE",
"321 794 LINE",
"321 1420 LINE",
"466 1450 LINE",
"466 1486 LINE",
"25 1486 LINE",
"25 1450 LINE",
"165 1420 LINE",
"165 67 LINE"
);
}
);
width = 1379;
}
);
leftKerningGroup = H;
rightKerningGroup = H;
unicode = 0048;
},
{
color = 0;
glyphname = Hbar;
lastChange = "2019-07-26 15:57:21 +0000";
layers = (
{
components = (
{
name = H;
}
);
layerId = "184155C8-9F61-4F1C-9784-DDA8EA717636";
paths = (
{
closed = 1;
nodes = (
"22 1038 LINE",
"22 980 LINE",
"1497 980 LINE",
"1497 1038 LINE"
);
}
);
width = 1678;
},
{
components = (
{
name = H;
}
);
layerId = "C9B9556E-C2FD-4F62-BB40-44923C452C22";
paths = (
{
closed = 1;
nodes = (
"22 1038 LINE",
"22 980 LINE",
"1415 980 LINE",
"1415 1038 LINE"
);
}
);
width = 1648;
}
);
leftKerningGroup = H;
rightKerningGroup = H;
unicode = 0126;
},
{
color = 11;
glyphname = I;
lastChange = "2019-07-26 15:57:21 +0000";
layers = (
{
anchors = (
{
name = bottom;
position = "{346, 0}";
},
{
name = mark0;
position = "{348, -166}";
},
{
name = ogonek;
position = "{648, 20}";
},
{
name = top;
position = "{346, 1486}";
},
{
name = topleft;
position = "{33, 1486}";
}
);
layerId = "184155C8-9F61-4F1C-9784-DDA8EA717636";
paths = (
{
closed = 1;
nodes = (
"16 38 LINE",
"16 0 LINE",
"688 0 LINE",
"688 38 LINE",
"534 72 LINE",
"534 1412 LINE",
"687 1450 LINE",
"687 1486 LINE",
"17 1486 LINE",
"17 1450 LINE",
"150 1412 LINE",
"150 72 LINE"
);
}
);
width = 704;
},
{
anchors = (
{
name = bottom;
position = "{269, 0}";
},
{
name = mark0;
position = "{271, -166}";
},
{
name = ogonek;
position = "{571, 20}";
},
{
name = top;
position = "{269, 1486}";
},
{
name = topleft;
position = "{39, 1486}";
}
);
layerId = "C9B9556E-C2FD-4F62-BB40-44923C452C22";
paths = (
{
closed = 1;
nodes = (
"55 36 LINE",
"55 0 LINE",
"482 0 LINE",
"482 36 LINE",
"346 67 LINE",
"346 1420 LINE",
"482 1450 LINE",
"482 1486 LINE",
"55 1486 LINE",
"55 1450 LINE",
"192 1420 LINE",
"192 67 LINE"
);
}
);
width = 537;
}
);
leftKerningGroup = I;
rightKerningGroup = I;
unicode = 0049;
},
{
color = 7;
glyphname = Iogonek;
lastChange = "2019-07-26 15:57:21 +0000";
layers = (
{
components = (
{
name = I;
}
);
layerId = "184155C8-9F61-4F1C-9784-DDA8EA717636";
paths = (
{
closed = 1;
nodes = (
"344 0 LINE",
"183 -64 OFFCURVE",
"63 -184 OFFCURVE",
"63 -301 CURVE SMOOTH",
"63 -427 OFFCURVE",
"178 -501 OFFCURVE",
"341 -501 CURVE SMOOTH",
"423 -501 OFFCURVE",
"535 -478 OFFCURVE",
"591 -436 CURVE",
"591 -296 LINE",
"546 -315 OFFCURVE",
"519 -322 OFFCURVE",
"472 -322 CURVE SMOOTH",
"377 -322 OFFCURVE",
"326 -283 OFFCURVE",
"326 -215 CURVE SMOOTH",
"326 -147 OFFCURVE",
"410 -47 OFFCURVE",
"535 0 CURVE",
"444 36 LINE"
);
}
);
width = 704;
},
{
components = (
{
name = I;
}
);
layerId = "C9B9556E-C2FD-4F62-BB40-44923C452C22";
paths = (
{
closed = 1;
nodes = (
"234 0 LINE",
"102 -60 OFFCURVE",
"30 -191 OFFCURVE",
"30 -299 CURVE SMOOTH",
"30 -441 OFFCURVE",
"162 -498 OFFCURVE",
"234 -498 CURVE SMOOTH",
"316 -498 OFFCURVE",
"384 -472 OFFCURVE",
"440 -430 CURVE",
"440 -346 LINE",
"394 -370 OFFCURVE",
"336 -386 OFFCURVE",
"284 -386 CURVE SMOOTH",
"200 -386 OFFCURVE",
"178 -352 OFFCURVE",
"178 -258 CURVE SMOOTH",
"178 -174 OFFCURVE",
"234 -56 OFFCURVE",
"358 0 CURVE",
"309 36 LINE"
);
}
);
width = 498;
}
);
leftKerningGroup = I;
widthMetricsKey = I;
rightKerningGroup = I;
rightMetricsKey = I;
unicode = 012E;
},
{
color = 11;
glyphname = J;
lastChange = "2019-07-26 15:57:21 +0000";
layers = (
{
anchors = (
{
name = mark0;
position = "{247, -166}";
},
{
name = top;
position = "{335, 1486}";
}
);
layerId = "184155C8-9F61-4F1C-9784-DDA8EA717636";
paths = (
{
closed = 1;
nodes = (
"-37 -387 LINE",
"241 -357 OFFCURVE",
"442 -195 OFFCURVE",
"506 29 CURVE SMOOTH",
"533 122 OFFCURVE",
"535 298 OFFCURVE",
"535 550 CURVE SMOOTH",
"535 1412 LINE",
"688 1450 LINE",
"688 1486 LINE",
"21 1486 LINE",
"21 1450 LINE",
"154 1412 LINE",
"154 318 LINE SMOOTH",
"154 107 OFFCURVE",
"139 -19 OFFCURVE",
"112 -99 CURVE SMOOTH",
"64 -242 OFFCURVE",
"30 -286 OFFCURVE",
"-69 -330 CURVE"
);
}
);
width = 704;
},
{
anchors = (
{
name = mark0;
position = "{167, -166}";
},
{
name = top;
position = "{261, 1486}";
}
);
layerId = "C9B9556E-C2FD-4F62-BB40-44923C452C22";
paths = (
{
closed = 1;
nodes = (
"-79 -346 LINE",
"93 -314 OFFCURVE",
"287 -190 OFFCURVE",
"327 18 CURVE SMOOTH",
"351 142 OFFCURVE",
"344 254 OFFCURVE",
"344 476 CURVE SMOOTH",
"344 1420 LINE",
"482 1450 LINE",
"482 1486 LINE",
"44 1486 LINE",
"44 1450 LINE",
"194 1420 LINE",
"194 506 LINE SMOOTH",
"194 208 OFFCURVE",
"193 96 OFFCURVE",
"160 -18 CURVE SMOOTH",
"118 -164 OFFCURVE",
"-5 -269 OFFCURVE",
"-123 -301 CURVE"
);
}
);
width = 537;
}
);
leftKerningGroup = J;
widthMetricsKey = I;
rightKerningGroup = J;
rightMetricsKey = I;
unicode = 004A;
},
{
color = 9;
glyphname = K;
lastChange = "2019-07-26 15:57:21 +0000";
layers = (
{
anchors = (
{
name = bottom;
position = "{831, 0}";
},
{
name = mark0;
position = "{780, -159}";
},
{
name = top;
position = "{812, 1483}";
}
);
layerId = "184155C8-9F61-4F1C-9784-DDA8EA717636";
paths = (
{
closed = 1;
nodes = (
"1457 1 LINE",
"1457 39 LINE",
"1396 66 LINE",
"1264 236 OFFCURVE",
"975 943 OFFCURVE",
"872 995 CURVE",
"780 851 LINE",
"1207 1409 LINE",
"1384 1447 LINE",
"1384 1487 LINE",
"920 1486 LINE",
"920 1449 LINE",
"1100 1412 LINE",
"447 526 LINE",
"535 621 LINE",
"535 1412 LINE",
"678 1450 LINE",
"678 1486 LINE",
"19 1486 LINE",
"19 1450 LINE",
"152 1412 LINE",
"152 71 LINE",
"18 38 LINE",
"18 0 LINE",
"678 0 LINE",
"678 38 LINE",
"535 71 LINE",
"535 566 LINE",
"445 421 LINE",
"731 794 LINE",
"631 688 LINE",
"709 612 OFFCURVE",
"896 0 OFFCURVE",
"984 0 CURVE"
);
}
);
width = 1467;
},
{
anchors = (
{
name = bottom;
position = "{668, 0}";
},
{
name = mark0;
position = "{770, -166}";
},
{
name = top;
position = "{756, 1486}";
}
);
layerId = "C9B9556E-C2FD-4F62-BB40-44923C452C22";
paths = (
{
closed = 1;
nodes = (
"1251 0 LINE",
"1251 36 LINE",
"1165 68 LINE",
"1080 78 OFFCURVE",
"776 685 OFFCURVE",
"574 835 CURVE",
"558 800 LINE",
"1046 1422 LINE",
"1180 1450 LINE",
"1180 1486 LINE",
"781 1486 LINE",
"781 1450 LINE",
"946 1420 LINE",
"297 572 LINE",
"321 557 LINE",
"321 1420 LINE",
"466 1450 LINE",
"466 1486 LINE",
"25 1486 LINE",
"25 1450 LINE",
"165 1420 LINE",
"165 67 LINE",
"24 38 LINE",
"24 0 LINE",
"466 0 LINE",
"466 36 LINE",
"321 67 LINE",
"321 543 LINE",
"299 470 LINE",
"531 766 LINE",
"479 747 LINE",
"668 580 OFFCURVE",
"929 0 OFFCURVE",
"1002 0 CURVE"
);
}
);
width = 1253;
}
);
leftKerningGroup = H;
rightKerningGroup = K;
unicode = 004B;
},
{
color = 9;
glyphname = L;
lastChange = "2019-07-26 15:57:21 +0000";
layers = (
{
anchors = (
{
name = bottom;
position = "{670, 0}";
},
{
name = center;
position = "{641, 744}";
},
{
name = mark0;
position = "{688, -166}";
},
{
name = top;
position = "{408, 1486}";
},
{
name = topright;
position = "{989, 1111}";
}
);
layerId = "184155C8-9F61-4F1C-9784-DDA8EA717636";
paths = (
{
closed = 1;
nodes = (
"20 37 LINE",
"20 0 LINE",
"1126 0 LINE",
"1203 402 LINE",
"1048 429 LINE",
"897 120 LINE",
"535 59 LINE",
"535 1412 LINE",
"696 1450 LINE",
"696 1486 LINE",
"21 1486 LINE",
"21 1450 LINE",
"154 1412 LINE",
"154 78 LINE"
);
}
);
width = 1203;
},
{
anchors = (
{
name = bottom;
position = "{632, 0}";
},
{
name = center;
position = "{632, 744}";
},
{
name = mark0;
position = "{678, -166}";
},
{
name = top;
position = "{362, 1486}";
},
{
name = topright;
position = "{908, 1110}";
}
);
layerId = "C9B9556E-C2FD-4F62-BB40-44923C452C22";
paths = (
{
closed = 1;
nodes = (
"24 36 LINE",
"24 0 LINE",
"956 0 LINE",
"1030 416 LINE",
"959 432 LINE",
"824 91 LINE",
"321 63 LINE",
"322 1420 LINE",
"482 1450 LINE",
"482 1486 LINE",
"25 1486 LINE",
"25 1450 LINE",
"165 1420 LINE",
"165 67 LINE"
);
}
);
width = 1030;
}
);
leftKerningGroup = H;
rightKerningGroup = L;
unicode = 004C;
},
{
color = 0;
glyphname = Ldot;
lastChange = "2019-07-26 15:57:21 +0000";
layers = (
{
anchors = (
{
name = mark0;
position = "{688, -166}";
}
);
components = (
{
name = L;
}
);
layerId = "184155C8-9F61-4F1C-9784-DDA8EA717636";
paths = (
{
closed = 1;
nodes = (
"1296 693 OFFCURVE",
"1381 759 OFFCURVE",
"1381 874 CURVE SMOOTH",
"1381 960 OFFCURVE",
"1317 1042 OFFCURVE",
"1206 1042 CURVE SMOOTH",
"1095 1042 OFFCURVE",
"1005 968 OFFCURVE",
"1005 860 CURVE SMOOTH",
"1005 762 OFFCURVE",
"1087 693 OFFCURVE",
"1175 693 CURVE SMOOTH"
);
}
);
width = 1560;
},
{
anchors = (
{
name = mark0;
position = "{678, -166}";
}
);
components = (
{
name = L;
}
);
layerId = "C9B9556E-C2FD-4F62-BB40-44923C452C22";
paths = (
{
closed = 1;
nodes = (
"898 686 OFFCURVE",
"960 740 OFFCURVE",
"960 818 CURVE SMOOTH",
"960 876 OFFCURVE",
"928 930 OFFCURVE",
"852 930 CURVE SMOOTH",
"786 930 OFFCURVE",
"722 874 OFFCURVE",
"722 798 CURVE SMOOTH",
"722 730 OFFCURVE",
"772 686 OFFCURVE",
"832 686 CURVE SMOOTH"
);
}
);
width = 1030;
}
);
leftKerningGroup = H;
rightKerningGroup = anoteleia;
unicode = 013F;
},
{
color = 7;
glyphname = Lslash;
lastChange = "2019-07-26 15:57:21 +0000";
layers = (
{
components = (
{
name = L;
}
);
layerId = "184155C8-9F61-4F1C-9784-DDA8EA717636";
paths = (
{
closed = 1;
nodes = (
"44 763 LINE",
"44 613 LINE",
"366 739 LINE",
"423 759 LINE",
"906 953 LINE",
"906 1113 LINE",
"425 914 LINE",
"366 890 LINE"
);
}
);
width = 1276;
},
{
components = (
{
name = L;
}
);
layerId = "C9B9556E-C2FD-4F62-BB40-44923C452C22";
paths = (
{
closed = 1;
nodes = (
"50 756 LINE",
"50 634 LINE",
"344 760 LINE",
"376 772 LINE",
"860 984 LINE",
"860 1112 LINE",
"378 898 LINE",
"344 884 LINE"
);
}
);
width = 1266;
}
);
leftKerningGroup = H;
rightKerningGroup = L;
unicode = 0141;
},
{
color = 11;
glyphname = M;
lastChange = "2019-07-26 15:57:21 +0000";
layers = (
{
anchors = (
{
name = bottom;
position = "{867, 0}";
},
{
name = mark0;
position = "{743, -166}";
},
{
name = top;
position = "{936, 1486}";
}
);
layerId = "184155C8-9F61-4F1C-9784-DDA8EA717636";
paths = (
{
closed = 1;
nodes = (
"-55 36 LINE",
"-55 0 LINE",
"364 0 LINE",
"364 36 LINE",
"197 71 LINE",
"278 1046 LINE",
"311 1360 LINE",
"387 1047 LINE",
"628 57 LINE",
"970 57 LINE",
"1156 1046 LINE",
"1219 1360 LINE",
"1257 1044 LINE",
"1353 72 LINE",
"1208 38 LINE",
"1208 0 LINE",
"1895 0 LINE",
"1895 36 LINE",
"1753 72 LINE",
"1603 1413 LINE",
"1762 1451 LINE",
"1762 1486 LINE",
"1171 1486 LINE",
"985 520 LINE",
"944 282 LINE",
"902 516 LINE",
"682 1486 LINE",
"95 1486 LINE",
"95 1451 LINE",
"249 1413 LINE",
"100 71 LINE"
);
}
);
width = 1887;
},
{
anchors = (
{
name = bottom;
position = "{958, 0}";
},
{
name = mark0;
position = "{942, -166}";
},
{
name = top;
position = "{897, 1486}";
}
);
layerId = "C9B9556E-C2FD-4F62-BB40-44923C452C22";
paths = (
{
closed = 1;
nodes = (
"11 36 LINE",
"11 0 LINE",
"446 0 LINE",
"446 36 LINE",
"270 60 LINE",
"372 1016 LINE",
"406 1419 LINE",
"524 1016 LINE",
"799 72 LINE",
"929 72 LINE",
"1236 1040 LINE",
"1338 1419 LINE",
"1375 1016 LINE",
"1469 60 LINE",
"1295 36 LINE",
"1295 0 LINE",
"1801 0 LINE",
"1801 36 LINE",
"1642 62 LINE",
"1472 1416 LINE",
"1619 1451 LINE",
"1619 1486 LINE",
"1262 1486 LINE",
"995 562 LINE",
"908 196 LINE",
"813 562 LINE",
"552 1486 LINE",
"168 1486 LINE",
"168 1451 LINE",
"333 1416 LINE",
"163 60 LINE"
);
}
);
width = 1812;
}
);
leftKerningGroup = M;
rightKerningGroup = M;
unicode = 004D;
},
{
color = 9;
glyphname = N;
lastChange = "2019-07-26 15:57:21 +0000";
layers = (
{
anchors = (
{
name = bottom;
position = "{698, 0}";
},
{
name = mark0;
position = "{753, -166}";
},
{
name = top;
position = "{733, 1486}";
}
);
layerId = "184155C8-9F61-4F1C-9784-DDA8EA717636";
paths = (
{
closed = 1;
nodes = (
"-16 36 LINE",
"-16 0 LINE",
"405 0 LINE",
"405 36 LINE",
"225 95 LINE",
"227 1161 LINE",
"318 1007 LINE",
"970 0 LINE",
"1205 0 LINE",
"1205 1392 LINE",
"1376 1450 LINE",
"1376 1486 LINE",
"955 1486 LINE",
"955 1450 LINE",
"1132 1392 LINE",
"1133 402 LINE",
"1023 599 LINE",
"450 1486 LINE",
"-13 1486 LINE",
"-13 1432 LINE",
"49 1432 OFFCURVE",
"147 1304 OFFCURVE",
"154 1241 CURVE",
"152 95 LINE"
);
}
);
width = 1351;
},
{
anchors = (
{
name = bottom;
position = "{763, 0}";
},
{
name = mark0;
position = "{781, -166}";
},
{
name = top;
position = "{783, 1486}";
}
);
layerId = "C9B9556E-C2FD-4F62-BB40-44923C452C22";
paths = (
{
closed = 1;
nodes = (
"-14 36 LINE",
"-14 0 LINE",
"389 0 LINE",
"389 36 LINE",
"230 60 LINE",
"222 1350 LINE",
"334 1156 LINE",
"1037 0 LINE",
"1170 0 LINE",
"1181 1426 LINE",
"1331 1450 LINE",
"1331 1486 LINE",
"946 1486 LINE",
"946 1450 LINE",
"1095 1426 LINE",
"1104 149 LINE",
"964 402 LINE",
"312 1486 LINE",
"5 1486 LINE",
"5 1450 LINE",
"60 1440 OFFCURVE",
"151 1403 OFFCURVE",
"155 1381 CURVE",
"144 60 LINE"
);
}
);
width = 1313;
}
);
leftKerningGroup = H;
rightKerningGroup = H;
unicode = 004E;
},
{
color = 0;
glyphname = Eng;
lastChange = "2019-07-26 15:57:21 +0000";
layers = (
{
layerId = "184155C8-9F61-4F1C-9784-DDA8EA717636";
paths = (
{
closed = 1;
nodes = (
"-16 36 LINE",
"-16 0 LINE",
"405 0 LINE",
"405 36 LINE",
"225 133 LINE",
"228 1161 LINE",
"320 1005 LINE",
"949 34 LINE",
"916 -78 OFFCURVE",
"881 -141 OFFCURVE",
"811 -203 CURVE SMOOTH",
"747 -260 OFFCURVE",
"708 -286 OFFCURVE",
"609 -330 CURVE",
"641 -387 LINE",
"919 -357 OFFCURVE",
"1119 -195 OFFCURVE",
"1184 29 CURVE SMOOTH",
"1211 122 OFFCURVE",
"1213 298 OFFCURVE",
"1213 534 CURVE SMOOTH",
"1213 1353 LINE",
"1384 1450 LINE",
"1384 1486 LINE",
"963 1486 LINE",
"963 1450 LINE",
"1140 1353 LINE",
"1141 442 LINE",
"1031 637 LINE",
"474 1486 LINE",
"-13 1486 LINE",
"-13 1432 LINE",
"48 1432 OFFCURVE",
"147 1306 OFFCURVE",
"152 1243 CURVE",
"152 133 LINE"
);
}
);
width = 1596;
},
{
layerId = "C9B9556E-C2FD-4F62-BB40-44923C452C22";
paths = (
{
closed = 1;
nodes = (
"-11 36 LINE",
"-11 0 LINE",
"369 0 LINE",
"369 36 LINE",
"212 87 LINE",
"212 1342 LINE",
"334 1157 LINE",
"1049 61 LINE",
"1046 -28 OFFCURVE",
"1022 -70 OFFCURVE",
"978 -130 CURVE SMOOTH",
"927 -199 OFFCURVE",
"861 -245 OFFCURVE",
"753 -293 CURVE",
"786 -340 LINE",
"892 -300 OFFCURVE",
"985 -253 OFFCURVE",
"1061 -155 CURVE SMOOTH",
"1145 -47 OFFCURVE",
"1170 92 OFFCURVE",
"1170 223 CURVE SMOOTH",
"1170 1402 LINE",
"1328 1449 LINE",
"1328 1486 LINE",
"956 1486 LINE",
"956 1449 LINE",
"1114 1399 LINE",
"1114 155 LINE",
"970 400 LINE",
"257 1486 LINE",
"8 1486 LINE",
"8 1451 LINE",
"63 1439 OFFCURVE",
"151 1403 OFFCURVE",
"155 1378 CURVE",
"155 87 LINE"
);
}
);
width = 1568;
}
);
leftKerningGroup = H;
rightKerningGroup = H;
unicode = 014A;
},
{
color = 11;
glyphname = O;
lastChange = "2019-07-26 15:57:21 +0000";
layers = (
{
anchors = (
{
name = bottom;
position = "{741, 0}";
},
{
name = center;
position = "{746, 744}";
},
{
name = ogonek;
position = "{821, 20}";
},
{
name = top;
position = "{751, 1486}";
},
{
name = topleft;
position = "{49, 1486}";
},
{
name = topright;
position = "{1149, 1486}";
}
);
layerId = "184155C8-9F61-4F1C-9784-DDA8EA717636";
paths = (
{
closed = 1;
nodes = (
"1145 -24 OFFCURVE",
"1378 315 OFFCURVE",
"1378 775 CURVE SMOOTH",
"1378 1220 OFFCURVE",
"1163 1504 OFFCURVE",
"725 1504 CURVE SMOOTH",
"275 1504 OFFCURVE",
"40 1168 OFFCURVE",
"40 714 CURVE SMOOTH",
"40 262 OFFCURVE",
"257 -24 OFFCURVE",
"699 -24 CURVE SMOOTH"
);
},
{
closed = 1;
nodes = (
"879 1446 OFFCURVE",
"963 1199 OFFCURVE",
"963 775 CURVE SMOOTH",
"963 273 OFFCURVE",
"865 34 OFFCURVE",
"710 34 CURVE SMOOTH",
"538 34 OFFCURVE",
"456 291 OFFCURVE",
"456 714 CURVE SMOOTH",
"456 1215 OFFCURVE",
"551 1446 OFFCURVE",
"712 1446 CURVE SMOOTH"
);
}
);
width = 1418;
},
{
anchors = (
{
name = bottom;
position = "{705, 0}";
},
{
name = center;
position = "{705, 743}";
},
{
name = ogonek;
position = "{1265, 10}";
},
{
name = top;
position = "{705, 1486}";
},
{
name = topleft;
position = "{25, 1486}";
},
{
name = topright;
position = "{1385, 1486}";
}
);
layerId = "C9B9556E-C2FD-4F62-BB40-44923C452C22";
paths = (
{
closed = 1;
nodes = (
"1059 -22 OFFCURVE",
"1346 259 OFFCURVE",
"1346 765 CURVE SMOOTH",
"1346 1214 OFFCURVE",
"1129 1502 OFFCURVE",
"725 1502 CURVE SMOOTH",
"353 1502 OFFCURVE",
"64 1232 OFFCURVE",
"64 724 CURVE SMOOTH",
"64 285 OFFCURVE",
"285 -22 OFFCURVE",
"691 -22 CURVE SMOOTH"
);
},
{
closed = 1;
nodes = (
"1017 1452 OFFCURVE",
"1176 1159 OFFCURVE",
"1176 765 CURVE SMOOTH",
"1176 273 OFFCURVE",
"988 28 OFFCURVE",
"701 28 CURVE SMOOTH",
"391 28 OFFCURVE",
"234 287 OFFCURVE",
"234 724 CURVE SMOOTH",
"234 1215 OFFCURVE",
"420 1452 OFFCURVE",
"707 1452 CURVE SMOOTH"
);
}
);
width = 1410;
}
);
leftKerningGroup = O;
rightKerningGroup = O;
unicode = 004F;
},
{
color = 0;
glyphname = Ohorn;
lastChange = "2019-07-26 15:57:21 +0000";
layers = (
{
anchors = (
{
name = _topright;
position = "{1140, 1486}";
},
{
name = bottom;
position = "{732, 0}";
},
{
name = center;
position = "{732, 744}";
},
{
name = mark0;
position = "{725, -166}";
},
{
name = ogonek;
position = "{1315, 20}";
},
{
name = top;
position = "{748, 1486}";
},
{
name = topleft;
position = "{40, 1486}";
},
{
name = topright;
position = "{1140, 1486}";
}
);
components = (
{
name = O;
}
);
layerId = "184155C8-9F61-4F1C-9784-DDA8EA717636";
paths = (
{
closed = 1;
nodes = (
"1346 1299 OFFCURVE",
"1485 1420 OFFCURVE",
"1485 1687 CURVE SMOOTH",
"1485 1701 OFFCURVE",
"1483 1717 OFFCURVE",
"1480 1730 CURVE",
"1270 1730 LINE",
"1274 1718 OFFCURVE",
"1277 1703 OFFCURVE",
"1277 1678 CURVE SMOOTH",
"1277 1593 OFFCURVE",
"1251 1423 OFFCURVE",
"1061 1423 CURVE",
"1126 1299 LINE"
);
}
);
width = 1462;
},
{
anchors = (
{
name = _topright;
position = "{1072, 1486}";
},
{
name = bottom;
position = "{720, 0}";
},
{
name = center;
position = "{720, 744}";
},
{
name = mark0;
position = "{710, -166}";
},
{
name = ogonek;
position = "{1294, 20}";
},
{
name = top;
position = "{742, 1486}";
},
{
name = topleft;
position = "{40, 1486}";
},
{
name = topright;
position = "{1072, 1486}";
}
);
components = (
{
name = O;
}
);
layerId = "C9B9556E-C2FD-4F62-BB40-44923C452C22";
paths = (
{
closed = 1;
nodes = (
"1280 1302 OFFCURVE",
"1404 1478 OFFCURVE",
"1404 1686 CURVE SMOOTH",
"1404 1700 OFFCURVE",
"1402 1714 OFFCURVE",
"1400 1730 CURVE",
"1250 1730 LINE",
"1252 1722 OFFCURVE",
"1252 1710 OFFCURVE",
"1252 1696 CURVE SMOOTH",
"1252 1596 OFFCURVE",
"1194 1408 OFFCURVE",
"1002 1408 CURVE",
"1036 1302 LINE"
);
}
);
width = 1438;
}
);
leftKerningGroup = O;
rightKerningGroup = O;
unicode = 01A0;
},
{
color = 0;
glyphname = Oslash;
lastChange = "2019-07-26 15:57:21 +0000";
layers = (
{
anchors = (
{
name = top;
position = "{739, 1486}";
}
);
components = (
{
name = O;
}
);
layerId = "184155C8-9F61-4F1C-9784-DDA8EA717636";
paths = (
{
closed = 1;
nodes = (
"318 -172 LINE",
"394 -198 LINE",
"1112 1638 LINE",
"1036 1666 LINE"
);
}
);
width = 1462;
},
{
anchors = (
{
name = top;
position = "{742, 1486}";
}
);
layerId = "C9B9556E-C2FD-4F62-BB40-44923C452C22";
paths = (
{
closed = 1;
nodes = (
"318 -172 LINE",
"394 -198 LINE",
"482 10 LINE",
"550 -12 OFFCURVE",
"624 -24 OFFCURVE",
"706 -22 CURVE SMOOTH",
"1076 -16 OFFCURVE",
"1366 286 OFFCURVE",
"1366 756 CURVE SMOOTH",
"1366 1082 OFFCURVE",
"1250 1328 OFFCURVE",
"1030 1438 CURVE",
"1112 1638 LINE",
"1036 1666 LINE",
"958 1468 LINE",
"892 1490 OFFCURVE",
"820 1502 OFFCURVE",
"740 1502 CURVE SMOOTH",
"370 1502 OFFCURVE",
"74 1204 OFFCURVE",
"74 732 CURVE SMOOTH",
"74 408 OFFCURVE",
"192 156 OFFCURVE",
"410 42 CURVE"
);
},
{
closed = 1;
nodes = (
"794 1408 OFFCURVE",
"858 1392 OFFCURVE",
"912 1364 CURVE",
"462 164 LINE",
"328 274 OFFCURVE",
"256 480 OFFCURVE",
"256 732 CURVE SMOOTH",
"256 1186 OFFCURVE",
"446 1408 OFFCURVE",
"724 1408 CURVE SMOOTH"
);
},
{
closed = 1;
nodes = (
"1182 302 OFFCURVE",
"992 72 OFFCURVE",
"718 72 CURVE SMOOTH",
"646 72 OFFCURVE",
"584 88 OFFCURVE",
"528 118 CURVE",
"980 1318 LINE",
"1110 1208 OFFCURVE",
"1182 1006 OFFCURVE",
"1182 756 CURVE SMOOTH"
);
}
);
width = 1440;
}
);
leftKerningGroup = O;
rightKerningGroup = O;
unicode = 00D8;
},
{
color = 0;
glyphname = OE;
lastChange = "2019-07-26 15:57:21 +0000";
layers = (
{
layerId = "184155C8-9F61-4F1C-9784-DDA8EA717636";
paths = (
{
closed = 1;
nodes = (
"978 0 LINE",
"1984 0 LINE",
"2062 402 LINE",
"1890 428 LINE",
"1739 121 LINE",
"1332 59 LINE",
"1332 735 LINE",
"1552 729 LINE",
"1644 461 LINE",
"1682 461 LINE",
"1682 1043 LINE",
"1644 1043 LINE",
"1552 795 LINE",
"1332 788 LINE",
"1332 1427 LINE",
"1707 1388 LINE",
"1838 1113 LINE",
"1975 1113 LINE",
"1947 1486 LINE",
"978 1486 LINE",
"978 1471 LINE",
"914 1497 OFFCURVE",
"803 1505 OFFCURVE",
"726 1505 CURVE SMOOTH",
"276 1505 OFFCURVE",
"40 1167 OFFCURVE",
"40 714 CURVE SMOOTH",
"40 264 OFFCURVE",
"258 -23 OFFCURVE",
"701 -23 CURVE",
"786 -22 OFFCURVE",
"907 4 OFFCURVE",
"978 43 CURVE"
);
},
{
closed = 1;
nodes = (
"537 34 OFFCURVE",
"458 291 OFFCURVE",
"458 714 CURVE SMOOTH",
"458 1214 OFFCURVE",
"552 1446 OFFCURVE",
"715 1446 CURVE SMOOTH",
"878 1446 OFFCURVE",
"960 1198 OFFCURVE",
"960 777 CURVE",
"960 694 LINE",
"960 298 OFFCURVE",
"866 34 OFFCURVE",
"713 34 CURVE SMOOTH"
);
}
);
width = 2072;
},
{
layerId = "C9B9556E-C2FD-4F62-BB40-44923C452C22";
paths = (
{
closed = 1;
nodes = (
"956 0 LINE",
"1838 0 LINE",
"1900 337 LINE",
"1854 352 LINE",
"1734 67 LINE",
"1073 50 LINE",
"1073 733 LINE",
"1505 722 LINE",
"1539 542 LINE",
"1594 542 LINE",
"1594 984 LINE",
"1539 984 LINE",
"1505 807 LINE",
"1073 794 LINE",
"1073 1433 LINE",
"1651 1422 LINE",
"1740 1192 LINE",
"1786 1192 LINE",
"1758 1486 LINE",
"956 1486 LINE",
"956 1449 LINE",
"878 1483 OFFCURVE",
"784 1502 OFFCURVE",
"684 1502 CURVE SMOOTH",
"312 1502 OFFCURVE",
"20 1232 OFFCURVE",
"20 734 CURVE SMOOTH",
"20 286 OFFCURVE",
"244 -22 OFFCURVE",
"650 -22 CURVE",
"758 -18 OFFCURVE",
"866 14 OFFCURVE",
"956 64 CURVE"
);
},
{
closed = 1;
nodes = (
"351 28 OFFCURVE",
"147 287 OFFCURVE",
"147 724 CURVE SMOOTH",
"147 1215 OFFCURVE",
"380 1452 OFFCURVE",
"666 1452 CURVE SMOOTH",
"798 1452 OFFCURVE",
"894 1396 OFFCURVE",
"956 1347 CURVE",
"956 136 LINE",
"886 74 OFFCURVE",
"780 28 OFFCURVE",
"660 28 CURVE SMOOTH"
);
}
);
width = 1933;
}
);
leftKerningGroup = O;
leftMetricsKey = O;
rightKerningGroup = E;
rightMetricsKey = E;
unicode = 0152;
},
{
color = 11;
glyphname = P;
lastChange = "2019-07-26 15:57:21 +0000";
layers = (
{
anchors = (
{
name = bottom;
position = "{345, 0}";
},
{
name = mark0;
position = "{667, -166}";
},
{
name = top;
position = "{701, 1486}";
}
);
layerId = "184155C8-9F61-4F1C-9784-DDA8EA717636";
paths = (
{
closed = 1;
nodes = (
"18 37 LINE",
"18 0 LINE",
"702 0 LINE",
"702 38 LINE",
"530 72 LINE",
"531 516 LINE",
"548 514 OFFCURVE",
"613 509 OFFCURVE",
"670 509 CURVE SMOOTH",
"1047 509 OFFCURVE",
"1272 675 OFFCURVE",
"1272 1024 CURVE SMOOTH",
"1272 1328 OFFCURVE",
"1103 1500 OFFCURVE",
"704 1497 CURVE SMOOTH",
"550 1496 OFFCURVE",
"441 1486 OFFCURVE",
"350 1486 CURVE SMOOTH",
"19 1486 LINE",
"19 1450 LINE",
"152 1412 LINE",
"152 73 LINE"
);
},
{
closed = 1;
nodes = (
"530 1430 LINE",
"561 1435 OFFCURVE",
"587 1442 OFFCURVE",
"640 1442 CURVE SMOOTH",
"810 1442 OFFCURVE",
"867 1241 OFFCURVE",
"867 1017 CURVE SMOOTH",
"867 711 OFFCURVE",
"757 576 OFFCURVE",
"632 576 CURVE SMOOTH",
"590 576 OFFCURVE",
"553 579 OFFCURVE",
"530 585 CURVE"
);
}
);
width = 1325;
},
{
anchors = (
{
name = bottom;
position = "{236, 0}";
},
{
name = mark0;
position = "{233, -166}";
},
{
name = top;
position = "{557, 1486}";
}
);
layerId = "C9B9556E-C2FD-4F62-BB40-44923C452C22";
paths = (
{
closed = 1;
nodes = (
"24 36 LINE",
"24 0 LINE",
"522 0 LINE",
"522 36 LINE",
"321 68 LINE",
"321 661 LINE",
"359 654 OFFCURVE",
"489 646 OFFCURVE",
"527 646 CURVE SMOOTH",
"893 646 OFFCURVE",
"1052 845 OFFCURVE",
"1052 1108 CURVE SMOOTH",
"1052 1329 OFFCURVE",
"931 1502 OFFCURVE",
"555 1502 CURVE SMOOTH",
"452 1502 OFFCURVE",
"366 1486 OFFCURVE",
"247 1486 CURVE SMOOTH",
"25 1486 LINE",
"25 1450 LINE",
"164 1420 LINE",
"164 68 LINE"
);
},
{
closed = 1;
nodes = (
"321 1433 LINE",
"362 1433 OFFCURVE",
"480 1452 OFFCURVE",
"545 1452 CURVE SMOOTH",
"839 1452 OFFCURVE",
"886 1312 OFFCURVE",
"886 1108 CURVE SMOOTH",
"886 863 OFFCURVE",
"799 694 OFFCURVE",
"520 694 CURVE SMOOTH",
"460 694 OFFCURVE",
"372 707 OFFCURVE",
"321 721 CURVE"
);
}
);
width = 1110;
}
);
leftKerningGroup = H;
leftMetricsKey = H;
rightKerningGroup = P;
unicode = 0050;
},
{
color = 0;
glyphname = Thorn;
lastChange = "2019-07-26 15:57:21 +0000";
layers = (
{
layerId = "184155C8-9F61-4F1C-9784-DDA8EA717636";
paths = (
{
closed = 1;
nodes = (
"18 37 LINE",
"18 0 LINE",
"680 0 LINE",
"680 38 LINE",
"530 71 LINE",
"530 351 LINE",
"556 347 OFFCURVE",
"595 343 OFFCURVE",
"739 343 CURVE SMOOTH",
"1101 343 OFFCURVE",
"1273 520 OFFCURVE",
"1273 768 CURVE SMOOTH",
"1273 1037 OFFCURVE",
"1107 1154 OFFCURVE",
"779 1154 CURVE SMOOTH",
"743 1154 OFFCURVE",
"566 1141 OFFCURVE",
"530 1137 CURVE",
"530 1412 LINE",
"680 1450 LINE",
"680 1487 LINE",
"19 1487 LINE",
"19 1450 LINE",
"152 1412 LINE",
"152 73 LINE"
);
},
{
closed = 1;
nodes = (
"595 401 OFFCURVE",
"539 404 OFFCURVE",
"530 415 CURVE",
"530 1077 LINE",
"561 1082 OFFCURVE",
"587 1089 OFFCURVE",
"641 1089 CURVE SMOOTH",
"810 1089 OFFCURVE",
"869 954 OFFCURVE",
"869 756 CURVE SMOOTH",
"869 555 OFFCURVE",
"785 401 OFFCURVE",
"643 401 CURVE SMOOTH"
);
}
);
width = 1339;
},
{
layerId = "C9B9556E-C2FD-4F62-BB40-44923C452C22";
paths = (
{
closed = 1;
nodes = (
"100 84 LINE",
"100 0 LINE",
"650 0 LINE",
"650 84 LINE",
"432 104 LINE",
"432 350 LINE",
"496 344 OFFCURVE",
"570 342 OFFCURVE",
"684 342 CURVE SMOOTH",
"1006 342 OFFCURVE",
"1208 480 OFFCURVE",
"1208 780 CURVE SMOOTH",
"1208 1042 OFFCURVE",
"1036 1172 OFFCURVE",
"750 1172 CURVE SMOOTH",
"640 1172 OFFCURVE",
"532 1160 OFFCURVE",
"432 1152 CURVE",
"432 1380 LINE",
"612 1402 LINE",
"612 1488 LINE",
"104 1488 LINE",
"104 1402 LINE",
"270 1380 LINE",
"270 104 LINE"
);
},
{
closed = 1;
nodes = (
"604 432 OFFCURVE",
"518 430 OFFCURVE",
"432 440 CURVE",
"432 1056 LINE",
"492 1064 OFFCURVE",
"576 1074 OFFCURVE",
"666 1076 CURVE SMOOTH",
"920 1082 OFFCURVE",
"1026 968 OFFCURVE",
"1026 770 CURVE SMOOTH",
"1026 518 OFFCURVE",
"876 432 OFFCURVE",
"678 432 CURVE SMOOTH"
);
}
);
width = 1270;
}
);
leftKerningGroup = H;
rightKerningGroup = D;
unicode = 00DE;
},
{
color = 9;
glyphname = Q;
lastChange = "2019-07-26 15:57:21 +0000";
layers = (
{
components = (
{
name = O;
}
);
layerId = "184155C8-9F61-4F1C-9784-DDA8EA717636";
paths = (
{
closed = 1;
nodes = (
"1582 -399 OFFCURVE",
"1657 -348 OFFCURVE",
"1718 -264 CURVE",
"1686 -151 LINE",
"1667 -157 OFFCURVE",
"1620 -172 OFFCURVE",
"1561 -172 CURVE SMOOTH",
"1334 -172 OFFCURVE",
"1183 30 OFFCURVE",
"938 30 CURVE",
"848 3 LINE",
"1075 -77 OFFCURVE",
"1205 -399 OFFCURVE",
"1465 -399 CURVE SMOOTH"
);
}
);
width = 1418;
},
{
components = (
{
name = O;
}
);
layerId = "C9B9556E-C2FD-4F62-BB40-44923C452C22";
paths = (
{
closed = 1;
nodes = (
"1460 -364 OFFCURVE",
"1528 -344 OFFCURVE",
"1572 -304 CURVE",
"1553 -257 LINE",
"1539 -257 OFFCURVE",
"1529 -259 OFFCURVE",
"1507 -259 CURVE",
"1267 -259 OFFCURVE",
"1127 -13 OFFCURVE",
"835 7 CURVE",
"780 -6 LINE",
"1038 -50 OFFCURVE",
"1124 -364 OFFCURVE",
"1408 -364 CURVE SMOOTH"
);
}
);
width = 1410;
}
);
leftKerningGroup = O;
leftMetricsKey = O;
widthMetricsKey = O;
rightKerningGroup = Q;
unicode = 0051;
},
{
color = 9;
glyphname = R;
lastChange = "2019-07-26 15:57:21 +0000";
layers = (
{
anchors = (
{
name = bottom;
position = "{765, 0}";
},
{
name = mark0;
position = "{706, -166}";
},
{
name = top;
position = "{681, 1486}";
}
);
layerId = "184155C8-9F61-4F1C-9784-DDA8EA717636";
paths = (
{
closed = 1;
nodes = (
"668 0 LINE",
"668 38 LINE",
"523 72 LINE",
"523 632 LINE",
"568 632 OFFCURVE",
"623 632 OFFCURVE",
"675 632 CURVE",
"826 577 OFFCURVE",
"884 0 OFFCURVE",
"983 0 CURVE SMOOTH",
"1405 0 LINE",
"1405 38 LINE",
"1357 57 LINE",
"1285 87 OFFCURVE",
"1220 619 OFFCURVE",
"938 687 CURVE",
"1137 748 OFFCURVE",
"1232 938 OFFCURVE",
"1232 1101 CURVE SMOOTH",
"1232 1367 OFFCURVE",
"1080 1499 OFFCURVE",
"648 1499 CURVE SMOOTH",
"509 1499 OFFCURVE",
"452 1486 OFFCURVE",
"326 1486 CURVE SMOOTH",
"19 1486 LINE",
"19 1450 LINE",
"152 1412 LINE",
"152 73 LINE",
"18 37 LINE",
"18 0 LINE"
);
},
{
closed = 1;
nodes = (
"621 694 OFFCURVE",
"552 692 OFFCURVE",
"523 699 CURVE",
"523 1430 LINE",
"550 1434 OFFCURVE",
"548 1442 OFFCURVE",
"609 1442 CURVE SMOOTH",
"783 1442 OFFCURVE",
"848 1296 OFFCURVE",
"848 1089 CURVE SMOOTH",
"848 864 OFFCURVE",
"781 694 OFFCURVE",
"650 694 CURVE SMOOTH"
);
}
);
width = 1395;
},
{
anchors = (
{
name = bottom;
position = "{678, 0}";
},
{
name = mark0;
position = "{666, -166}";
},
{
name = top;
position = "{618, 1486}";
}
);
layerId = "C9B9556E-C2FD-4F62-BB40-44923C452C22";
paths = (
{
closed = 1;
nodes = (
"533 0 LINE",
"533 36 LINE",
"328 68 LINE",
"328 714 LINE",
"366 712 OFFCURVE",
"517 711 OFFCURVE",
"579 711 CURVE",
"743 714 OFFCURVE",
"917 0 OFFCURVE",
"999 0 CURVE SMOOTH",
"1218 0 LINE",
"1218 36 LINE",
"1130 78 LINE",
"1048 124 OFFCURVE",
"881 698 OFFCURVE",
"715 726 CURVE",
"920 771 OFFCURVE",
"1051 945 OFFCURVE",
"1051 1115 CURVE SMOOTH",
"1051 1339 OFFCURVE",
"935 1502 OFFCURVE",
"548 1502 CURVE SMOOTH",
"425 1502 OFFCURVE",
"310 1486 OFFCURVE",
"228 1486 CURVE SMOOTH",
"25 1486 LINE",
"25 1450 LINE",
"174 1420 LINE",
"174 68 LINE",
"24 36 LINE",
"24 0 LINE"
);
},
{
closed = 1;
nodes = (
"472 761 OFFCURVE",
"394 768 OFFCURVE",
"328 778 CURVE",
"328 1431 LINE",
"350 1434 OFFCURVE",
"413 1452 OFFCURVE",
"540 1452 CURVE SMOOTH",
"794 1452 OFFCURVE",
"881 1339 OFFCURVE",
"881 1109 CURVE SMOOTH",
"881 891 OFFCURVE",
"779 761 OFFCURVE",
"520 761 CURVE SMOOTH"
);
}
);
width = 1200;
}
);
leftKerningGroup = H;
leftMetricsKey = H;
rightKerningGroup = R;
unicode = 0052;
},
{
color = 9;
glyphname = S;
lastChange = "2019-07-26 15:57:21 +0000";
layers = (
{
anchors = (
{
name = bottom;
position = "{604, 0}";
},
{
name = top;
position = "{664, 1486}";
}
);
layerId = "184155C8-9F61-4F1C-9784-DDA8EA717636";
paths = (
{
closed = 1;
nodes = (
"1082 -22 OFFCURVE",
"1147 243 OFFCURVE",
"1147 439 CURVE SMOOTH",
"1147 683 OFFCURVE",
"915 804 OFFCURVE",
"755 888 CURVE SMOOTH",
"581 979 OFFCURVE",
"405 1058 OFFCURVE",
"405 1206 CURVE SMOOTH",
"405 1351 OFFCURVE",
"472 1444 OFFCURVE",
"635 1446 CURVE SMOOTH",
"724 1447 OFFCURVE",
"793 1410 OFFCURVE",
"809 1380 CURVE",
"854 1078 LINE",
"1036 1078 LINE",
"1080 1434 LINE",
"1022 1439 OFFCURVE",
"851 1505 OFFCURVE",
"620 1505 CURVE SMOOTH",
"217 1505 OFFCURVE",
"75 1299 OFFCURVE",
"75 1085 CURVE SMOOTH",
"75 808 OFFCURVE",
"299 678 OFFCURVE",
"452 607 CURVE SMOOTH",
"657 512 OFFCURVE",
"809 406 OFFCURVE",
"809 274 CURVE SMOOTH",
"809 149 OFFCURVE",
"737 33 OFFCURVE",
"544 35 CURVE SMOOTH",
"433 36 OFFCURVE",
"353 89 OFFCURVE",
"326 133 CURVE",
"277 439 LINE",
"89 439 LINE",
"44 66 LINE",
"110 61 OFFCURVE",
"321 -22 OFFCURVE",
"561 -22 CURVE SMOOTH"
);
}
);
width = 1199;
},
{
anchors = (
{
name = bottom;
position = "{474, 0}";
},
{
name = top;
position = "{534, 1486}";
}
);
layerId = "C9B9556E-C2FD-4F62-BB40-44923C452C22";
paths = (
{
closed = 1;
nodes = (
"796 -22 OFFCURVE",
"926 202 OFFCURVE",
"926 378 CURVE SMOOTH",
"926 628 OFFCURVE",
"725 740 OFFCURVE",
"528 832 CURVE SMOOTH",
"318 930 OFFCURVE",
"197 1010 OFFCURVE",
"197 1182 CURVE SMOOTH",
"197 1344 OFFCURVE",
"318 1448 OFFCURVE",
"494 1448 CURVE SMOOTH",
"608 1448 OFFCURVE",
"675 1400 OFFCURVE",
"703 1376 CURVE",
"754 1146 LINE",
"835 1146 LINE",
"847 1430 LINE",
"807 1430 OFFCURVE",
"709 1502 OFFCURVE",
"508 1502 CURVE SMOOTH",
"250 1502 OFFCURVE",
"76 1333 OFFCURVE",
"76 1139 CURVE SMOOTH",
"76 871 OFFCURVE",
"298 769 OFFCURVE",
"464 697 CURVE SMOOTH",
"665 610 OFFCURVE",
"799 502 OFFCURVE",
"799 346 CURVE SMOOTH",
"799 176 OFFCURVE",
"692 32 OFFCURVE",
"464 32 CURVE SMOOTH",
"348 32 OFFCURVE",
"280 76 OFFCURVE",
"195 130 CURVE",
"145 378 LINE",
"58 378 LINE",
"42 70 LINE",
"104 64 OFFCURVE",
"232 -22 OFFCURVE",
"458 -22 CURVE SMOOTH"
);
}
);
width = 981;
}
);
leftKerningGroup = S;
rightKerningGroup = S;
unicode = 0053;
},
{
color = 4;
glyphname = Germandbls;
lastChange = "2019-07-26 15:57:21 +0000";
layers = (
{
layerId = "184155C8-9F61-4F1C-9784-DDA8EA717636";
paths = (
{
closed = 1;
nodes = (
"-10 0 LINE",
"502 0 LINE",
"502 827 LINE SMOOTH",
"502 1135 OFFCURVE",
"615 1450 OFFCURVE",
"887 1450 CURVE SMOOTH",
"972 1450 OFFCURVE",
"1036 1418 OFFCURVE",
"1067 1363 CURVE",
"757 890 LINE",
"757 819 LINE",
"1073 801 OFFCURVE",
"1149 606 OFFCURVE",
"1149 437 CURVE SMOOTH",
"1149 128 OFFCURVE",
"1068 48 OFFCURVE",
"993 48 CURVE SMOOTH",
"936 48 OFFCURVE",
"873 71 OFFCURVE",
"857 152 CURVE",
"836 340 LINE",
"669 340 LINE",
"647 31 LINE",
"764 31 OFFCURVE",
"781 -12 OFFCURVE",
"984 -12 CURVE SMOOTH",
"1379 -12 OFFCURVE",
"1514 181 OFFCURVE",
"1514 436 CURVE SMOOTH",
"1514 701 OFFCURVE",
"1324 825 OFFCURVE",
"1064 855 CURVE",
"1364 1259 LINE",
"1365 1413 LINE",
"1268 1413 OFFCURVE",
"1139 1500 OFFCURVE",
"889 1500 CURVE SMOOTH",
"332 1500 OFFCURVE",
"126 1160 OFFCURVE",
"125 777 CURVE SMOOTH",
"123 74 LINE",
"-10 35 LINE"
);
}
);
width = 1519;
},
{
layerId = "C9B9556E-C2FD-4F62-BB40-44923C452C22";
paths = (
{
closed = 1;
nodes = (
"20 0 LINE",
"311 0 LINE",
"310 910 LINE SMOOTH",
"310 1274 OFFCURVE",
"460 1444 OFFCURVE",
"708 1444 CURVE SMOOTH",
"849 1444 OFFCURVE",
"947 1385 OFFCURVE",
"990 1345 CURVE",
"625 822 LINE",
"625 782 LINE",
"930 774 OFFCURVE",
"1095 641 OFFCURVE",
"1095 378 CURVE SMOOTH",
"1095 143 OFFCURVE",
"952 32 OFFCURVE",
"808 32 CURVE SMOOTH",
"707 32 OFFCURVE",
"625 98 OFFCURVE",
"591 142 CURVE",
"555 312 LINE",
"467 312 LINE",
"455 60 LINE",
"542 60 OFFCURVE",
"619 -21 OFFCURVE",
"810 -21 CURVE SMOOTH",
"1083 -21 OFFCURVE",
"1243 160 OFFCURVE",
"1243 414 CURVE SMOOTH",
"1243 733 OFFCURVE",
"965 802 OFFCURVE",
"801 835 CURVE",
"1143 1304 LINE",
"1143 1351 LINE",
"1073 1392 OFFCURVE",
"979 1494 OFFCURVE",
"716 1494 CURVE SMOOTH",
"432 1494 OFFCURVE",
"152 1276 OFFCURVE",
"152 874 CURVE SMOOTH",
"151 67 LINE",
"20 36 LINE"
);
}
);
width = 1282;
}
);
leftKerningGroup = S;
rightKerningGroup = S;
unicode = 1E9E;
},
{
color = 9;
glyphname = Schwa;
lastChange = "2019-07-26 15:57:21 +0000";
layers = (
{
layerId = "184155C8-9F61-4F1C-9784-DDA8EA717636";
paths = (
{
closed = 1;
nodes = (
"1150 -22 OFFCURVE",
"1389 290 OFFCURVE",
"1389 802 CURVE SMOOTH",
"1389 1223 OFFCURVE",
"1164 1507 OFFCURVE",
"734 1507 CURVE SMOOTH",
"384 1507 OFFCURVE",
"302 1436 OFFCURVE",
"113 1436 CURVE",
"158 1032 LINE",
"400 1032 LINE",
"451 1315 LINE",
"461 1385 OFFCURVE",
"515 1447 OFFCURVE",
"698 1447 CURVE SMOOTH",
"878 1447 OFFCURVE",
"967 1232 OFFCURVE",
"967 797 CURVE",
"59 799 LINE",
"48 748 OFFCURVE",
"45 614 OFFCURVE",
"45 614 CURVE SMOOTH",
"45 316 OFFCURVE",
"187 -22 OFFCURVE",
"698 -22 CURVE SMOOTH"
);
},
{
closed = 1;
nodes = (
"537 34 OFFCURVE",
"454 288 OFFCURVE",
"454 512 CURVE SMOOTH",
"454 553 OFFCURVE",
"455 696 OFFCURVE",
"458 732 CURVE",
"968 732 LINE",
"968 357 OFFCURVE",
"919 34 OFFCURVE",
"694 34 CURVE SMOOTH"
);
}
);
width = 1429;
},
{
layerId = "C9B9556E-C2FD-4F62-BB40-44923C452C22";
paths = (
{
closed = 1;
nodes = (
"970 -22 OFFCURVE",
"1267 257 OFFCURVE",
"1267 751 CURVE SMOOTH",
"1267 1223 OFFCURVE",
"1027 1501 OFFCURVE",
"629 1502 CURVE SMOOTH",
"360 1503 OFFCURVE",
"228 1430 OFFCURVE",
"116 1424 CURVE",
"127 1146 LINE",
"208 1146 LINE",
"254 1340 LINE",
"312 1416 OFFCURVE",
"506 1451 OFFCURVE",
"631 1451 CURVE SMOOTH",
"945 1451 OFFCURVE",
"1096 1154 OFFCURVE",
"1096 766 CURVE",
"11 766 LINE",
"1 720 OFFCURVE",
"-7 658 OFFCURVE",
"-7 576 CURVE SMOOTH",
"-7 200 OFFCURVE",
"236 -22 OFFCURVE",
"606 -22 CURVE SMOOTH"
);
},
{
closed = 1;
nodes = (
"288 28 OFFCURVE",
"167 334 OFFCURVE",
"167 554 CURVE SMOOTH",
"167 592 OFFCURVE",
"175 664 OFFCURVE",
"181 700 CURVE",
"1094 700 LINE",
"1094 275 OFFCURVE",
"902 28 OFFCURVE",
"618 28 CURVE SMOOTH"
);
}
);
width = 1331;
}
);
leftKerningGroup = O;
rightKerningGroup = O;
rightMetricsKey = O;
unicode = 018F;
},
{
color = 8;
glyphname = T;
lastChange = "2019-07-26 15:57:21 +0000";
layers = (
{
anchors = (
{
name = bottom;
position = "{719, 0}";
},
{
name = center;
position = "{719, 744}";
},
{
name = top;
position = "{719, 1486}";
}
);
layerId = "184155C8-9F61-4F1C-9784-DDA8EA717636";
paths = (
{
closed = 1;
nodes = (
"303 38 LINE",
"303 0 LINE",
"1123 0 LINE",
"1123 38 LINE",
"904 83 LINE",
"904 1434 LINE",
"1085 1416 LINE",
"1229 924 LINE",
"1391 924 LINE",
"1359 1486 LINE",
"67 1486 LINE",
"35 924 LINE",
"195 924 LINE",
"342 1416 LINE",
"522 1434 LINE",
"522 83 LINE"
);
}
);
width = 1426;
},
{
anchors = (
{
name = bottom;
position = "{667, 0}";
},
{
name = center;
position = "{667, 744}";
},
{
name = top;
position = "{667, 1486}";
}
);
layerId = "C9B9556E-C2FD-4F62-BB40-44923C452C22";
paths = (
{
closed = 1;
nodes = (
"355 36 LINE",
"355 0 LINE",
"1015 0 LINE",
"1015 36 LINE",
"746 68 LINE",
"746 1429 LINE",
"1105 1407 LINE",
"1214 978 LINE",
"1292 978 LINE",
"1248 1486 LINE",
"89 1486 LINE",
"44 978 LINE",
"122 978 LINE",
"232 1407 LINE",
"590 1429 LINE",
"590 68 LINE"
);
}
);
width = 1336;
}
);
leftKerningGroup = T;
rightKerningGroup = T;
unicode = 0054;
},
{
color = 7;
glyphname = Tbar;
lastChange = "2019-07-26 15:57:21 +0000";
layers = (
{
components = (
{
name = T;
}
);
layerId = "184155C8-9F61-4F1C-9784-DDA8EA717636";
paths = (
{
closed = 1;
nodes = (
"348 715 LINE",
"348 563 LINE",
"1120 563 LINE",
"1120 715 LINE"
);
}
);
width = 1426;
},
{
components = (
{
name = T;
}
);
layerId = "C9B9556E-C2FD-4F62-BB40-44923C452C22";
paths = (
{
closed = 1;
nodes = (
"348 746 LINE",
"348 638 LINE",
"1022 638 LINE",
"1022 746 LINE"
);
}
);
width = 1362;
}
);
leftKerningGroup = T;
leftMetricsKey = T;
widthMetricsKey = T;
rightKerningGroup = T;
unicode = 0166;
},
{
color = 9;
glyphname = U;
lastChange = "2019-07-26 15:57:21 +0000";
layers = (
{
anchors = (
{
name = bottom;
position = "{755, 0}";
},
{
name = mark0;
position = "{755, -166}";
},
{
name = ogonek;
position = "{1340, 20}";
},
{
name = top;
position = "{823, 1486}";
},
{
name = topright;
position = "{1449, 1486}";
}
);
layerId = "184155C8-9F61-4F1C-9784-DDA8EA717636";
paths = (
{
closed = 1;
nodes = (
"983 -16 OFFCURVE",
"1211 123 OFFCURVE",
"1211 554 CURVE SMOOTH",
"1211 1412 LINE",
"1342 1450 LINE",
"1342 1486 LINE",
"995 1486 LINE",
"995 1450 LINE",
"1141 1412 LINE",
"1141 554 LINE SMOOTH",
"1141 205 OFFCURVE",
"978 35 OFFCURVE",
"787 35 CURVE SMOOTH",
"633 35 OFFCURVE",
"534 145 OFFCURVE",
"534 438 CURVE SMOOTH",
"534 1412 LINE",
"678 1450 LINE",
"678 1486 LINE",
"20 1486 LINE",
"20 1450 LINE",
"153 1412 LINE",
"153 521 LINE SMOOTH",
"153 136 OFFCURVE",
"362 -16 OFFCURVE",
"777 -16 CURVE SMOOTH"
);
}
);
width = 1362;
},
{
anchors = (
{
name = bottom;
position = "{704, 0}";
},
{
name = mark0;
position = "{736, -166}";
},
{
name = ogonek;
position = "{1294, 20}";
},
{
name = top;
position = "{736, 1486}";
},
{
name = topright;
position = "{1402, 1486}";
}
);
layerId = "C9B9556E-C2FD-4F62-BB40-44923C452C22";
paths = (
{
closed = 1;
nodes = (
"1017 -20 OFFCURVE",
"1171 175 OFFCURVE",
"1176 610 CURVE SMOOTH",
"1186 1421 LINE",
"1309 1450 LINE",
"1309 1486 LINE",
"948 1486 LINE",
"948 1450 LINE",
"1099 1419 LINE",
"1104 602 LINE SMOOTH",
"1106 218 OFFCURVE",
"955 32 OFFCURVE",
"716 32 CURVE SMOOTH",
"482 32 OFFCURVE",
"331 125 OFFCURVE",
"331 568 CURVE SMOOTH",
"331 1421 LINE",
"503 1450 LINE",
"503 1486 LINE",
"20 1486 LINE",
"20 1450 LINE",
"170 1421 LINE",
"170 577 LINE SMOOTH",
"170 134 OFFCURVE",
"358 -20 OFFCURVE",
"724 -20 CURVE SMOOTH"
);
}
);
width = 1329;
}
);
leftKerningGroup = U;
rightKerningGroup = U;
unicode = 0055;
},
{
color = 0;
glyphname = Uhorn;
lastChange = "2019-07-26 15:57:21 +0000";
layers = (
{
anchors = (
{
name = bottom;
position = "{774, 0}";
},
{
name = mark0;
position = "{745, -166}";
},
{
name = ogonek;
position = "{1340, 20}";
},
{
name = top;
position = "{791, 1486}";
}
);
components = (
{
name = U;
}
);
layerId = "184155C8-9F61-4F1C-9784-DDA8EA717636";
paths = (
{
closed = 1;
nodes = (
"1211 1412 LINE",
"1419 1412 OFFCURVE",
"1545 1470 OFFCURVE",
"1544 1687 CURVE",
"1544 1701 OFFCURVE",
"1542 1717 OFFCURVE",
"1539 1730 CURVE",
"1347 1730 LINE",
"1350 1718 OFFCURVE",
"1353 1703 OFFCURVE",
"1353 1678 CURVE SMOOTH",
"1353 1593 OFFCURVE",
"1342 1486 OFFCURVE",
"1200 1486 CURVE"
);
}
);
width = 1489;
},
{
anchors = (
{
name = bottom;
position = "{774, 0}";
},
{
name = mark0;
position = "{745, -166}";
},
{
name = ogonek;
position = "{1340, 20}";
},
{
name = top;
position = "{791, 1486}";
}
);
components = (
{
name = U;
}
);
layerId = "C9B9556E-C2FD-4F62-BB40-44923C452C22";
paths = (
{
closed = 1;
nodes = (
"1211 1412 LINE",
"1419 1412 OFFCURVE",
"1545 1470 OFFCURVE",
"1544 1687 CURVE",
"1544 1701 OFFCURVE",
"1542 1717 OFFCURVE",
"1539 1730 CURVE",
"1347 1730 LINE",
"1350 1718 OFFCURVE",
"1353 1703 OFFCURVE",
"1353 1678 CURVE SMOOTH",
"1353 1593 OFFCURVE",
"1342 1486 OFFCURVE",
"1200 1486 CURVE"
);
}
);
width = 1476;
}
);
leftKerningGroup = U;
rightKerningGroup = Uhorn;
unicode = 01AF;
},
{
color = 9;
glyphname = V;
lastChange = "2019-07-26 15:57:21 +0000";
layers = (
{
anchors = (
{
name = mark0;
position = "{792, -166}";
}
);
layerId = "184155C8-9F61-4F1C-9784-DDA8EA717636";
paths = (
{
closed = 1;
nodes = (
"61 1417 LINE",
"549 0 LINE",
"795 0 LINE",
"1253 1417 LINE",
"1384 1452 LINE",
"1384 1486 LINE",
"1009 1486 LINE",
"1009 1452 LINE",
"1149 1417 LINE",
"848 403 LINE",
"815 291 LINE",
"784 407 LINE",
"480 1417 LINE",
"633 1452 LINE",
"633 1486 LINE",
"-42 1486 LINE",
"-42 1452 LINE"
);
}
);
width = 1302;
},
{
anchors = (
{
name = mark0;
position = "{688, -166}";
}
);
layerId = "C9B9556E-C2FD-4F62-BB40-44923C452C22";
paths = (
{
closed = 1;
nodes = (
"114 1417 LINE",
"590 -16 LINE",
"717 -16 LINE",
"1169 1417 LINE",
"1307 1452 LINE",
"1307 1486 LINE",
"926 1486 LINE",
"926 1452 LINE",
"1068 1417 LINE",
"716 182 LINE",
"693 52 LINE",
"668 182 LINE",
"283 1417 LINE",
"427 1452 LINE",
"427 1486 LINE",
"-22 1486 LINE",
"-22 1452 LINE"
);
}
);
width = 1289;
}
);
leftKerningGroup = V;
rightKerningGroup = V;
unicode = 0056;
},
{
color = 11;
glyphname = W;
lastChange = "2019-07-26 15:57:21 +0000";
layers = (
{
anchors = (
{
name = bottom;
position = "{1029, 0}";
},
{
name = mark0;
position = "{924, -166}";
},
{
name = top;
position = "{1073, 1486}";
}
);
layerId = "184155C8-9F61-4F1C-9784-DDA8EA717636";
paths = (
{
closed = 1;
nodes = (
"49 1417 LINE",
"468 0 LINE",
"756 0 LINE",
"1030 881 LINE",
"1287 0 LINE",
"1558 0 LINE",
"1983 1418 LINE",
"2108 1452 LINE",
"2108 1486 LINE",
"1729 1486 LINE",
"1729 1452 LINE",
"1894 1418 LINE",
"1610 441 LINE",
"1557 261 LINE",
"1520 441 LINE",
"1272 1418 LINE",
"1406 1452 LINE",
"1406 1486 LINE",
"779 1486 LINE",
"779 1452 LINE",
"864 1418 LINE",
"993 998 LINE",
"809 441 LINE",
"756 261 LINE",
"719 441 LINE",
"470 1418 LINE",
"603 1452 LINE",
"603 1486 LINE",
"-36 1486 LINE",
"-36 1452 LINE"
);
}
);
width = 2055;
},
{
anchors = (
{
name = bottom;
position = "{975, 0}";
},
{
name = mark0;
position = "{870, -166}";
},
{
name = top;
position = "{1019, 1486}";
}
);
layerId = "C9B9556E-C2FD-4F62-BB40-44923C452C22";
paths = (
{
closed = 1;
nodes = (
"124 1418 LINE",
"534 -16 LINE",
"667 -16 LINE",
"961 1018 LINE",
"1229 -16 LINE",
"1360 -16 LINE",
"1774 1417 LINE",
"1893 1451 LINE",
"1893 1486 LINE",
"1492 1486 LINE",
"1492 1451 LINE",
"1674 1417 LINE",
"1354 183 LINE",
"1326 53 LINE",
"1305 176 LINE",
"1005 1429 LINE",
"1179 1451 LINE",
"1179 1486 LINE",
"709 1486 LINE",
"709 1451 LINE",
"853 1429 LINE",
"920 1183 LINE",
"655 183 LINE",
"631 53 LINE",
"610 177 LINE",
"281 1418 LINE",
"449 1452 LINE",
"449 1486 LINE",
"-18 1487 LINE",
"-18 1453 LINE"
);
}
);
width = 1875;
}
);
leftKerningGroup = W;
rightKerningGroup = W;
unicode = 0057;
},
{
color = 9;
glyphname = X;
lastChange = "2019-07-26 15:57:21 +0000";
layers = (
{
anchors = (
{
name = mark0;
position = "{715, -166}";
}
);
layerId = "184155C8-9F61-4F1C-9784-DDA8EA717636";
paths = (
{
closed = 1;
nodes = (
"11 38 LINE",
"11 0 LINE",
"564 0 LINE",
"564 38 LINE",
"350 71 LINE",
"631 584 LINE",
"908 72 LINE",
"752 38 LINE",
"752 0 LINE",
"1468 0 LINE",
"1468 38 LINE",
"1336 72 LINE",
"894 846 LINE",
"1252 1412 LINE",
"1447 1450 LINE",
"1447 1486 LINE",
"920 1486 LINE",
"920 1450 LINE",
"1145 1413 LINE",
"859 908 LINE",
"585 1411 LINE",
"742 1450 LINE",
"742 1486 LINE",
"23 1486 LINE",
"23 1450 LINE",
"155 1412 LINE",
"595 649 LINE",
"240 71 LINE"
);
}
);
width = 1479;
},
{
anchors = (
{
name = mark0;
position = "{627, -166}";
}
);
layerId = "C9B9556E-C2FD-4F62-BB40-44923C452C22";
paths = (
{
closed = 1;
nodes = (
"32 36 LINE",
"34 0 LINE",
"446 0 LINE",
"444 36 LINE",
"282 65 LINE",
"611 658 LINE",
"929 62 LINE",
"767 36 LINE",
"769 0 LINE",
"1261 0 LINE",
"1259 36 LINE",
"1118 65 LINE",
"694 773 LINE",
"1102 1424 LINE",
"1243 1450 LINE",
"1243 1486 LINE",
"829 1486 LINE",
"829 1450 LINE",
"991 1421 LINE",
"656 839 LINE",
"343 1424 LINE",
"503 1450 LINE",
"503 1486 LINE",
"24 1486 LINE",
"24 1450 LINE",
"162 1421 LINE",
"572 730 LINE",
"166 62 LINE"
);
}
);
width = 1285;
}
);
leftKerningGroup = X;
rightKerningGroup = X;
unicode = 0058;
},
{
color = 11;
glyphname = Y;
lastChange = "2019-07-26 15:57:21 +0000";
layers = (
{
anchors = (
{
name = bottom;
position = "{656, 0}";
},
{
name = mark0;
position = "{551, -166}";
},
{
name = top;
position = "{724, 1486}";
},
{
name = topleft;
position = "{40, 1486}";
}
);
layerId = "184155C8-9F61-4F1C-9784-DDA8EA717636";
paths = (
{
closed = 1;
nodes = (
"311 38 LINE",
"311 0 LINE",
"1064 0 LINE",
"1064 38 LINE",
"871 71 LINE",
"871 615 LINE",
"1191 1416 LINE",
"1377 1450 LINE",
"1377 1486 LINE",
"866 1486 LINE",
"866 1450 LINE",
"1088 1412 LINE",
"869 781 LINE",
"818 664 LINE",
"768 780 LINE",
"481 1412 LINE",
"603 1450 LINE",
"603 1486 LINE",
"-39 1486 LINE",
"-39 1450 LINE",
"72 1413 LINE",
"487 579 LINE",
"487 72 LINE"
);
}
);
width = 1295;
},
{
anchors = (
{
name = bottom;
position = "{572, 0}";
},
{
name = mark0;
position = "{542, -166}";
},
{
name = top;
position = "{592, 1486}";
},
{
name = topleft;
position = "{-28, 1486}";
}
);
layerId = "C9B9556E-C2FD-4F62-BB40-44923C452C22";
paths = (
{
closed = 1;
nodes = (
"296 36 LINE",
"296 0 LINE",
"872 0 LINE",
"872 36 LINE",
"660 69 LINE",
"660 587 LINE",
"1050 1432 LINE",
"1176 1451 LINE",
"1176 1486 LINE",
"788 1486 LINE",
"788 1451 LINE",
"946 1430 LINE",
"665 797 LINE",
"607 644 LINE",
"550 807 LINE",
"257 1430 LINE",
"419 1451 LINE",
"419 1486 LINE",
"-30 1485 LINE",
"-30 1450 LINE",
"88 1430 LINE",
"510 585 LINE",
"510 69 LINE"
);
}
);
width = 1146;
}
);
leftKerningGroup = Y;
rightKerningGroup = Y;
unicode = 0059;
},
{
color = 11;
glyphname = Z;
lastChange = "2019-07-26 15:57:21 +0000";
layers = (
{
anchors = (
{
name = bottom;
position = "{635, 0}";
},
{
name = mark0;
position = "{655, -166}";
},
{
name = top;
position = "{658, 1486}";
}
);
layerId = "184155C8-9F61-4F1C-9784-DDA8EA717636";
paths = (
{
closed = 1;
nodes = (
"-12 29 LINE",
"4 0 LINE",
"1211 0 LINE",
"1256 452 LINE",
"1076 474 LINE",
"933 103 LINE",
"403 56 LINE",
"524 215 LINE",
"1250 1456 LINE",
"1233 1486 LINE",
"88 1486 LINE",
"69 1084 LINE",
"255 1059 LINE",
"366 1402 LINE",
"845 1431 LINE",
"719 1278 LINE"
);
}
);
width = 1283;
},
{
anchors = (
{
name = bottom;
position = "{624, 0}";
},
{
name = mark0;
position = "{636, -166}";
},
{
name = top;
position = "{660, 1486}";
}
);
layerId = "C9B9556E-C2FD-4F62-BB40-44923C452C22";
paths = (
{
closed = 1;
nodes = (
"44 33 LINE",
"68 0 LINE",
"1118 0 LINE",
"1178 402 LINE",
"1100 422 LINE",
"979 105 LINE",
"223 59 LINE",
"367 254 LINE",
"1151 1452 LINE",
"1128 1486 LINE",
"195 1486 LINE",
"153 1124 LINE",
"225 1114 LINE",
"327 1404 LINE",
"972 1426 LINE",
"839 1245 LINE"
);
}
);
width = 1230;
}
);
leftKerningGroup = Z;
rightKerningGroup = Z;
unicode = 005A;
},
{
color = 0;
glyphname = I.uc;
lastChange = "2019-07-26 15:57:21 +0000";
layers = (
{
layerId = "184155C8-9F61-4F1C-9784-DDA8EA717636";
paths = (
{
closed = 1;
nodes = (
"533 1619 OFFCURVE",
"595 1689 OFFCURVE",
"595 1795 CURVE SMOOTH",
"595 1879 OFFCURVE",
"530 1945 OFFCURVE",
"418 1945 CURVE SMOOTH",
"299 1945 OFFCURVE",
"235 1875 OFFCURVE",
"235 1770 CURVE SMOOTH",
"235 1684 OFFCURVE",
"302 1619 OFFCURVE",
"399 1619 CURVE SMOOTH"
);
},
{
closed = 1;
nodes = (
"757 0 LINE",
"757 130 LINE",
"589 153 LINE",
"589 1319 LINE",
"757 1347 LINE",
"757 1486 LINE",
"83 1486 LINE",
"83 1347 LINE",
"246 1319 LINE",
"246 154 LINE",
"85 132 LINE",
"85 0 LINE"
);
}
);
width = 835;
},
{
layerId = "C9B9556E-C2FD-4F62-BB40-44923C452C22";
paths = (
{
closed = 1;
nodes = (
"472 1672 OFFCURVE",
"512 1732 OFFCURVE",
"512 1802 CURVE SMOOTH",
"512 1860 OFFCURVE",
"474 1918 OFFCURVE",
"406 1918 CURVE SMOOTH",
"326 1918 OFFCURVE",
"288 1854 OFFCURVE",
"288 1786 CURVE SMOOTH",
"288 1722 OFFCURVE",
"326 1672 OFFCURVE",
"390 1672 CURVE SMOOTH"
);
},
{
closed = 1;
nodes = (
"674 0 LINE",
"674 84 LINE",
"480 104 LINE",
"480 1378 LINE",
"674 1400 LINE",
"674 1486 LINE",
"120 1486 LINE",
"120 1400 LINE",
"314 1378 LINE",
"314 104 LINE",
"120 86 LINE",
"120 0 LINE"
);
}
);
width = 794;
}
);
leftKerningGroup = I;
rightKerningGroup = I;
},
{
color = 3;
glyphname = a;
lastChange = "2019-07-26 15:57:21 +0000";
layers = (
{
anchors = (
{
name = bottom;
position = "{469, 0}";
},
{
name = mark0;
position = "{436, -166}";
},
{
name = ogonek;
position = "{873, 20}";
},
{
name = top;
position = "{517, 1110}";
}
);
layerId = "184155C8-9F61-4F1C-9784-DDA8EA717636";
paths = (
{
closed = 1;
nodes = (
"13 92 OFFCURVE",
"117 -23 OFFCURVE",
"291 -23 CURVE",
"438 -23 OFFCURVE",
"542 67 OFFCURVE",
"574 152 CURVE",
"574 69 LINE SMOOTH",
"574 -11 OFFCURVE",
"633 -19 OFFCURVE",
"726 -19 CURVE SMOOTH",
"830 -19 OFFCURVE",
"936 3 OFFCURVE",
"979 12 CURVE",
"979 48 LINE",
"906 68 LINE",
"906 678 LINE SMOOTH",
"906 936 OFFCURVE",
"753 1035 OFFCURVE",
"530 1035 CURVE SMOOTH",
"325 1035 OFFCURVE",
"143 943 OFFCURVE",
"75 891 CURVE",
"110 818 LINE",
"163 837 OFFCURVE",
"267 868 OFFCURVE",
"386 868 CURVE SMOOTH",
"501 868 OFFCURVE",
"570 807 OFFCURVE",
"570 721 CURVE SMOOTH",
"570 600 LINE",
"345 600 OFFCURVE",
"13 518 OFFCURVE",
"13 261 CURVE SMOOTH"
);
},
{
closed = 1;
nodes = (
"398 135 OFFCURVE",
"350 208 OFFCURVE",
"350 310 CURVE SMOOTH",
"350 444 OFFCURVE",
"421 542 OFFCURVE",
"570 543 CURVE",
"570 184 LINE",
"551 148 OFFCURVE",
"501 135 OFFCURVE",
"469 135 CURVE SMOOTH"
);
}
);
width = 989;
},
{
anchors = (
{
name = bottom;
position = "{413, 0}";
},
{
name = mark0;
position = "{369, -166}";
},
{
name = ogonek;
position = "{797, 20}";
},
{
name = top;
position = "{395, 1110}";
}
);
layerId = "C9B9556E-C2FD-4F62-BB40-44923C452C22";
paths = (
{
closed = 1;
nodes = (
"32 64 OFFCURVE",
"168 -9 OFFCURVE",
"300 -9 CURVE SMOOTH",
"452 -9 OFFCURVE",
"579 116 OFFCURVE",
"614 171 CURVE",
"614 66 LINE SMOOTH",
"614 8 OFFCURVE",
"648 -16 OFFCURVE",
"708 -16 CURVE SMOOTH",
"770 -16 OFFCURVE",
"818 0 OFFCURVE",
"860 14 CURVE",
"860 47 LINE",
"754 47 LINE",
"754 687 LINE SMOOTH",
"754 909 OFFCURVE",
"684 1037 OFFCURVE",
"468 1037 CURVE SMOOTH",
"300 1037 OFFCURVE",
"152 957 OFFCURVE",
"91 916 CURVE",
"118 867 LINE",
"190 914 OFFCURVE",
"309 952 OFFCURVE",
"439 952 CURVE SMOOTH",
"588 952 OFFCURVE",
"611 823 OFFCURVE",
"611 687 CURVE SMOOTH",
"611 584 LINE",
"373 584 OFFCURVE",
"32 487 OFFCURVE",
"32 234 CURVE SMOOTH"
);
},
{
closed = 1;
nodes = (
"255 75 OFFCURVE",
"182 148 OFFCURVE",
"182 262 CURVE SMOOTH",
"182 442 OFFCURVE",
"391 534 OFFCURVE",
"611 534 CURVE",
"611 203 LINE",
"536 131 OFFCURVE",
"456 75 OFFCURVE",
"346 75 CURVE SMOOTH"
);
}
);
width = 888;
}
);
leftKerningGroup = a;
rightKerningGroup = a;
unicode = 0061;
category = Letter;
subCategory = Lowercase;
},
{
color = 7;
glyphname = aogonek;
lastChange = "2019-07-26 15:57:21 +0000";
layers = (
{
anchors = (
{
name = _ogonek;
position = "{980, 20}";
},
{
name = bottom;
position = "{576, 0}";
},
{
name = mark0;
position = "{544, -166}";
},
{
name = ogonek;
position = "{980, 20}";
},
{
name = top;
position = "{562, 1111}";
}
);
layerId = "184155C8-9F61-4F1C-9784-DDA8EA717636";
paths = (
{
closed = 1;
nodes = (
"558 -22 OFFCURVE",
"671 68 OFFCURVE",
"722 133 CURVE",
"722 87 LINE SMOOTH",
"722 7 OFFCURVE",
"742 -21 OFFCURVE",
"830 -23 CURVE",
"707 -93 OFFCURVE",
"637 -195 OFFCURVE",
"637 -284 CURVE SMOOTH",
"637 -426 OFFCURVE",
"774 -483 OFFCURVE",
"899 -483 CURVE SMOOTH",
"1001 -483 OFFCURVE",
"1109 -446 OFFCURVE",
"1163 -405 CURVE",
"1160 -269 LINE",
"1117 -286 OFFCURVE",
"1084 -307 OFFCURVE",
"1026 -307 CURVE SMOOTH",
"942 -307 OFFCURVE",
"898 -267 OFFCURVE",
"898 -201 CURVE SMOOTH",
"898 -140 OFFCURVE",
"955 -58 OFFCURVE",
"1058 -5 CURVE",
"1078 0 OFFCURVE",
"1100 3 OFFCURVE",
"1115 6 CURVE",
"1115 132 LINE",
"1012 132 LINE",
"1012 727 LINE SMOOTH",
"1012 1020 OFFCURVE",
"912 1138 OFFCURVE",
"592 1138 CURVE SMOOTH",
"351 1138 OFFCURVE",
"148 1025 OFFCURVE",
"98 984 CURVE",
"167 840 LINE",
"231 868 OFFCURVE",
"351 924 OFFCURVE",
"508 924 CURVE SMOOTH",
"674 924 OFFCURVE",
"706 862 OFFCURVE",
"706 725 CURVE SMOOTH",
"706 687 LINE",
"327 684 OFFCURVE",
"56 563 OFFCURVE",
"56 320 CURVE SMOOTH",
"56 102 OFFCURVE",
"211 -22 OFFCURVE",
"395 -22 CURVE SMOOTH"
);
},
{
closed = 1;
nodes = (
"400 458 OFFCURVE",
"484 552 OFFCURVE",
"706 553 CURVE",
"706 234 LINE",
"664 194 OFFCURVE",
"598 161 OFFCURVE",
"549 161 CURVE SMOOTH",
"458 161 OFFCURVE",
"400 232 OFFCURVE",
"400 352 CURVE SMOOTH"
);
}
);
width = 1139;
},
{
anchors = (
{
name = _ogonek;
position = "{942, 20}";
},
{
name = bottom;
position = "{558, 0}";
},
{
name = mark0;
position = "{514, -166}";
},
{
name = ogonek;
position = "{942, 20}";
},
{
name = top;
position = "{540, 1110}";
}
);
layerId = "C9B9556E-C2FD-4F62-BB40-44923C452C22";
paths = (
{
closed = 1;
nodes = (
"604 -22 OFFCURVE",
"736 96 OFFCURVE",
"786 140 CURVE",
"786 66 LINE SMOOTH",
"786 6 OFFCURVE",
"802 -12 OFFCURVE",
"835 -16 CURVE",
"714 -85 OFFCURVE",
"600 -203 OFFCURVE",
"600 -300 CURVE SMOOTH",
"600 -436 OFFCURVE",
"702 -486 OFFCURVE",
"824 -486 CURVE SMOOTH",
"986 -486 OFFCURVE",
"1078 -418 OFFCURVE",
"1128 -380 CURVE",
"1110 -304 LINE",
"1076 -324 OFFCURVE",
"988 -382 OFFCURVE",
"896 -382 CURVE SMOOTH",
"802 -382 OFFCURVE",
"750 -350 OFFCURVE",
"750 -254 CURVE SMOOTH",
"750 -174 OFFCURVE",
"877 -57 OFFCURVE",
"992 -3 CURVE",
"1016 4 OFFCURVE",
"1039 7 OFFCURVE",
"1056 12 CURVE",
"1056 86 LINE",
"932 86 LINE",
"932 746 LINE SMOOTH",
"932 1026 OFFCURVE",
"838 1132 OFFCURVE",
"568 1132 CURVE SMOOTH",
"384 1132 OFFCURVE",
"172 1018 OFFCURVE",
"136 984 CURVE",
"180 896 LINE",
"244 932 OFFCURVE",
"376 1002 OFFCURVE",
"532 1002 CURVE SMOOTH",
"720 1002 OFFCURVE",
"772 926 OFFCURVE",
"772 728 CURVE SMOOTH",
"772 666 LINE",
"442 660 OFFCURVE",
"102 572 OFFCURVE",
"102 292 CURVE SMOOTH",
"102 74 OFFCURVE",
"258 -22 OFFCURVE",
"436 -22 CURVE SMOOTH"
);
},
{
closed = 1;
nodes = (
"280 464 OFFCURVE",
"440 570 OFFCURVE",
"772 572 CURVE",
"772 218 LINE",
"692 156 OFFCURVE",
"576 96 OFFCURVE",
"496 96 CURVE SMOOTH",
"374 96 OFFCURVE",
"280 152 OFFCURVE",
"280 312 CURVE SMOOTH"
);
}
);
width = 1114;
}
);
leftKerningGroup = a;
rightKerningGroup = a;
unicode = 0105;
category = Letter;
subCategory = Lowercase;
},
{
color = 0;
glyphname = ae;
lastChange = "2019-07-26 15:57:21 +0000";
layers = (
{
anchors = (
{
name = bottom;
position = "{820, 0}";
},
{
name = top;
position = "{860, 1111}";
}
);
layerId = "184155C8-9F61-4F1C-9784-DDA8EA717636";
paths = (
{
closed = 1;
nodes = (
"433 -23 OFFCURVE",
"573 34 OFFCURVE",
"636 191 CURVE",
"710 54 OFFCURVE",
"851 -24 OFFCURVE",
"1072 -24 CURVE SMOOTH",
"1245 -24 OFFCURVE",
"1412 65 OFFCURVE",
"1467 126 CURVE",
"1441 182 LINE",
"1385 139 OFFCURVE",
"1277 116 OFFCURVE",
"1206 116 CURVE SMOOTH",
"1035 116 OFFCURVE",
"943 225 OFFCURVE",
"933 502 CURVE",
"1482 502 LINE",
"1492 527 OFFCURVE",
"1498 584 OFFCURVE",
"1498 675 CURVE SMOOTH",
"1494 913 OFFCURVE",
"1341 1042 OFFCURVE",
"1083 1042 CURVE SMOOTH",
"972 1042 OFFCURVE",
"874 1014 OFFCURVE",
"794 961 CURVE",
"728 1014 OFFCURVE",
"637 1037 OFFCURVE",
"530 1037 CURVE SMOOTH",
"325 1037 OFFCURVE",
"143 945 OFFCURVE",
"75 893 CURVE",
"110 820 LINE",
"163 839 OFFCURVE",
"267 870 OFFCURVE",
"386 870 CURVE SMOOTH",
"501 870 OFFCURVE",
"570 809 OFFCURVE",
"570 721 CURVE SMOOTH",
"570 600 LINE",
"345 600 OFFCURVE",
"13 518 OFFCURVE",
"13 261 CURVE SMOOTH",
"13 92 OFFCURVE",
"117 -23 OFFCURVE",
"291 -23 CURVE SMOOTH"
);
},
{
closed = 1;
nodes = (
"399 135 OFFCURVE",
"350 208 OFFCURVE",
"350 310 CURVE SMOOTH",
"350 444 OFFCURVE",
"421 542 OFFCURVE",
"570 543 CURVE",
"570 419 OFFCURVE",
"573 332 OFFCURVE",
"618 227 CURVE",
"589 185 OFFCURVE",
"541 135 OFFCURVE",
"467 135 CURVE SMOOTH"
);
},
{
closed = 1;
nodes = (
"941 902 OFFCURVE",
"996 986 OFFCURVE",
"1063 986 CURVE SMOOTH",
"1138 986 OFFCURVE",
"1150 888 OFFCURVE",
"1150 689 CURVE SMOOTH",
"1150 663 OFFCURVE",
"1148 595 OFFCURVE",
"1148 569 CURVE",
"931 556 LINE"
);
}
);
width = 1518;
},
{
anchors = (
{
name = bottom;
position = "{780, 0}";
},
{
name = top;
position = "{820, 1110}";
}
);
components = (
{
name = a;
},
{
alignment = -1;
name = e;
transform = "{1, 0, 0, 1, 563, 0}";
}
);
layerId = "C9B9556E-C2FD-4F62-BB40-44923C452C22";
width = 1457;
}
);
leftKerningGroup = a;
leftMetricsKey = a;
rightKerningGroup = e;
rightMetricsKey = e;
unicode = 00E6;
category = Letter;
subCategory = Lowercase;
},
{
color = 3;
glyphname = b;
lastChange = "2019-07-26 15:57:21 +0000";
layers = (
{
anchors = (
{
name = bottom;
position = "{532, -3}";
},
{
name = mark0;
position = "{496, -166}";
},
{
name = top;
position = "{782, 1111}";
}
);
layerId = "184155C8-9F61-4F1C-9784-DDA8EA717636";
paths = (
{
closed = 1;
nodes = (
"101 1433 LINE",
"101 54 LINE",
"129 35 OFFCURVE",
"280 -22 OFFCURVE",
"598 -22 CURVE SMOOTH",
"849 -22 OFFCURVE",
"1087 179 OFFCURVE",
"1087 524 CURVE SMOOTH",
"1087 860 OFFCURVE",
"962 1044 OFFCURVE",
"702 1044 CURVE SMOOTH",
"571 1044 OFFCURVE",
"451 949 OFFCURVE",
"432 893 CURVE",
"432 1590 LINE",
"378 1634 LINE",
"340 1634 LINE",
"-10 1519 LINE",
"-10 1480 LINE"
);
},
{
closed = 1;
nodes = (
"644 909 OFFCURVE",
"726 824 OFFCURVE",
"726 472 CURVE SMOOTH",
"726 200 OFFCURVE",
"685 37 OFFCURVE",
"569 37 CURVE SMOOTH",
"519 37 OFFCURVE",
"455 63 OFFCURVE",
"432 113 CURVE",
"432 837 LINE",
"446 854 OFFCURVE",
"471 909 OFFCURVE",
"555 909 CURVE SMOOTH"
);
}
);
width = 1131;
},
{
anchors = (
{
name = bottom;
position = "{429, 0}";
},
{
name = mark0;
position = "{479, -166}";
},
{
name = top;
position = "{613, 1110}";
}
);
layerId = "C9B9556E-C2FD-4F62-BB40-44923C452C22";
paths = (
{
closed = 1;
nodes = (
"119 1560 LINE",
"119 54 LINE",
"155 54 OFFCURVE",
"293 -22 OFFCURVE",
"479 -22 CURVE SMOOTH",
"749 -22 OFFCURVE",
"962 219 OFFCURVE",
"962 547 CURVE SMOOTH",
"962 857 OFFCURVE",
"821 1038 OFFCURVE",
"576 1038 CURVE SMOOTH",
"398 1038 OFFCURVE",
"289 916 OFFCURVE",
"258 865 CURVE",
"258 1625 LINE",
"244 1638 LINE",
"202 1638 LINE",
"-17 1606 LINE",
"-17 1579 LINE"
);
},
{
closed = 1;
nodes = (
"684 970 OFFCURVE",
"795 828 OFFCURVE",
"795 532 CURVE SMOOTH",
"795 204 OFFCURVE",
"681 28 OFFCURVE",
"466 28 CURVE SMOOTH",
"353 28 OFFCURVE",
"286 82 OFFCURVE",
"258 116 CURVE",
"258 830 LINE",
"303 880 OFFCURVE",
"403 970 OFFCURVE",
"537 970 CURVE SMOOTH"
);
}
);
width = 1008;
}
);
leftKerningGroup = b;
rightKerningGroup = o;
unicode = 0062;
category = Letter;
subCategory = Lowercase;
},
{
color = 5;
glyphname = c;
lastChange = "2019-07-26 15:57:21 +0000";
layers = (
{
anchors = (
{
name = bottom;
position = "{558, 0}";
},
{
name = mark0;
position = "{575, -166}";
},
{
name = top;
position = "{546, 1110}";
}
);
layerId = "184155C8-9F61-4F1C-9784-DDA8EA717636";
paths = (
{
closed = 1;
nodes = (
"31 187 OFFCURVE",
"186 -22 OFFCURVE",
"498 -22 CURVE SMOOTH",
"661 -22 OFFCURVE",
"828 67 OFFCURVE",
"880 128 CURVE",
"855 184 LINE",
"802 141 OFFCURVE",
"708 118 OFFCURVE",
"656 118 CURVE SMOOTH",
"508 118 OFFCURVE",
"400 230 OFFCURVE",
"400 547 CURVE SMOOTH",
"400 870 OFFCURVE",
"455 977 OFFCURVE",
"555 977 CURVE SMOOTH",
"602 977 OFFCURVE",
"628 925 OFFCURVE",
"644 856 CURVE SMOOTH",
"686 673 LINE",
"864 673 LINE",
"876 971 LINE",
"809 979 OFFCURVE",
"734 1042 OFFCURVE",
"546 1042 CURVE SMOOTH",
"238 1042 OFFCURVE",
"31 830 OFFCURVE",
"31 488 CURVE SMOOTH"
);
}
);
width = 892;
},
{
anchors = (
{
name = bottom;
position = "{507, 0}";
},
{
name = mark0;
position = "{551, -166}";
},
{
name = top;
position = "{567, 1110}";
}
);
layerId = "C9B9556E-C2FD-4F62-BB40-44923C452C22";
paths = (
{
closed = 1;
nodes = (
"52 183 OFFCURVE",
"216 -22 OFFCURVE",
"493 -22 CURVE SMOOTH",
"617 -22 OFFCURVE",
"745 31 OFFCURVE",
"812 98 CURVE",
"791 134 LINE",
"737 93 OFFCURVE",
"628 47 OFFCURVE",
"518 47 CURVE SMOOTH",
"320 47 OFFCURVE",
"214 235 OFFCURVE",
"214 517 CURVE SMOOTH",
"214 815 OFFCURVE",
"370 989 OFFCURVE",
"519 989 CURVE SMOOTH",
"654 989 OFFCURVE",
"686 933 OFFCURVE",
"690 913 CURVE SMOOTH",
"730 722 LINE",
"806 722 LINE",
"813 979 LINE",
"777 988 OFFCURVE",
"662 1039 OFFCURVE",
"557 1039 CURVE SMOOTH",
"262 1039 OFFCURVE",
"52 793 OFFCURVE",
"52 493 CURVE SMOOTH"
);
}
);
width = 857;
}
);
leftKerningGroup = o;
leftMetricsKey = o;
rightKerningGroup = c;
unicode = 0063;
category = Letter;
subCategory = Lowercase;
},
{
color = 3;
glyphname = d;
lastChange = "2019-07-26 15:57:21 +0000";
layers = (
{
anchors = (
{
name = bottom;
position = "{575, 0}";
},
{
name = center;
position = "{575, 556}";
},
{
name = mark0;
position = "{504, -166}";
},
{
name = top;
position = "{196, 1047}";
},
{
name = topright;
position = "{1199, 1111}";
}
);
layerId = "184155C8-9F61-4F1C-9784-DDA8EA717636";
paths = (
{
closed = 1;
nodes = (
"575 -23 OFFCURVE",
"679 60 OFFCURVE",
"711 145 CURVE",
"711 67 LINE SMOOTH",
"711 -11 OFFCURVE",
"784 -19 OFFCURVE",
"862 -19 CURVE SMOOTH",
"964 -19 OFFCURVE",
"1080 3 OFFCURVE",
"1123 12 CURVE",
"1123 58 LINE",
"1041 58 LINE",
"1041 1608 LINE",
"1018 1634 LINE",
"958 1634 LINE",
"566 1539 LINE",
"566 1510 LINE",
"707 1483 LINE",
"707 997 LINE",
"677 1022 OFFCURVE",
"605 1042 OFFCURVE",
"530 1042 CURVE SMOOTH",
"281 1042 OFFCURVE",
"40 879 OFFCURVE",
"40 496 CURVE SMOOTH",
"40 141 OFFCURVE",
"235 -23 OFFCURVE",
"430 -23 CURVE SMOOTH"
);
},
{
closed = 1;
nodes = (
"493 114 OFFCURVE",
"413 197 OFFCURVE",
"413 548 CURVE SMOOTH",
"413 817 OFFCURVE",
"454 979 OFFCURVE",
"588 979 CURVE SMOOTH",
"640 979 OFFCURVE",
"684 953 OFFCURVE",
"707 903 CURVE",
"707 185 LINE",
"688 148 OFFCURVE",
"645 114 OFFCURVE",
"583 114 CURVE SMOOTH"
);
}
);
width = 1135;
},
{
anchors = (
{
name = bottom;
position = "{518, 0}";
},
{
name = center;
position = "{518, 556}";
},
{
name = mark0;
position = "{474, -166}";
},
{
name = top;
position = "{258, 1088}";
},
{
name = topright;
position = "{1088, 1110}";
}
);
layerId = "C9B9556E-C2FD-4F62-BB40-44923C452C22";
paths = (
{
closed = 1;
nodes = (
"611 -22 OFFCURVE",
"718 100 OFFCURVE",
"749 153 CURVE",
"749 67 LINE SMOOTH",
"749 8 OFFCURVE",
"781 -16 OFFCURVE",
"854 -16 CURVE SMOOTH",
"899 -16 OFFCURVE",
"958 0 OFFCURVE",
"1000 14 CURVE",
"1000 47 LINE",
"888 47 LINE",
"888 1625 LINE",
"874 1638 LINE",
"832 1638 LINE",
"612 1606 LINE",
"612 1579 LINE",
"749 1560 LINE",
"749 984 LINE",
"713 1008 OFFCURVE",
"632 1038 OFFCURVE",
"529 1038 CURVE SMOOTH",
"260 1038 OFFCURVE",
"46 798 OFFCURVE",
"46 469 CURVE SMOOTH",
"46 159 OFFCURVE",
"187 -22 OFFCURVE",
"432 -22 CURVE SMOOTH"
);
},
{
closed = 1;
nodes = (
"325 46 OFFCURVE",
"213 188 OFFCURVE",
"213 484 CURVE SMOOTH",
"213 812 OFFCURVE",
"327 988 OFFCURVE",
"542 988 CURVE SMOOTH",
"655 988 OFFCURVE",
"721 936 OFFCURVE",
"749 900 CURVE",
"749 186 LINE",
"704 136 OFFCURVE",
"605 46 OFFCURVE",
"472 46 CURVE SMOOTH"
);
}
);
width = 1005;
}
);
leftKerningGroup = d;
rightKerningGroup = d;
unicode = 0064;
category = Letter;
subCategory = Lowercase;
},
{
color = 11;
glyphname = eth;
lastChange = "2019-07-26 15:57:21 +0000";
layers = (
{
layerId = "184155C8-9F61-4F1C-9784-DDA8EA717636";
paths = (
{
closed = 1;
nodes = (
"1019 -22 OFFCURVE",
"1149 352 OFFCURVE",
"1149 662 CURVE SMOOTH",
"1149 1142 OFFCURVE",
"870 1469 OFFCURVE",
"564 1650 CURVE",
"534 1478 LINE",
"787 1727 LINE",
"673 1828 LINE",
"407 1563 LINE",
"632 1609 LINE",
"462 1717 OFFCURVE",
"332 1747 OFFCURVE",
"229 1772 CURVE",
"173 1635 LINE",
"242 1618 OFFCURVE",
"390 1547 OFFCURVE",
"493 1462 CURVE",
"505 1652 LINE",
"239 1390 LINE",
"361 1291 LINE",
"620 1559 LINE",
"419 1506 LINE",
"592 1411 OFFCURVE",
"713 1282 OFFCURVE",
"762 1108 CURVE",
"720 1126 OFFCURVE",
"656 1140 OFFCURVE",
"578 1140 CURVE SMOOTH",
"323 1140 OFFCURVE",
"65 950 OFFCURVE",
"65 536 CURVE SMOOTH",
"65 214 OFFCURVE",
"250 -22 OFFCURVE",
"597 -22 CURVE SMOOTH"
);
},
{
closed = 1;
nodes = (
"470 120 OFFCURVE",
"420 351 OFFCURVE",
"420 570 CURVE SMOOTH",
"420 880 OFFCURVE",
"494 1006 OFFCURVE",
"614 1006 CURVE SMOOTH",
"698 1006 OFFCURVE",
"762 969 OFFCURVE",
"779 953 CURVE",
"794 903 OFFCURVE",
"807 765 OFFCURVE",
"807 616 CURVE SMOOTH",
"807 270 OFFCURVE",
"738 120 OFFCURVE",
"613 120 CURVE SMOOTH"
);
}
);
width = 1208;
},
{
layerId = "C9B9556E-C2FD-4F62-BB40-44923C452C22";
paths = (
{
closed = 1;
nodes = (
"868 -22 OFFCURVE",
"979 370 OFFCURVE",
"979 646 CURVE SMOOTH",
"979 1084 OFFCURVE",
"843 1335 OFFCURVE",
"503 1549 CURVE",
"492 1491 LINE",
"635 1688 LINE",
"575 1724 LINE",
"433 1525 LINE",
"505 1549 LINE",
"397 1609 OFFCURVE",
"343 1630 OFFCURVE",
"217 1670 CURVE",
"200 1619 LINE",
"272 1599 OFFCURVE",
"380 1552 OFFCURVE",
"442 1500 CURVE",
"445 1549 LINE",
"288 1339 LINE",
"356 1308 LINE",
"502 1511 LINE",
"440 1498 LINE",
"664 1317 OFFCURVE",
"758 1129 OFFCURVE",
"780 921 CURVE",
"730 991 OFFCURVE",
"651 1039 OFFCURVE",
"537 1039 CURVE SMOOTH",
"273 1039 OFFCURVE",
"84 798 OFFCURVE",
"84 496 CURVE SMOOTH",
"84 226 OFFCURVE",
"194 -22 OFFCURVE",
"516 -22 CURVE SMOOTH"
);
},
{
closed = 1;
nodes = (
"307 28 OFFCURVE",
"247 315 OFFCURVE",
"247 513 CURVE SMOOTH",
"247 727 OFFCURVE",
"323 984 OFFCURVE",
"533 984 CURVE SMOOTH",
"664 984 OFFCURVE",
"713 921 OFFCURVE",
"786 761 CURVE",
"796 711 OFFCURVE",
"809 626 OFFCURVE",
"809 527 CURVE SMOOTH",
"809 256 OFFCURVE",
"744 28 OFFCURVE",
"532 28 CURVE SMOOTH"
);
}
);
width = 1059;
}
);
leftKerningGroup = eth;
rightKerningGroup = eth;
unicode = 00F0;
category = Letter;
subCategory = Lowercase;
},
{
color = 8;
glyphname = dcroat;
lastChange = "2019-07-26 15:57:21 +0000";
layers = (
{
components = (
{
name = d;
}
);
layerId = "184155C8-9F61-4F1C-9784-DDA8EA717636";
paths = (
{
closed = 1;
nodes = (
"495 1363 LINE",
"495 1234 LINE",
"1222 1234 LINE",
"1222 1363 LINE"
);
}
);
width = 1135;
},
{
components = (
{
name = d;
}
);
layerId = "C9B9556E-C2FD-4F62-BB40-44923C452C22";
paths = (
{
closed = 1;
nodes = (
"470 1376 LINE",
"470 1290 LINE",
"1040 1290 LINE",
"1040 1376 LINE"
);
}
);
width = 1010;
}
);
leftKerningGroup = d;
leftMetricsKey = d;
widthMetricsKey = d;
rightKerningGroup = d;
unicode = 0111;
category = Letter;
subCategory = Lowercase;
},
{
color = 3;
glyphname = e;
lastChange = "2019-07-26 15:57:21 +0000";
layers = (
{
anchors = (
{
name = bottom;
position = "{484, 0}";
},
{
name = mark0;
position = "{485, -166}";
},
{
name = ogonek;
position = "{627, 20}";
},
{
name = top;
position = "{526, 1111}";
}
);
layerId = "184155C8-9F61-4F1C-9784-DDA8EA717636";
paths = (
{
closed = 1;
nodes = (
"693 -24 OFFCURVE",
"860 65 OFFCURVE",
"915 126 CURVE",
"889 182 LINE",
"833 139 OFFCURVE",
"725 116 OFFCURVE",
"654 116 CURVE SMOOTH",
"483 116 OFFCURVE",
"391 203 OFFCURVE",
"381 480 CURVE",
"930 480 LINE",
"940 508 OFFCURVE",
"946 573 OFFCURVE",
"946 675 CURVE",
"942 913 OFFCURVE",
"789 1042 OFFCURVE",
"531 1042 CURVE SMOOTH",
"228 1042 OFFCURVE",
"20 828 OFFCURVE",
"20 485 CURVE SMOOTH",
"20 172 OFFCURVE",
"170 -24 OFFCURVE",
"520 -24 CURVE SMOOTH"
);
},
{
closed = 1;
nodes = (
"389 873 OFFCURVE",
"444 986 OFFCURVE",
"511 986 CURVE SMOOTH",
"586 986 OFFCURVE",
"598 888 OFFCURVE",
"598 689 CURVE SMOOTH",
"598 661 OFFCURVE",
"596 577 OFFCURVE",
"596 548 CURVE",
"379 527 LINE"
);
}
);
width = 966;
},
{
anchors = (
{
name = bottom;
position = "{469, 0}";
},
{
name = mark0;
position = "{523, -166}";
},
{
name = ogonek;
position = "{621, 20}";
},
{
name = top;
position = "{511, 1110}";
}
);
layerId = "C9B9556E-C2FD-4F62-BB40-44923C452C22";
paths = (
{
closed = 1;
nodes = (
"618 -22 OFFCURVE",
"743 34 OFFCURVE",
"815 104 CURVE",
"794 144 LINE",
"735 95 OFFCURVE",
"625 45 OFFCURVE",
"510 45 CURVE SMOOTH",
"284 45 OFFCURVE",
"208 292 OFFCURVE",
"208 519 CURVE",
"848 519 LINE",
"854 552 OFFCURVE",
"859 589 OFFCURVE",
"858 668 CURVE SMOOTH",
"855 907 OFFCURVE",
"712 1039 OFFCURVE",
"489 1039 CURVE SMOOTH",
"281 1039 OFFCURVE",
"45 841 OFFCURVE",
"45 485 CURVE SMOOTH",
"45 171 OFFCURVE",
"214 -22 OFFCURVE",
"492 -22 CURVE SMOOTH"
);
},
{
closed = 1;
nodes = (
"209 761 OFFCURVE",
"290 989 OFFCURVE",
"494 989 CURVE SMOOTH",
"645 989 OFFCURVE",
"711 867 OFFCURVE",
"711 666 CURVE SMOOTH",
"711 638 OFFCURVE",
"711 611 OFFCURVE",
"706 581 CURVE",
"209 563 LINE"
);
}
);
width = 894;
}
);
leftKerningGroup = o;
rightKerningGroup = e;
unicode = 0065;
category = Letter;
subCategory = Lowercase;
},
{
color = 7;
glyphname = eogonek;
lastChange = "2019-07-26 15:57:21 +0000";
layers = (
{
anchors = (
{
name = _ogonek;
position = "{665, 20}";
},
{
name = bottom;
position = "{522, 0}";
},
{
name = mark0;
position = "{523, -166}";
},
{
name = ogonek;
position = "{665, 20}";
},
{
name = top;
position = "{549, 1111}";
}
);
layerId = "184155C8-9F61-4F1C-9784-DDA8EA717636";
paths = (
{
closed = 1;
nodes = (
"686 -483 OFFCURVE",
"790 -446 OFFCURVE",
"863 -391 CURVE",
"861 -269 LINE",
"818 -286 OFFCURVE",
"769 -307 OFFCURVE",
"711 -307 CURVE SMOOTH",
"627 -307 OFFCURVE",
"583 -267 OFFCURVE",
"583 -201 CURVE SMOOTH",
"583 -118 OFFCURVE",
"676 -26 OFFCURVE",
"787 18 CURVE",
"885 52 OFFCURVE",
"964 106 OFFCURVE",
"999 141 CURVE",
"943 262 LINE",
"883 224 OFFCURVE",
"763 179 OFFCURVE",
"657 179 CURVE SMOOTH",
"479 179 OFFCURVE",
"383 302 OFFCURVE",
"369 528 CURVE",
"996 528 LINE",
"1007 579 OFFCURVE",
"1013 643 OFFCURVE",
"1013 734 CURVE",
"1008 989 OFFCURVE",
"861 1140 OFFCURVE",
"578 1140 CURVE SMOOTH",
"247 1140 OFFCURVE",
"30 926 OFFCURVE",
"30 556 CURVE SMOOTH",
"30 230 OFFCURVE",
"173 -3 OFFCURVE",
"521 -21 CURVE",
"392 -91 OFFCURVE",
"322 -188 OFFCURVE",
"322 -284 CURVE SMOOTH",
"322 -424 OFFCURVE",
"462 -483 OFFCURVE",
"584 -483 CURVE SMOOTH"
);
},
{
closed = 1;
nodes = (
"373 940 OFFCURVE",
"446 1001 OFFCURVE",
"548 1001 CURVE SMOOTH",
"661 1001 OFFCURVE",
"697 901 OFFCURVE",
"698 744 CURVE SMOOTH",
"698 716 OFFCURVE",
"696 689 OFFCURVE",
"695 661 CURVE",
"367 661 LINE"
);
}
);
width = 1043;
},
{
anchors = (
{
name = _ogonek;
position = "{658, 20}";
},
{
name = bottom;
position = "{506, 0}";
},
{
name = mark0;
position = "{560, -166}";
},
{
name = ogonek;
position = "{658, 20}";
},
{
name = top;
position = "{570, 1110}";
}
);
layerId = "C9B9556E-C2FD-4F62-BB40-44923C452C22";
paths = (
{
closed = 1;
nodes = (
"702 -486 OFFCURVE",
"778 -428 OFFCURVE",
"828 -394 CURVE",
"826 -304 LINE",
"792 -324 OFFCURVE",
"704 -382 OFFCURVE",
"612 -382 CURVE SMOOTH",
"518 -382 OFFCURVE",
"466 -350 OFFCURVE",
"466 -254 CURVE SMOOTH",
"466 -168 OFFCURVE",
"616 -38 OFFCURVE",
"736 10 CURVE",
"818 36 OFFCURVE",
"890 76 OFFCURVE",
"934 120 CURVE",
"902 194 LINE",
"840 140 OFFCURVE",
"708 92 OFFCURVE",
"594 92 CURVE SMOOTH",
"356 92 OFFCURVE",
"232 298 OFFCURVE",
"232 568 CURVE",
"944 568 LINE",
"954 612 OFFCURVE",
"956 668 OFFCURVE",
"956 744 CURVE",
"946 1002 OFFCURVE",
"808 1140 OFFCURVE",
"572 1140 CURVE SMOOTH",
"278 1140 OFFCURVE",
"60 904 OFFCURVE",
"60 560 CURVE SMOOTH",
"60 218 OFFCURVE",
"226 -22 OFFCURVE",
"542 -22 CURVE",
"424 -92 OFFCURVE",
"316 -182 OFFCURVE",
"316 -300 CURVE SMOOTH",
"316 -428 OFFCURVE",
"428 -486 OFFCURVE",
"540 -486 CURVE SMOOTH"
);
},
{
closed = 1;
nodes = (
"252 940 OFFCURVE",
"372 1038 OFFCURVE",
"532 1038 CURVE SMOOTH",
"710 1038 OFFCURVE",
"780 914 OFFCURVE",
"782 750 CURVE SMOOTH",
"782 722 OFFCURVE",
"780 690 OFFCURVE",
"776 662 CURVE",
"234 662 LINE"
);
}
);
width = 1016;
}
);
leftKerningGroup = o;
leftMetricsKey = e;
rightKerningGroup = e;
rightMetricsKey = e;
unicode = 0119;
category = Letter;
subCategory = Lowercase;
},
{
color = 0;
glyphname = ezh;
lastChange = "2019-07-26 15:57:21 +0000";
layers = (
{
anchors = (
{
name = top;
position = "{577, 1110}";
}
);
layerId = "184155C8-9F61-4F1C-9784-DDA8EA717636";
paths = (
{
closed = 1;
nodes = (
"1059 943 LINE",
"1037 1005 LINE",
"67 1005 LINE",
"50 654 LINE",
"227 654 LINE",
"305 929 LINE",
"758 943 LINE",
"372 281 LINE",
"423 190 LINE",
"697 198 OFFCURVE",
"749 11 OFFCURVE",
"749 -113 CURVE SMOOTH",
"749 -372 OFFCURVE",
"611 -365 OFFCURVE",
"431 -365 CURVE SMOOTH",
"392 -365 OFFCURVE",
"355 -354 OFFCURVE",
"323 -340 CURVE",
"230 -147 LINE",
"71 -147 LINE",
"90 -424 LINE",
"147 -458 OFFCURVE",
"296 -517 OFFCURVE",
"510 -517 CURVE SMOOTH",
"881 -517 OFFCURVE",
"1107 -420 OFFCURVE",
"1107 -111 CURVE SMOOTH",
"1107 163 OFFCURVE",
"977 296 OFFCURVE",
"695 297 CURVE"
);
}
);
width = 1182;
},
{
anchors = (
{
name = top;
position = "{568, 1110}";
}
);
layerId = "C9B9556E-C2FD-4F62-BB40-44923C452C22";
paths = (
{
closed = 1;
nodes = (
"1022 1028 LINE",
"990 1108 LINE",
"126 1108 LINE",
"122 764 LINE",
"238 764 LINE",
"284 1010 LINE",
"818 1010 LINE",
"366 366 LINE",
"408 302 LINE",
"724 328 OFFCURVE",
"830 130 OFFCURVE",
"830 -10 CURVE SMOOTH",
"830 -266 OFFCURVE",
"676 -400 OFFCURVE",
"422 -400 CURVE SMOOTH",
"362 -400 OFFCURVE",
"306 -384 OFFCURVE",
"258 -362 CURVE",
"202 -96 LINE",
"114 -96 LINE",
"120 -424 LINE",
"160 -442 OFFCURVE",
"268 -498 OFFCURVE",
"458 -498 CURVE SMOOTH",
"760 -498 OFFCURVE",
"1014 -324 OFFCURVE",
"1014 -6 CURVE SMOOTH",
"1014 208 OFFCURVE",
"858 406 OFFCURVE",
"546 394 CURVE"
);
}
);
width = 1152;
}
);
leftKerningGroup = ezh;
rightKerningGroup = ezh;
unicode = 0292;
category = Letter;
subCategory = Lowercase;
},
{
color = 3;
glyphname = f;
lastChange = "2019-07-26 15:57:21 +0000";
layers = (
{
anchors = (
{
name = top;
position = "{120, 1398}";
}
);
layerId = "184155C8-9F61-4F1C-9784-DDA8EA717636";
paths = (
{
closed = 1;
nodes = (
"40 38 LINE",
"40 0 LINE",
"621 0 LINE",
"621 38 LINE",
"480 72 LINE",
"480 907 LINE",
"657 907 LINE",
"657 1005 LINE",
"480 1005 LINE",
"480 1325 LINE SMOOTH",
"480 1450 OFFCURVE",
"514 1487 OFFCURVE",
"588 1487 CURVE SMOOTH",
"648 1487 OFFCURVE",
"746 1452 OFFCURVE",
"795 1420 CURVE",
"795 1635 LINE",
"778 1646 OFFCURVE",
"742 1652 OFFCURVE",
"690 1652 CURVE SMOOTH",
"453 1652 OFFCURVE",
"153 1383 OFFCURVE",
"153 1055 CURVE SMOOTH",
"153 1004 LINE",
"35 945 LINE",
"35 907 LINE",
"153 907 LINE",
"153 72 LINE"
);
}
);
width = 637;
},
{
anchors = (
{
name = top;
position = "{136, 1433}";
}
);
layerId = "C9B9556E-C2FD-4F62-BB40-44923C452C22";
paths = (
{
closed = 1;
nodes = (
"30 36 LINE",
"30 0 LINE",
"503 0 LINE",
"503 36 LINE",
"335 65 LINE",
"335 943 LINE",
"560 943 LINE",
"560 1005 LINE",
"335 1005 LINE",
"335 1316 LINE SMOOTH",
"335 1509 OFFCURVE",
"388 1551 OFFCURVE",
"536 1551 CURVE SMOOTH",
"621 1551 OFFCURVE",
"672 1542 OFFCURVE",
"696 1530 CURVE",
"696 1642 LINE",
"681 1648 OFFCURVE",
"655 1658 OFFCURVE",
"614 1658 CURVE SMOOTH",
"400 1658 OFFCURVE",
"195 1475 OFFCURVE",
"195 1147 CURVE SMOOTH",
"195 1003 LINE",
"33 980 LINE",
"33 943 LINE",
"195 943 LINE",
"195 67 LINE"
);
}
);
width = 616;
}
);
leftKerningGroup = f;
rightKerningGroup = f;
unicode = 0066;
category = Letter;
subCategory = Lowercase;
},
{
color = 8;
glyphname = g;
lastChange = "2019-07-26 15:57:21 +0000";
layers = (
{
anchors = (
{
name = bottom;
position = "{568, 0}";
},
{
name = top;
position = "{572, 1111}";
}
);
layerId = "184155C8-9F61-4F1C-9784-DDA8EA717636";
paths = (
{
closed = 1;
nodes = (
"845 -480 OFFCURVE",
"1123 -327 OFFCURVE",
"1123 -72 CURVE SMOOTH",
"1123 99 OFFCURVE",
"987 203 OFFCURVE",
"751 203 CURVE SMOOTH",
"537 203 LINE SMOOTH",
"365 203 OFFCURVE",
"312 227 OFFCURVE",
"312 284 CURVE SMOOTH",
"312 310 OFFCURVE",
"319 327 OFFCURVE",
"341 346 CURVE",
"384 339 OFFCURVE",
"459 336 OFFCURVE",
"515 336 CURVE SMOOTH",
"780 336 OFFCURVE",
"996 464 OFFCURVE",
"996 682 CURVE SMOOTH",
"996 721 OFFCURVE",
"982 816 OFFCURVE",
"963 834 CURVE",
"1104 834 LINE",
"1104 1037 LINE",
"1065 1037 LINE SMOOTH",
"980 1037 OFFCURVE",
"939 971 OFFCURVE",
"910 917 CURVE",
"831 1005 OFFCURVE",
"713 1028 OFFCURVE",
"550 1028 CURVE SMOOTH",
"284 1028 OFFCURVE",
"69 900 OFFCURVE",
"69 682 CURVE SMOOTH",
"69 540 OFFCURVE",
"139 418 OFFCURVE",
"289 361 CURVE",
"179 313 OFFCURVE",
"118 244 OFFCURVE",
"118 143 CURVE SMOOTH",
"118 55 OFFCURVE",
"153 -12 OFFCURVE",
"233 -63 CURVE",
"90 -86 OFFCURVE",
"8 -165 OFFCURVE",
"8 -259 CURVE SMOOTH",
"8 -461 OFFCURVE",
"289 -480 OFFCURVE",
"506 -480 CURVE SMOOTH"
);
},
{
closed = 1;
nodes = (
"414 -418 OFFCURVE",
"254 -352 OFFCURVE",
"254 -183 CURVE SMOOTH",
"254 -125 OFFCURVE",
"267 -98 OFFCURVE",
"280 -79 CURVE",
"332 -93 OFFCURVE",
"459 -106 OFFCURVE",
"541 -106 CURVE SMOOTH",
"646 -106 LINE SMOOTH",
"778 -106 OFFCURVE",
"841 -146 OFFCURVE",
"841 -230 CURVE SMOOTH",
"841 -372 OFFCURVE",
"732 -421 OFFCURVE",
"541 -419 CURVE SMOOTH"
);
},
{
closed = 1;
nodes = (
"444 390 OFFCURVE",
"410 522 OFFCURVE",
"410 693 CURVE SMOOTH",
"410 895 OFFCURVE",
"456 974 OFFCURVE",
"539 974 CURVE SMOOTH",
"620 974 OFFCURVE",
"655 843 OFFCURVE",
"655 685 CURVE SMOOTH",
"655 470 OFFCURVE",
"609 390 OFFCURVE",
"525 390 CURVE SMOOTH"
);
}
);
width = 1116;
},
{
anchors = (
{
name = bottom;
position = "{501, 0}";
},
{
name = top;
position = "{505, 1111}";
}
);
layerId = "C9B9556E-C2FD-4F62-BB40-44923C452C22";
paths = (
{
closed = 1;
nodes = (
"738 -468 OFFCURVE",
"936 -337 OFFCURVE",
"936 -81 CURVE SMOOTH",
"936 16 OFFCURVE",
"857 99 OFFCURVE",
"666 99 CURVE SMOOTH",
"379 99 LINE SMOOTH",
"275 99 OFFCURVE",
"238 128 OFFCURVE",
"229 209 CURVE SMOOTH",
"220 292 OFFCURVE",
"282 327 OFFCURVE",
"309 346 CURVE",
"352 339 OFFCURVE",
"407 332 OFFCURVE",
"457 332 CURVE SMOOTH",
"656 332 OFFCURVE",
"846 468 OFFCURVE",
"846 686 CURVE SMOOTH",
"846 799 OFFCURVE",
"811 873 OFFCURVE",
"794 891 CURVE",
"964 892 LINE",
"965 1018 LINE",
"927 1018 LINE SMOOTH",
"875 1018 OFFCURVE",
"785 976 OFFCURVE",
"773 923 CURVE",
"720 983 OFFCURVE",
"646 1039 OFFCURVE",
"491 1039 CURVE SMOOTH",
"292 1039 OFFCURVE",
"104 906 OFFCURVE",
"104 682 CURVE SMOOTH",
"104 540 OFFCURVE",
"124 439 OFFCURVE",
"281 362 CURVE",
"205 332 OFFCURVE",
"115 267 OFFCURVE",
"115 166 CURVE SMOOTH",
"115 81 OFFCURVE",
"155 36 OFFCURVE",
"216 12 CURVE",
"100 -14 OFFCURVE",
"5 -79 OFFCURVE",
"5 -209 CURVE SMOOTH",
"5 -396 OFFCURVE",
"240 -468 OFFCURVE",
"393 -468 CURVE SMOOTH"
);
},
{
closed = 1;
nodes = (
"312 -419 OFFCURVE",
"154 -346 OFFCURVE",
"154 -188 CURVE SMOOTH",
"154 -62 OFFCURVE",
"194 -29 OFFCURVE",
"245 0 CURVE",
"296 -6 OFFCURVE",
"389 -10 OFFCURVE",
"469 -10 CURVE SMOOTH",
"629 -10 LINE SMOOTH",
"763 -10 OFFCURVE",
"797 -81 OFFCURVE",
"797 -144 CURVE SMOOTH",
"797 -293 OFFCURVE",
"666 -419 OFFCURVE",
"427 -419 CURVE SMOOTH"
);
},
{
closed = 1;
nodes = (
"323 382 OFFCURVE",
"246 504 OFFCURVE",
"246 682 CURVE SMOOTH",
"246 879 OFFCURVE",
"333 989 OFFCURVE",
"487 989 CURVE SMOOTH",
"615 989 OFFCURVE",
"702 869 OFFCURVE",
"702 685 CURVE SMOOTH",
"702 494 OFFCURVE",
"614 382 OFFCURVE",
"459 382 CURVE SMOOTH"
);
}
);
width = 981;
}
);
leftKerningGroup = g;
rightKerningGroup = g;
unicode = 0067;
category = Letter;
subCategory = Lowercase;
},
{
color = 7;
glyphname = gstroke;
lastChange = "2019-07-26 15:57:21 +0000";
layers = (
{
components = (
{
alignment = -1;
name = g;
}
);
layerId = "184155C8-9F61-4F1C-9784-DDA8EA717636";
paths = (
{
closed = 1;
nodes = (
"-39 -148 LINE",
"-39 -268 LINE",
"1304 -268 LINE",
"1304 -148 LINE"
);
}
);
width = 1273;
},
{
components = (
{
name = g;
}
);
layerId = "C9B9556E-C2FD-4F62-BB40-44923C452C22";
paths = (
{
closed = 1;
nodes = (
"-44 -166 LINE",
"-44 -246 LINE",
"995 -246 LINE",
"995 -166 LINE"
);
}
);
width = 993;
}
);
leftKerningGroup = gstroke;
widthMetricsKey = g;
rightKerningGroup = gstroke;
unicode = 01E5;
category = Letter;
subCategory = Lowercase;
},
{
color = 11;
glyphname = h;
lastChange = "2019-07-26 15:57:21 +0000";
layers = (
{
anchors = (
{
name = bottom;
position = "{608, 0}";
},
{
name = center;
position = "{608, 556}";
},
{
name = mark0;
position = "{591, -166}";
},
{
name = top;
position = "{244, 1596}";
}
);
layerId = "184155C8-9F61-4F1C-9784-DDA8EA717636";
paths = (
{
closed = 1;
nodes = (
"1 38 LINE",
"1 0 LINE",
"560 0 LINE",
"560 38 LINE",
"451 72 LINE",
"451 812 LINE",
"486 836 OFFCURVE",
"550 863 OFFCURVE",
"623 863 CURVE SMOOTH",
"705 863 OFFCURVE",
"735 796 OFFCURVE",
"735 662 CURVE SMOOTH",
"735 72 LINE",
"656 38 LINE",
"656 0 LINE",
"1178 0 LINE",
"1178 38 LINE",
"1074 72 LINE",
"1074 662 LINE SMOOTH",
"1074 941 OFFCURVE",
"982 1039 OFFCURVE",
"787 1039 CURVE SMOOTH",
"634 1039 OFFCURVE",
"521 943 OFFCURVE",
"446 848 CURVE",
"451 991 LINE",
"451 1590 LINE",
"389 1634 LINE",
"352 1634 LINE",
"2 1519 LINE",
"2 1480 LINE",
"113 1433 LINE",
"113 72 LINE"
);
}
);
width = 1186;
},
{
anchors = (
{
name = bottom;
position = "{574, 0}";
},
{
name = center;
position = "{574, 556}";
},
{
name = mark0;
position = "{592, -166}";
},
{
name = top;
position = "{176, 1602}";
}
);
layerId = "C9B9556E-C2FD-4F62-BB40-44923C452C22";
paths = (
{
closed = 1;
nodes = (
"7 36 LINE",
"7 0 LINE",
"386 0 LINE",
"386 36 LINE",
"268 67 LINE",
"268 806 LINE",
"369 888 OFFCURVE",
"446 927 OFFCURVE",
"579 927 CURVE SMOOTH",
"743 927 OFFCURVE",
"763 797 OFFCURVE",
"763 616 CURVE SMOOTH",
"763 67 LINE",
"640 36 LINE",
"640 0 LINE",
"1020 0 LINE",
"1020 36 LINE",
"905 67 LINE",
"905 623 LINE SMOOTH",
"905 850 OFFCURVE",
"855 1023 OFFCURVE",
"622 1023 CURVE SMOOTH",
"446 1023 OFFCURVE",
"337 921 OFFCURVE",
"266 832 CURVE",
"268 1136 LINE",
"268 1625 LINE",
"254 1638 LINE",
"212 1638 LINE",
"-7 1606 LINE",
"-7 1579 LINE",
"129 1560 LINE",
"129 67 LINE"
);
}
);
width = 1040;
}
);
leftKerningGroup = h;
rightKerningGroup = n;
rightMetricsKey = n;
unicode = 0068;
category = Letter;
subCategory = Lowercase;
},
{
color = 7;
glyphname = hbar;
lastChange = "2019-07-26 15:57:21 +0000";
layers = (
{
components = (
{
name = h;
}
);
layerId = "184155C8-9F61-4F1C-9784-DDA8EA717636";
paths = (
{
closed = 1;
nodes = (
"16 1218 LINE",
"837 1218 LINE",
"837 1351 LINE",
"16 1351 LINE"
);
}
);
width = 1193;
},
{
components = (
{
name = h;
}
);
layerId = "C9B9556E-C2FD-4F62-BB40-44923C452C22";
paths = (
{
closed = 1;
nodes = (
"11 1264 LINE",
"630 1264 LINE",
"630 1360 LINE",
"11 1360 LINE"
);
}
);
width = 1038;
}
);
leftKerningGroup = h;
widthMetricsKey = h;
rightKerningGroup = n;
rightMetricsKey = h;
unicode = 0127;
category = Letter;
subCategory = Lowercase;
},
{
color = 8;
glyphname = idotless;
lastChange = "2019-07-26 15:57:21 +0000";
layers = (
{
anchors = (
{
name = bottom;
position = "{364, 0}";
},
{
name = mark0;
position = "{359, -166}";
},
{
name = ogonek;
position = "{445, 20}";
},
{
name = top;
position = "{308, 1110}";
}
);
layerId = "184155C8-9F61-4F1C-9784-DDA8EA717636";
paths = (
{
closed = 1;
nodes = (
"15 38 LINE",
"15 0 LINE",
"580 0 LINE",
"580 38 LINE",
"460 72 LINE",
"459 990 LINE",
"415 1035 LINE",
"377 1035 LINE",
"17 920 LINE",
"17 881 LINE",
"128 834 LINE",
"128 72 LINE"
);
}
);
width = 580;
},
{
anchors = (
{
name = bottom;
position = "{331, 0}";
},
{
name = mark0;
position = "{325, -166}";
},
{
name = ogonek;
position = "{411, 20}";
},
{
name = top;
position = "{243, 1110}";
}
);
layerId = "C9B9556E-C2FD-4F62-BB40-44923C452C22";
paths = (
{
closed = 1;
nodes = (
"44 36 LINE",
"44 0 LINE",
"420 0 LINE",
"420 36 LINE",
"304 67 LINE",
"304 998 LINE",
"289 1010 LINE",
"232 1010 LINE",
"36 958 LINE",
"36 931 LINE",
"162 896 LINE",
"162 67 LINE"
);
}
);
width = 460;
}
);
leftKerningGroup = i;
rightKerningGroup = i;
unicode = 0131;
category = Letter;
subCategory = Lowercase;
},
{
color = 7;
glyphname = iogonek;
lastChange = "2019-07-26 15:57:21 +0000";
layers = (
{
components = (
{
name = i;
}
);
layerId = "184155C8-9F61-4F1C-9784-DDA8EA717636";
paths = (
{
closed = 1;
nodes = (
"373 -483 OFFCURVE",
"475 -449 OFFCURVE",
"530 -408 CURVE",
"531 -269 LINE",
"488 -286 OFFCURVE",
"455 -307 OFFCURVE",
"397 -307 CURVE SMOOTH",
"319 -307 OFFCURVE",
"274 -265 OFFCURVE",
"274 -201 CURVE SMOOTH",
"274 -138 OFFCURVE",
"325 -53 OFFCURVE",
"435 0 CURVE",
"323 71 LINE",
"244 0 LINE",
"90 -69 OFFCURVE",
"13 -185 OFFCURVE",
"13 -284 CURVE SMOOTH",
"13 -423 OFFCURVE",
"153 -483 OFFCURVE",
"271 -483 CURVE SMOOTH"
);
}
);
width = 580;
},
{
components = (
{
name = i;
}
);
layerId = "C9B9556E-C2FD-4F62-BB40-44923C452C22";
paths = (
{
closed = 1;
nodes = (
"327 -476 OFFCURVE",
"354 -437 OFFCURVE",
"380 -414 CURVE",
"380 -347 LINE",
"354 -366 OFFCURVE",
"325 -392 OFFCURVE",
"257 -392 CURVE SMOOTH",
"200 -392 OFFCURVE",
"132 -374 OFFCURVE",
"132 -262 CURVE SMOOTH",
"132 -183 OFFCURVE",
"198 -51 OFFCURVE",
"285 1 CURVE",
"243 36 LINE",
"218 1 LINE",
"119 -63 OFFCURVE",
"48 -191 OFFCURVE",
"48 -295 CURVE SMOOTH",
"48 -415 OFFCURVE",
"132 -476 OFFCURVE",
"205 -476 CURVE SMOOTH"
);
}
);
width = 421;
}
);
leftKerningGroup = i;
widthMetricsKey = i;
rightKerningGroup = i;
rightMetricsKey = i;
unicode = 012F;
category = Letter;
subCategory = Lowercase;
},
{
color = 8;
glyphname = jdotless;
lastChange = "2019-07-26 15:57:21 +0000";
layers = (
{
anchors = (
{
name = top;
position = "{270, 1111}";
}
);
layerId = "184155C8-9F61-4F1C-9784-DDA8EA717636";
paths = (
{
closed = 1;
nodes = (
"126 834 LINE",
"127 -7 LINE SMOOTH",
"127 -233 OFFCURVE",
"98 -331 OFFCURVE",
"11 -375 CURVE SMOOTH",
"-29 -395 OFFCURVE",
"-76 -399 OFFCURVE",
"-109 -399 CURVE",
"-94 -469 LINE",
"-76 -476 OFFCURVE",
"-28 -485 OFFCURVE",
"32 -485 CURVE SMOOTH",
"244 -485 OFFCURVE",
"458 -320 OFFCURVE",
"458 53 CURVE SMOOTH",
"457 990 LINE",
"413 1035 LINE",
"375 1035 LINE",
"15 920 LINE",
"15 881 LINE"
);
}
);
width = 580;
},
{
anchors = (
{
name = top;
position = "{240, 1110}";
}
);
layerId = "C9B9556E-C2FD-4F62-BB40-44923C452C22";
paths = (
{
closed = 1;
nodes = (
"164 896 LINE",
"164 71 LINE SMOOTH",
"164 -244 OFFCURVE",
"112 -341 OFFCURVE",
"38 -401 CURVE SMOOTH",
"6 -427 OFFCURVE",
"-52 -439 OFFCURVE",
"-68 -437 CURVE",
"-67 -478 LINE",
"-65 -479 OFFCURVE",
"-40 -479 OFFCURVE",
"-14 -479 CURVE SMOOTH",
"173 -479 OFFCURVE",
"302 -292 OFFCURVE",
"302 -61 CURVE SMOOTH",
"302 999 LINE",
"287 1010 LINE",
"240 1010 LINE",
"35 958 LINE",
"35 931 LINE"
);
}
);
width = 460;
}
);
leftKerningGroup = j;
widthMetricsKey = idotless;
rightKerningGroup = i;
unicode = 0237;
category = Letter;
subCategory = Lowercase;
},
{
color = 3;
glyphname = k;
lastChange = "2019-07-26 15:57:21 +0000";
layers = (
{
anchors = (
{
name = bottom;
position = "{659, 0}";
},
{
name = mark0;
position = "{660, -166}";
},
{
name = top;
position = "{678, 1548}";
}
);
layerId = "184155C8-9F61-4F1C-9784-DDA8EA717636";
paths = (
{
closed = 1;
nodes = (
"1 37 LINE",
"1 0 LINE",
"560 0 LINE",
"560 36 LINE",
"452 71 LINE",
"452 262 LINE",
"447 360 LINE",
"568 485 LINE",
"760 71 LINE",
"653 38 LINE",
"660 0 LINE",
"1242 0 LINE",
"1242 38 LINE",
"1145 71 LINE",
"793 734 LINE",
"973 935 LINE",
"1091 966 LINE",
"1091 1005 LINE",
"731 1005 LINE",
"731 966 LINE",
"852 934 LINE",
"449 464 LINE",
"452 660 LINE",
"452 1589 LINE",
"391 1634 LINE",
"354 1634 LINE",
"3 1519 LINE",
"3 1480 LINE",
"114 1433 LINE",
"114 71 LINE"
);
}
);
width = 1162;
},
{
anchors = (
{
name = bottom;
position = "{596, 0}";
},
{
name = mark0;
position = "{574, -166}";
},
{
name = top;
position = "{580, 1548}";
}
);
layerId = "C9B9556E-C2FD-4F62-BB40-44923C452C22";
paths = (
{
closed = 1;
nodes = (
"7 36 LINE",
"7 0 LINE",
"392 0 LINE",
"392 36 LINE",
"267 67 LINE",
"267 256 LINE",
"256 370 LINE",
"432 558 LINE",
"737 67 LINE",
"623 36 LINE",
"623 0 LINE",
"1024 0 LINE",
"1024 38 LINE",
"909 67 LINE",
"530 652 LINE",
"810 935 LINE",
"924 966 LINE",
"924 1005 LINE",
"582 1005 LINE",
"582 966 LINE",
"701 934 LINE",
"258 453 LINE",
"267 602 LINE",
"267 1625 LINE",
"253 1638 LINE",
"211 1638 LINE",
"-7 1606 LINE",
"-7 1579 LINE",
"128 1560 LINE",
"128 67 LINE"
);
}
);
width = 964;
}
);
leftKerningGroup = h;
leftMetricsKey = h;
rightKerningGroup = k;
unicode = 006B;
category = Letter;
subCategory = Lowercase;
},
{
color = 9;
glyphname = kgreenlandic;
lastChange = "2019-07-26 15:57:21 +0000";
layers = (
{
layerId = "184155C8-9F61-4F1C-9784-DDA8EA717636";
paths = (
{
closed = 1;
nodes = (
"12 37 LINE",
"12 0 LINE",
"571 0 LINE",
"571 35 LINE",
"463 71 LINE",
"463 271 LINE",
"458 361 LINE",
"579 485 LINE",
"771 71 LINE",
"667 38 LINE",
"667 0 LINE",
"1253 0 LINE",
"1253 38 LINE",
"1156 71 LINE",
"804 734 LINE",
"984 935 LINE",
"1102 966 LINE",
"1102 1005 LINE",
"742 1005 LINE",
"742 966 LINE",
"863 934 LINE",
"460 464 LINE",
"463 660 LINE",
"461 991 LINE",
"407 1035 LINE",
"365 1035 LINE",
"14 920 LINE",
"14 881 LINE",
"125 834 LINE",
"125 71 LINE"
);
}
);
width = 1173;
},
{
layerId = "C9B9556E-C2FD-4F62-BB40-44923C452C22";
paths = (
{
closed = 1;
nodes = (
"31 36 LINE",
"31 0 LINE",
"411 0 LINE",
"411 36 LINE",
"291 67 LINE",
"291 256 LINE",
"286 371 LINE",
"444 549 LINE",
"766 67 LINE",
"639 36 LINE",
"639 0 LINE",
"1036 0 LINE",
"1036 38 LINE",
"920 67 LINE",
"530 628 LINE",
"832 935 LINE",
"948 966 LINE",
"948 1005 LINE",
"606 1005 LINE",
"606 966 LINE",
"727 934 LINE",
"287 457 LINE",
"291 602 LINE",
"291 998 LINE",
"275 1010 LINE",
"219 1010 LINE",
"22 958 LINE",
"22 931 LINE",
"148 896 LINE",
"148 67 LINE"
);
}
);
width = 956;
}
);
leftKerningGroup = h;
leftMetricsKey = n;
rightKerningGroup = k;
unicode = 0138;
category = Letter;
subCategory = Lowercase;
},
{
color = 3;
glyphname = l;
lastChange = "2019-07-26 15:57:21 +0000";
layers = (
{
anchors = (
{
name = bottom;
position = "{300, 0}";
},
{
name = mark0;
position = "{285, -166}";
},
{
name = topright;
position = "{619, 1111}";
}
);
layerId = "184155C8-9F61-4F1C-9784-DDA8EA717636";
paths = (
{
closed = 1;
nodes = (
"0 37 LINE",
"0 0 LINE",
"558 0 LINE",
"558 37 LINE",
"444 72 LINE",
"444 1590 LINE",
"389 1634 LINE",
"353 1634 LINE",
"2 1519 LINE",
"2 1480 LINE",
"113 1433 LINE",
"113 73 LINE"
);
}
);
width = 568;
},
{
anchors = (
{
name = bottom;
position = "{238, 0}";
},
{
name = mark0;
position = "{273, -166}";
},
{
name = topright;
position = "{483, 1110}";
}
);
layerId = "C9B9556E-C2FD-4F62-BB40-44923C452C22";
paths = (
{
closed = 1;
nodes = (
"50 36 LINE",
"50 0 LINE",
"429 0 LINE",
"429 36 LINE",
"310 67 LINE",
"310 1625 LINE",
"296 1638 LINE",
"254 1638 LINE",
"36 1606 LINE",
"36 1579 LINE",
"171 1560 LINE",
"171 67 LINE"
);
}
);
width = 467;
}
);
leftKerningGroup = l;
rightKerningGroup = l;
unicode = 006C;
category = Letter;
subCategory = Lowercase;
},
{
color = 0;
glyphname = lacute;
lastChange = "2019-07-26 15:57:21 +0000";
layers = (
{
components = (
{
name = acutecomb.case;
transform = "{1, 0, 0, 1, 220, 0}";
}
);
layerId = "184155C8-9F61-4F1C-9784-DDA8EA717636";
paths = (
{
closed = 1;
nodes = (
"0 37 LINE",
"0 0 LINE",
"558 0 LINE",
"558 37 LINE",
"444 72 LINE",
"444 1496 LINE",
"389 1540 LINE",
"353 1540 LINE",
"2 1425 LINE",
"2 1386 LINE",
"113 1339 LINE",
"113 73 LINE"
);
}
);
width = 691;
},
{
layerId = "C9B9556E-C2FD-4F62-BB40-44923C452C22";
paths = (
{
closed = 1;
nodes = (
"604 0 LINE",
"604 84 LINE",
"416 98 LINE",
"416 1470 LINE",
"376 1498 LINE",
"84 1462 LINE",
"84 1390 LINE",
"254 1378 LINE",
"254 98 LINE",
"78 84 LINE",
"78 0 LINE"
);
},
{
closed = 1;
nodes = (
"326 1646 OFFCURVE",
"554 1770 OFFCURVE",
"622 1858 CURVE",
"510 1960 LINE",
"178 1660 LINE",
"234 1608 LINE"
);
}
);
width = 658;
}
);
leftKerningGroup = l;
rightKerningGroup = l;
unicode = 013A;
category = Letter;
subCategory = Lowercase;
},
{
color = 0;
glyphname = ldot;
lastChange = "2019-07-26 15:57:21 +0000";
layers = (
{
anchors = (
{
name = mark0;
position = "{297, -166}";
}
);
layerId = "184155C8-9F61-4F1C-9784-DDA8EA717636";
paths = (
{
closed = 1;
nodes = (
"13 132 LINE",
"13 0 LINE",
"595 0 LINE",
"595 132 LINE",
"465 150 LINE",
"465 1597 LINE",
"406 1639 LINE",
"401 1639 LINE",
"0 1592 LINE",
"0 1471 LINE",
"141 1444 LINE",
"141 151 LINE"
);
},
{
closed = 1;
nodes = (
"948 599 OFFCURVE",
"1034 664 OFFCURVE",
"1034 779 CURVE SMOOTH",
"1034 865 OFFCURVE",
"969 948 OFFCURVE",
"858 948 CURVE SMOOTH",
"747 948 OFFCURVE",
"657 874 OFFCURVE",
"657 765 CURVE SMOOTH",
"657 668 OFFCURVE",
"739 599 OFFCURVE",
"827 599 CURVE SMOOTH"
);
}
);
width = 1078;
},
{
anchors = (
{
name = mark0;
position = "{280, -166}";
}
);
layerId = "C9B9556E-C2FD-4F62-BB40-44923C452C22";
paths = (
{
closed = 1;
nodes = (
"20 86 LINE",
"20 0 LINE",
"546 0 LINE",
"546 86 LINE",
"358 100 LINE",
"358 1612 LINE",
"320 1638 LINE",
"318 1638 LINE",
"26 1604 LINE",
"26 1530 LINE",
"196 1512 LINE",
"196 102 LINE"
);
},
{
closed = 1;
nodes = (
"770 640 OFFCURVE",
"832 694 OFFCURVE",
"832 772 CURVE SMOOTH",
"832 830 OFFCURVE",
"800 884 OFFCURVE",
"724 884 CURVE SMOOTH",
"658 884 OFFCURVE",
"594 828 OFFCURVE",
"594 752 CURVE SMOOTH",
"594 684 OFFCURVE",
"644 640 OFFCURVE",
"704 640 CURVE SMOOTH"
);
}
);
width = 862;
}
);
leftKerningGroup = l;
leftMetricsKey = l;
rightKerningGroup = periodcentered;
unicode = 0140;
category = Letter;
subCategory = Lowercase;
},
{
color = 7;
glyphname = lslash;
lastChange = "2019-07-26 15:57:21 +0000";
layers = (
{
components = (
{
name = l;
transform = "{1, 0, 0, 1, 138, 0}";
}
);
layerId = "184155C8-9F61-4F1C-9784-DDA8EA717636";
paths = (
{
closed = 1;
nodes = (
"65 805 LINE",
"65 652 LINE",
"252 735 LINE",
"576 863 LINE",
"781 956 LINE",
"781 1119 LINE",
"576 1022 LINE",
"252 890 LINE"
);
}
);
width = 823;
},
{
components = (
{
name = l;
transform = "{1, 0, 0, 1, 138, 0}";
}
);
layerId = "C9B9556E-C2FD-4F62-BB40-44923C452C22";
paths = (
{
closed = 1;
nodes = (
"74 818 LINE",
"74 708 LINE",
"292 810 LINE",
"452 882 LINE",
"692 990 LINE",
"692 1110 LINE",
"452 998 LINE",
"292 924 LINE"
);
}
);
width = 746;
}
);
leftKerningGroup = lslash;
rightKerningGroup = lslash;
unicode = 0142;
category = Letter;
subCategory = Lowercase;
},
{
color = 11;
glyphname = m;
lastChange = "2019-07-26 15:57:21 +0000";
layers = (
{
anchors = (
{
name = bottom;
position = "{958, 0}";
},
{
name = mark0;
position = "{964, -166}";
},
{
name = top;
position = "{958, 1111}";
}
);
layerId = "184155C8-9F61-4F1C-9784-DDA8EA717636";
paths = (
{
closed = 1;
nodes = (
"572 0 LINE",
"572 38 LINE",
"463 72 LINE",
"463 812 LINE",
"497 836 OFFCURVE",
"560 863 OFFCURVE",
"634 863 CURVE SMOOTH",
"715 863 OFFCURVE",
"746 796 OFFCURVE",
"746 662 CURVE SMOOTH",
"746 72 LINE",
"667 38 LINE",
"667 0 LINE",
"1189 0 LINE",
"1189 38 LINE",
"1085 72 LINE",
"1085 697 LINE SMOOTH",
"1085 734 OFFCURVE",
"1078 785 OFFCURVE",
"1074 810 CURVE",
"1108 840 OFFCURVE",
"1176 863 OFFCURVE",
"1250 863 CURVE SMOOTH",
"1331 863 OFFCURVE",
"1362 796 OFFCURVE",
"1362 662 CURVE SMOOTH",
"1362 71 LINE",
"1283 38 LINE",
"1283 0 LINE",
"1805 0 LINE",
"1805 38 LINE",
"1701 71 LINE",
"1701 662 LINE SMOOTH",
"1701 941 OFFCURVE",
"1609 1039 OFFCURVE",
"1414 1039 CURVE SMOOTH",
"1256 1039 OFFCURVE",
"1141 946 OFFCURVE",
"1067 845 CURVE",
"1032 974 OFFCURVE",
"954 1039 OFFCURVE",
"798 1039 CURVE SMOOTH",
"640 1039 OFFCURVE",
"532 943 OFFCURVE",
"457 849 CURVE",
"461 917 LINE",
"461 991 LINE",
"406 1035 LINE",
"366 1035 LINE",
"14 920 LINE",
"14 881 LINE",
"125 834 LINE",
"125 72 LINE",
"12 38 LINE",
"12 0 LINE"
);
}
);
width = 1813;
},
{
anchors = (
{
name = bottom;
position = "{944, 0}";
},
{
name = mark0;
position = "{930, -166}";
},
{
name = top;
position = "{944, 1110}";
}
);
layerId = "C9B9556E-C2FD-4F62-BB40-44923C452C22";
paths = (
{
closed = 1;
nodes = (
"406 0 LINE",
"406 36 LINE",
"290 67 LINE",
"290 806 LINE",
"389 888 OFFCURVE",
"467 927 OFFCURVE",
"599 927 CURVE SMOOTH",
"763 927 OFFCURVE",
"778 797 OFFCURVE",
"778 616 CURVE SMOOTH",
"778 67 LINE",
"655 36 LINE",
"655 0 LINE",
"1035 0 LINE",
"1035 36 LINE",
"919 67 LINE",
"920 623 LINE SMOOTH",
"920 689 OFFCURVE",
"921 773 OFFCURVE",
"910 811 CURVE",
"1001 888 OFFCURVE",
"1078 927 OFFCURVE",
"1210 927 CURVE SMOOTH",
"1376 927 OFFCURVE",
"1395 797 OFFCURVE",
"1395 616 CURVE SMOOTH",
"1395 67 LINE",
"1272 36 LINE",
"1272 0 LINE",
"1653 0 LINE",
"1653 36 LINE",
"1537 67 LINE",
"1537 623 LINE SMOOTH",
"1537 850 OFFCURVE",
"1489 1023 OFFCURVE",
"1251 1023 CURVE SMOOTH",
"1080 1023 OFFCURVE",
"969 921 OFFCURVE",
"902 835 CURVE",
"863 960 OFFCURVE",
"783 1023 OFFCURVE",
"642 1023 CURVE SMOOTH",
"466 1023 OFFCURVE",
"357 921 OFFCURVE",
"290 835 CURVE",
"290 998 LINE",
"275 1010 LINE",
"219 1010 LINE",
"22 958 LINE",
"22 931 LINE",
"148 896 LINE",
"148 67 LINE",
"30 36 LINE",
"30 0 LINE"
);
}
);
width = 1673;
}
);
leftKerningGroup = n;
leftMetricsKey = n;
rightKerningGroup = n;
rightMetricsKey = n;
unicode = 006D;
category = Letter;
subCategory = Lowercase;
},
{
color = 11;
glyphname = n;
lastChange = "2019-07-26 15:57:21 +0000";
layers = (
{
anchors = (
{
name = bottom;
position = "{594, 0}";
},
{
name = mark0;
position = "{586, -166}";
},
{
name = top;
position = "{569, 1111}";
}
);
layerId = "184155C8-9F61-4F1C-9784-DDA8EA717636";
paths = (
{
closed = 1;
nodes = (
"12 38 LINE",
"12 0 LINE",
"571 0 LINE",
"571 38 LINE",
"463 72 LINE",
"463 812 LINE",
"497 836 OFFCURVE",
"560 863 OFFCURVE",
"634 863 CURVE SMOOTH",
"715 863 OFFCURVE",
"746 796 OFFCURVE",
"746 662 CURVE SMOOTH",
"746 72 LINE",
"667 38 LINE",
"667 0 LINE",
"1189 0 LINE",
"1189 38 LINE",
"1085 72 LINE",
"1085 662 LINE SMOOTH",
"1085 941 OFFCURVE",
"993 1039 OFFCURVE",
"798 1039 CURVE SMOOTH",
"645 1039 OFFCURVE",
"532 943 OFFCURVE",
"457 847 CURVE",
"461 917 LINE",
"461 991 LINE",
"406 1035 LINE",
"366 1035 LINE",
"14 920 LINE",
"14 881 LINE",
"125 834 LINE",
"125 72 LINE"
);
}
);
width = 1197;
},
{
anchors = (
{
name = bottom;
position = "{586, 0}";
},
{
name = mark0;
position = "{606, -166}";
},
{
name = top;
position = "{554, 1110}";
}
);
layerId = "C9B9556E-C2FD-4F62-BB40-44923C452C22";
paths = (
{
closed = 1;
nodes = (
"30 36 LINE",
"30 0 LINE",
"406 0 LINE",
"406 36 LINE",
"290 67 LINE",
"290 806 LINE",
"389 888 OFFCURVE",
"466 927 OFFCURVE",
"599 927 CURVE SMOOTH",
"763 927 OFFCURVE",
"783 797 OFFCURVE",
"783 616 CURVE SMOOTH",
"783 67 LINE",
"660 36 LINE",
"660 0 LINE",
"1040 0 LINE",
"1040 36 LINE",
"925 67 LINE",
"925 623 LINE SMOOTH",
"925 850 OFFCURVE",
"875 1023 OFFCURVE",
"642 1023 CURVE SMOOTH",
"466 1023 OFFCURVE",
"357 921 OFFCURVE",
"290 835 CURVE",
"290 917 LINE",
"290 998 LINE",
"274 1010 LINE",
"219 1010 LINE",
"22 958 LINE",
"22 931 LINE",
"148 896 LINE",
"148 67 LINE"
);
}
);
width = 1060;
}
);
leftKerningGroup = n;
rightKerningGroup = n;
unicode = 006E;
category = Letter;
subCategory = Lowercase;
},
{
color = 8;
glyphname = eng;
lastChange = "2019-07-26 15:57:21 +0000";
layers = (
{
layerId = "184155C8-9F61-4F1C-9784-DDA8EA717636";
paths = (
{
closed = 1;
nodes = (
"24 132 LINE",
"24 0 LINE",
"576 0 LINE",
"576 132 LINE",
"467 151 LINE",
"467 861 LINE",
"509 894 OFFCURVE",
"586 946 OFFCURVE",
"671 946 CURVE SMOOTH",
"791 946 OFFCURVE",
"824 879 OFFCURVE",
"824 702 CURVE SMOOTH",
"824 44 LINE SMOOTH",
"824 -153 OFFCURVE",
"814 -311 OFFCURVE",
"700 -358 CURVE",
"673 -371 OFFCURVE",
"614 -381 OFFCURVE",
"594 -379 CURVE",
"603 -513 LINE",
"614 -521 OFFCURVE",
"695 -523 OFFCURVE",
"711 -521 CURVE",
"1008 -514 OFFCURVE",
"1158 -310 OFFCURVE",
"1158 22 CURVE SMOOTH",
"1158 702 LINE SMOOTH",
"1158 1014 OFFCURVE",
"1073 1137 OFFCURVE",
"837 1137 CURVE SMOOTH",
"671 1137 OFFCURVE",
"521 1057 OFFCURVE",
"434 978 CURVE",
"436 1031 LINE",
"436 1097 LINE",
"383 1140 LINE",
"379 1140 LINE",
"12 1097 LINE",
"12 940 LINE",
"133 903 LINE",
"133 151 LINE"
);
}
);
width = 1309;
},
{
layerId = "C9B9556E-C2FD-4F62-BB40-44923C452C22";
paths = (
{
closed = 1;
nodes = (
"30 36 LINE",
"30 0 LINE",
"434 0 LINE",
"434 36 LINE",
"290 71 LINE",
"290 806 LINE",
"391 888 OFFCURVE",
"476 927 OFFCURVE",
"599 927 CURVE SMOOTH",
"772 927 OFFCURVE",
"784 806 OFFCURVE",
"784 616 CURVE SMOOTH",
"784 71 LINE SMOOTH",
"784 -260 OFFCURVE",
"732 -336 OFFCURVE",
"658 -396 CURVE",
"626 -422 OFFCURVE",
"568 -434 OFFCURVE",
"552 -432 CURVE",
"553 -478 LINE",
"580 -479 OFFCURVE",
"591 -479 OFFCURVE",
"606 -479 CURVE",
"813 -479 OFFCURVE",
"922 -292 OFFCURVE",
"922 -41 CURVE SMOOTH",
"922 616 LINE SMOOTH",
"922 840 OFFCURVE",
"875 1023 OFFCURVE",
"640 1023 CURVE SMOOTH",
"476 1023 OFFCURVE",
"359 921 OFFCURVE",
"290 835 CURVE",
"290 917 LINE",
"290 998 LINE",
"274 1010 LINE",
"219 1010 LINE",
"22 958 LINE",
"22 931 LINE",
"148 896 LINE",
"148 67 LINE"
);
}
);
width = 1047;
}
);
leftKerningGroup = n;
leftMetricsKey = n;
rightKerningGroup = n;
unicode = 014B;
category = Letter;
subCategory = Lowercase;
},
{
color = 3;
glyphname = o;
lastChange = "2019-07-26 15:57:21 +0000";
layers = (
{
anchors = (
{
name = bottom;
position = "{555, 0}";
},
{
name = center;
position = "{555, 503}";
},
{
name = ogonek;
position = "{993, 10}";
},
{
name = top;
position = "{555, 1110}";
},
{
name = topright;
position = "{1083, 1005}";
}
);
layerId = "184155C8-9F61-4F1C-9784-DDA8EA717636";
paths = (
{
closed = 1;
nodes = (
"31 150 OFFCURVE",
"210 -24 OFFCURVE",
"531 -24 CURVE SMOOTH",
"815 -24 OFFCURVE",
"1078 131 OFFCURVE",
"1078 515 CURVE SMOOTH",
"1078 860 OFFCURVE",
"900 1039 OFFCURVE",
"578 1039 CURVE SMOOTH",
"295 1039 OFFCURVE",
"31 869 OFFCURVE",
"31 498 CURVE SMOOTH"
);
},
{
closed = 1;
nodes = (
"444 32 OFFCURVE",
"413 193 OFFCURVE",
"413 522 CURVE SMOOTH",
"413 835 OFFCURVE",
"457 983 OFFCURVE",
"559 983 CURVE SMOOTH",
"674 983 OFFCURVE",
"698 809 OFFCURVE",
"698 489 CURVE SMOOTH",
"698 168 OFFCURVE",
"660 32 OFFCURVE",
"558 32 CURVE SMOOTH"
);
}
);
width = 1109;
},
{
anchors = (
{
name = bottom;
position = "{497, 0}";
},
{
name = center;
position = "{497, 506}";
},
{
name = ogonek;
position = "{645, 60}";
},
{
name = top;
position = "{497, 1110}";
},
{
name = topright;
position = "{1051, 1110}";
}
);
layerId = "C9B9556E-C2FD-4F62-BB40-44923C452C22";
paths = (
{
closed = 1;
nodes = (
"52 230 OFFCURVE",
"165 -22 OFFCURVE",
"481 -22 CURVE SMOOTH",
"704 -22 OFFCURVE",
"937 178 OFFCURVE",
"937 526 CURVE SMOOTH",
"937 789 OFFCURVE",
"827 1039 OFFCURVE",
"511 1039 CURVE SMOOTH",
"288 1039 OFFCURVE",
"52 840 OFFCURVE",
"52 493 CURVE SMOOTH"
);
},
{
closed = 1;
nodes = (
"293 28 OFFCURVE",
"212 278 OFFCURVE",
"212 515 CURVE SMOOTH",
"212 826 OFFCURVE",
"320 989 OFFCURVE",
"497 989 CURVE SMOOTH",
"699 989 OFFCURVE",
"777 737 OFFCURVE",
"777 504 CURVE SMOOTH",
"777 194 OFFCURVE",
"670 28 OFFCURVE",
"495 28 CURVE SMOOTH"
);
}
);
width = 989;
}
);
leftKerningGroup = o;
rightKerningGroup = o;
unicode = 006F;
category = Letter;
subCategory = Lowercase;
},
{
color = 0;
glyphname = ohorn;
lastChange = "2019-07-26 15:57:21 +0000";
layers = (
{
anchors = (
{
name = _topright;
position = "{1004, 1111}";
},
{
name = bottom;
position = "{574, 0}";
},
{
name = center;
position = "{574, 556}";
},
{
name = mark0;
position = "{555, -166}";
},
{
name = ogonek;
position = "{1064, 20}";
},
{
name = top;
position = "{587, 1111}";
},
{
name = topright;
position = "{1004, 1111}";
}
);
layerId = "184155C8-9F61-4F1C-9784-DDA8EA717636";
paths = (
{
closed = 1;
nodes = (
"22 187 OFFCURVE",
"229 -22 OFFCURVE",
"559 -22 CURVE SMOOTH",
"861 -22 OFFCURVE",
"1125 157 OFFCURVE",
"1125 568 CURVE SMOOTH",
"1125 747 OFFCURVE",
"1076 890 OFFCURVE",
"984 988 CURVE",
"1141 1016 OFFCURVE",
"1284 1129 OFFCURVE",
"1284 1359 CURVE SMOOTH",
"1284 1373 OFFCURVE",
"1282 1388 OFFCURVE",
"1279 1401 CURVE",
"1054 1401 LINE",
"1058 1389 OFFCURVE",
"1061 1374 OFFCURVE",
"1061 1350 CURVE SMOOTH",
"1061 1272 OFFCURVE",
"1037 1099 OFFCURVE",
"824 1094 CURVE",
"753 1123 OFFCURVE",
"673 1140 OFFCURVE",
"587 1140 CURVE SMOOTH",
"286 1140 OFFCURVE",
"22 950 OFFCURVE",
"22 550 CURVE SMOOTH"
);
},
{
closed = 1;
nodes = (
"376 871 OFFCURVE",
"446 1001 OFFCURVE",
"573 1001 CURVE SMOOTH",
"717 1001 OFFCURVE",
"769 846 OFFCURVE",
"769 544 CURVE SMOOTH",
"769 247 OFFCURVE",
"705 117 OFFCURVE",
"578 117 CURVE SMOOTH",
"435 117 OFFCURVE",
"376 271 OFFCURVE",
"376 574 CURVE SMOOTH"
);
}
);
width = 1195;
},
{
anchors = (
{
name = _topright;
position = "{1110, 1110}";
},
{
name = bottom;
position = "{556, 0}";
},
{
name = center;
position = "{556, 556}";
},
{
name = mark0;
position = "{546, -166}";
},
{
name = ogonek;
position = "{1030, 20}";
},
{
name = top;
position = "{564, 1110}";
},
{
name = topright;
position = "{1110, 1110}";
}
);
layerId = "C9B9556E-C2FD-4F62-BB40-44923C452C22";
paths = (
{
closed = 1;
nodes = (
"50 248 OFFCURVE",
"186 -22 OFFCURVE",
"544 -22 CURVE SMOOTH",
"800 -22 OFFCURVE",
"1058 192 OFFCURVE",
"1058 556 CURVE SMOOTH",
"1058 726 OFFCURVE",
"1018 884 OFFCURVE",
"924 992 CURVE",
"1076 1040 OFFCURVE",
"1164 1144 OFFCURVE",
"1164 1288 CURVE SMOOTH",
"1164 1302 OFFCURVE",
"1162 1316 OFFCURVE",
"1160 1332 CURVE",
"1008 1332 LINE",
"1010 1324 OFFCURVE",
"1010 1312 OFFCURVE",
"1010 1298 CURVE SMOOTH",
"1010 1222 OFFCURVE",
"1006 1102 OFFCURVE",
"838 1064 CURVE",
"754 1110 OFFCURVE",
"662 1140 OFFCURVE",
"564 1140 CURVE SMOOTH",
"308 1140 OFFCURVE",
"50 926 OFFCURVE",
"50 562 CURVE SMOOTH"
);
},
{
closed = 1;
nodes = (
"232 880 OFFCURVE",
"352 1036 OFFCURVE",
"556 1036 CURVE SMOOTH",
"790 1036 OFFCURVE",
"876 808 OFFCURVE",
"876 544 CURVE SMOOTH",
"876 240 OFFCURVE",
"756 82 OFFCURVE",
"554 82 CURVE SMOOTH",
"322 82 OFFCURVE",
"232 306 OFFCURVE",
"232 574 CURVE SMOOTH"
);
}
);
width = 1164;
}
);
leftKerningGroup = o;
leftMetricsKey = o;
rightKerningGroup = o;
unicode = 01A1;
category = Letter;
subCategory = Lowercase;
},
{
color = 0;
glyphname = oslash;
lastChange = "2019-07-26 15:57:21 +0000";
layers = (
{
components = (
{
name = o;
}
);
layerId = "184155C8-9F61-4F1C-9784-DDA8EA717636";
paths = (
{
closed = 1;
nodes = (
"380 -227 LINE",
"463 -14 LINE",
"455 38 LINE",
"726 866 LINE",
"813 975 LINE",
"898 1209 LINE",
"745 1255 LINE",
"664 1026 LINE",
"668 968 LINE",
"394 138 LINE",
"310 33 LINE",
"232 -179 LINE"
);
}
);
width = 1109;
},
{
components = (
{
name = o;
}
);
layerId = "C9B9556E-C2FD-4F62-BB40-44923C452C22";
paths = (
{
closed = 1;
nodes = (
"158 -114 LINE",
"267 53 LINE",
"293 97 LINE",
"740 883 LINE",
"778 931 LINE",
"879 1089 LINE",
"822 1124 LINE",
"721 966 LINE",
"707 943 LINE",
"249 140 LINE",
"211 89 LINE",
"102 -77 LINE"
);
}
);
width = 989;
}
);
leftKerningGroup = o;
leftMetricsKey = o;
rightKerningGroup = o;
rightMetricsKey = o;
unicode = 00F8;
category = Letter;
subCategory = Lowercase;
},
{
glyphname = oe;
lastChange = "2019-07-26 15:57:21 +0000";
layers = (
{
anchors = (
{
name = mark0;
position = "{1040, -166}";
}
);
layerId = "184155C8-9F61-4F1C-9784-DDA8EA717636";
paths = (
{
closed = 1;
nodes = (
"31 150 OFFCURVE",
"210 -24 OFFCURVE",
"531 -24 CURVE SMOOTH",
"815 -24 OFFCURVE",
"1068 131 OFFCURVE",
"1068 515 CURVE SMOOTH",
"1068 860 OFFCURVE",
"900 1039 OFFCURVE",
"578 1039 CURVE SMOOTH",
"295 1039 OFFCURVE",
"31 869 OFFCURVE",
"31 498 CURVE SMOOTH"
);
},
{
closed = 1;
nodes = (
"444 32 OFFCURVE",
"413 193 OFFCURVE",
"413 522 CURVE SMOOTH",
"413 835 OFFCURVE",
"457 983 OFFCURVE",
"559 983 CURVE SMOOTH",
"674 983 OFFCURVE",
"698 809 OFFCURVE",
"698 489 CURVE SMOOTH",
"698 168 OFFCURVE",
"660 32 OFFCURVE",
"558 32 CURVE SMOOTH"
);
},
{
closed = 1;
nodes = (
"1408 -24 OFFCURVE",
"1575 65 OFFCURVE",
"1630 126 CURVE",
"1604 182 LINE",
"1548 139 OFFCURVE",
"1440 116 OFFCURVE",
"1369 116 CURVE SMOOTH",
"1198 116 OFFCURVE",
"1106 225 OFFCURVE",
"1096 502 CURVE",
"1645 502 LINE",
"1655 527 OFFCURVE",
"1661 584 OFFCURVE",
"1661 675 CURVE",
"1657 913 OFFCURVE",
"1504 1042 OFFCURVE",
"1246 1042 CURVE SMOOTH",
"943 1042 OFFCURVE",
"745 828 OFFCURVE",
"745 485 CURVE SMOOTH",
"745 172 OFFCURVE",
"885 -24 OFFCURVE",
"1235 -24 CURVE SMOOTH"
);
},
{
closed = 1;
nodes = (
"1104 902 OFFCURVE",
"1159 986 OFFCURVE",
"1226 986 CURVE SMOOTH",
"1301 986 OFFCURVE",
"1313 888 OFFCURVE",
"1313 689 CURVE SMOOTH",
"1313 663 OFFCURVE",
"1311 595 OFFCURVE",
"1311 569 CURVE",
"1094 556 LINE"
);
}
);
width = 1681;
},
{
anchors = (
{
name = mark0;
position = "{1016, -166}";
}
);
layerId = "C9B9556E-C2FD-4F62-BB40-44923C452C22";
paths = (
{
closed = 1;
nodes = (
"1352 -22 OFFCURVE",
"1477 34 OFFCURVE",
"1549 104 CURVE",
"1528 144 LINE",
"1469 95 OFFCURVE",
"1359 45 OFFCURVE",
"1244 45 CURVE SMOOTH",
"1018 45 OFFCURVE",
"942 292 OFFCURVE",
"942 519 CURVE",
"1582 519 LINE",
"1588 552 OFFCURVE",
"1593 589 OFFCURVE",
"1592 668 CURVE SMOOTH",
"1589 907 OFFCURVE",
"1446 1039 OFFCURVE",
"1223 1039 CURVE SMOOTH",
"1015 1039 OFFCURVE",
"789 841 OFFCURVE",
"789 485 CURVE SMOOTH",
"789 171 OFFCURVE",
"948 -22 OFFCURVE",
"1226 -22 CURVE SMOOTH"
);
},
{
closed = 1;
nodes = (
"943 761 OFFCURVE",
"1024 989 OFFCURVE",
"1228 989 CURVE SMOOTH",
"1379 989 OFFCURVE",
"1445 867 OFFCURVE",
"1445 666 CURVE SMOOTH",
"1445 638 OFFCURVE",
"1445 611 OFFCURVE",
"1440 581 CURVE",
"943 563 LINE"
);
},
{
closed = 1;
nodes = (
"52 230 OFFCURVE",
"165 -22 OFFCURVE",
"481 -22 CURVE SMOOTH",
"704 -22 OFFCURVE",
"927 178 OFFCURVE",
"927 526 CURVE SMOOTH",
"927 789 OFFCURVE",
"827 1039 OFFCURVE",
"511 1039 CURVE SMOOTH",
"288 1039 OFFCURVE",
"52 840 OFFCURVE",
"52 493 CURVE SMOOTH"
);
},
{
closed = 1;
nodes = (
"293 28 OFFCURVE",
"212 278 OFFCURVE",
"212 515 CURVE SMOOTH",
"212 826 OFFCURVE",
"320 989 OFFCURVE",
"497 989 CURVE SMOOTH",
"699 989 OFFCURVE",
"777 737 OFFCURVE",
"777 504 CURVE SMOOTH",
"777 194 OFFCURVE",
"670 28 OFFCURVE",
"495 28 CURVE SMOOTH"
);
}
);
width = 1628;
}
);
leftKerningGroup = o;
leftMetricsKey = o;
rightKerningGroup = e;
rightMetricsKey = e;
unicode = 0153;
category = Letter;
subCategory = Lowercase;
},
{
color = 3;
glyphname = p;
lastChange = "2019-07-26 15:57:21 +0000";
layers = (
{
anchors = (
{
name = mark0;
position = "{590, -166}";
},
{
name = top;
position = "{648, 1112}";
}
);
layerId = "184155C8-9F61-4F1C-9784-DDA8EA717636";
paths = (
{
closed = 1;
nodes = (
"1111 860 OFFCURVE",
"986 1044 OFFCURVE",
"726 1044 CURVE SMOOTH",
"595 1044 OFFCURVE",
"475 949 OFFCURVE",
"456 893 CURVE",
"461 991 LINE",
"406 1035 LINE",
"366 1035 LINE",
"14 920 LINE",
"14 881 LINE",
"125 834 LINE",
"126 -394 LINE",
"12 -428 LINE",
"12 -466 LINE",
"571 -466 LINE",
"571 -428 LINE",
"456 -394 LINE",
"456 -164 LINE",
"456 -2 LINE",
"482 -12 OFFCURVE",
"552 -22 OFFCURVE",
"622 -22 CURVE SMOOTH",
"873 -22 OFFCURVE",
"1111 179 OFFCURVE",
"1111 524 CURVE SMOOTH"
);
},
{
closed = 1;
nodes = (
"668 909 OFFCURVE",
"750 824 OFFCURVE",
"750 472 CURVE",
"750 200 OFFCURVE",
"709 37 OFFCURVE",
"593 37 CURVE SMOOTH",
"543 37 OFFCURVE",
"479 63 OFFCURVE",
"456 113 CURVE",
"456 837 LINE",
"470 854 OFFCURVE",
"496 909 OFFCURVE",
"579 909 CURVE SMOOTH"
);
}
);
width = 1142;
},
{
anchors = (
{
name = mark0;
position = "{566, -166}";
},
{
name = top;
position = "{544, 1110}";
}
);
layerId = "C9B9556E-C2FD-4F62-BB40-44923C452C22";
paths = (
{
closed = 1;
nodes = (
"992 856 OFFCURVE",
"851 1038 OFFCURVE",
"605 1038 CURVE SMOOTH",
"430 1038 OFFCURVE",
"319 918 OFFCURVE",
"286 864 CURVE",
"286 997 LINE",
"269 1010 LINE",
"222 1010 LINE",
"22 958 LINE",
"22 931 LINE",
"149 896 LINE",
"149 -375 LINE",
"30 -406 LINE",
"30 -442 LINE",
"451 -442 LINE",
"451 -406 LINE",
"288 -376 LINE",
"288 -161 LINE",
"284 18 LINE",
"319 0 OFFCURVE",
"407 -22 OFFCURVE",
"509 -22 CURVE SMOOTH",
"778 -22 OFFCURVE",
"992 218 OFFCURVE",
"992 535 CURVE SMOOTH"
);
},
{
closed = 1;
nodes = (
"716 970 OFFCURVE",
"825 829 OFFCURVE",
"825 531 CURVE",
"825 204 OFFCURVE",
"711 28 OFFCURVE",
"496 28 CURVE SMOOTH",
"383 28 OFFCURVE",
"316 82 OFFCURVE",
"288 116 CURVE",
"288 830 LINE",
"333 880 OFFCURVE",
"434 970 OFFCURVE",
"567 970 CURVE SMOOTH"
);
}
);
width = 1044;
}
);
leftKerningGroup = n;
leftMetricsKey = n;
rightKerningGroup = b;
rightMetricsKey = o;
unicode = 0070;
category = Letter;
subCategory = Lowercase;
},
{
color = 3;
glyphname = thorn;
lastChange = "2019-07-26 15:57:21 +0000";
layers = (
{
layerId = "184155C8-9F61-4F1C-9784-DDA8EA717636";
paths = (
{
closed = 1;
nodes = (
"549 -466 LINE",
"549 -428 LINE",
"434 -394 LINE",
"434 -164 LINE",
"434 -2 LINE",
"460 -12 OFFCURVE",
"530 -22 OFFCURVE",
"600 -22 CURVE SMOOTH",
"851 -22 OFFCURVE",
"1089 179 OFFCURVE",
"1089 524 CURVE SMOOTH",
"1089 860 OFFCURVE",
"964 1044 OFFCURVE",
"704 1044 CURVE SMOOTH",
"573 1044 OFFCURVE",
"453 949 OFFCURVE",
"434 893 CURVE",
"439 1595 LINE",
"384 1639 LINE",
"344 1639 LINE",
"-8 1524 LINE",
"-8 1485 LINE",
"103 1438 LINE",
"104 -394 LINE",
"-10 -428 LINE",
"-10 -466 LINE"
);
},
{
closed = 1;
nodes = (
"521 37 OFFCURVE",
"457 63 OFFCURVE",
"434 113 CURVE",
"434 837 LINE",
"448 854 OFFCURVE",
"474 909 OFFCURVE",
"557 909 CURVE SMOOTH",
"646 909 OFFCURVE",
"728 824 OFFCURVE",
"728 472 CURVE",
"728 200 OFFCURVE",
"687 37 OFFCURVE",
"571 37 CURVE SMOOTH"
);
}
);
width = 1120;
},
{
layerId = "C9B9556E-C2FD-4F62-BB40-44923C452C22";
paths = (
{
closed = 1;
nodes = (
"406 -442 LINE",
"406 -406 LINE",
"255 -376 LINE",
"255 -160 LINE",
"247 36 LINE",
"284 11 OFFCURVE",
"379 -22 OFFCURVE",
"482 -22 CURVE SMOOTH",
"750 -22 OFFCURVE",
"958 210 OFFCURVE",
"958 534 CURVE SMOOTH",
"958 869 OFFCURVE",
"797 1038 OFFCURVE",
"555 1038 CURVE SMOOTH",
"390 1038 OFFCURVE",
"286 941 OFFCURVE",
"255 889 CURVE",
"255 1625 LINE",
"241 1638 LINE",
"200 1638 LINE",
"-17 1606 LINE",
"-17 1579 LINE",
"118 1560 LINE",
"118 -375 LINE",
"0 -406 LINE",
"0 -442 LINE"
);
},
{
closed = 1;
nodes = (
"343 28 OFFCURVE",
"284 81 OFFCURVE",
"255 127 CURVE",
"255 830 LINE",
"299 880 OFFCURVE",
"362 972 OFFCURVE",
"508 972 CURVE SMOOTH",
"697 972 OFFCURVE",
"796 801 OFFCURVE",
"796 520 CURVE SMOOTH",
"796 204 OFFCURVE",
"670 28 OFFCURVE",
"456 28 CURVE SMOOTH"
);
}
);
width = 1010;
}
);
leftKerningGroup = b;
leftMetricsKey = b;
rightKerningGroup = b;
rightMetricsKey = p;
unicode = 00FE;
category = Letter;
subCategory = Lowercase;
},
{
color = 3;
glyphname = q;
lastChange = "2019-07-26 15:57:21 +0000";
layers = (
{
layerId = "184155C8-9F61-4F1C-9784-DDA8EA717636";
paths = (
{
closed = 1;
nodes = (
"1133 -466 LINE",
"1133 -427 LINE",
"1038 -394 LINE",
"1038 1002 LINE",
"988 1035 LINE",
"949 1035 LINE",
"796 985 LINE",
"746 1000 OFFCURVE",
"675 1042 OFFCURVE",
"545 1042 CURVE SMOOTH",
"280 1042 OFFCURVE",
"40 880 OFFCURVE",
"40 496 CURVE SMOOTH",
"40 142 OFFCURVE",
"235 -23 OFFCURVE",
"430 -23 CURVE SMOOTH",
"575 -23 OFFCURVE",
"679 60 OFFCURVE",
"710 127 CURVE",
"708 -46 LINE",
"708 -394 LINE",
"575 -427 LINE",
"575 -466 LINE"
);
},
{
closed = 1;
nodes = (
"494 114 OFFCURVE",
"413 199 OFFCURVE",
"413 541 CURVE SMOOTH",
"413 816 OFFCURVE",
"455 979 OFFCURVE",
"588 979 CURVE SMOOTH",
"640 979 OFFCURVE",
"682 952 OFFCURVE",
"707 902 CURVE",
"707 186 LINE",
"687 148 OFFCURVE",
"645 114 OFFCURVE",
"584 114 CURVE SMOOTH"
);
}
);
width = 1217;
},
{
layerId = "C9B9556E-C2FD-4F62-BB40-44923C452C22";
paths = (
{
closed = 1;
nodes = (
"1020 -442 LINE",
"1020 -405 LINE",
"888 -375 LINE",
"888 1005 LINE",
"858 1023 LINE",
"848 1023 LINE",
"782 965 LINE",
"713 1008 OFFCURVE",
"644 1038 OFFCURVE",
"529 1038 CURVE SMOOTH",
"260 1038 OFFCURVE",
"46 797 OFFCURVE",
"46 469 CURVE SMOOTH",
"46 159 OFFCURVE",
"187 -22 OFFCURVE",
"435 -22 CURVE SMOOTH",
"611 -22 OFFCURVE",
"718 100 OFFCURVE",
"749 152 CURVE",
"749 -46 LINE",
"749 -375 LINE",
"587 -405 LINE",
"587 -442 LINE"
);
},
{
closed = 1;
nodes = (
"325 46 OFFCURVE",
"213 188 OFFCURVE",
"213 484 CURVE SMOOTH",
"213 812 OFFCURVE",
"327 988 OFFCURVE",
"542 988 CURVE SMOOTH",
"654 988 OFFCURVE",
"720 937 OFFCURVE",
"749 901 CURVE",
"749 185 LINE",
"704 136 OFFCURVE",
"604 46 OFFCURVE",
"472 46 CURVE SMOOTH"
);
}
);
width = 980;
}
);
leftKerningGroup = d;
leftMetricsKey = d;
rightKerningGroup = q;
unicode = 0071;
category = Letter;
subCategory = Lowercase;
},
{
color = 8;
glyphname = r;
lastChange = "2019-07-26 15:57:21 +0000";
layers = (
{
anchors = (
{
name = bottom;
position = "{306, 0}";
},
{
name = mark0;
position = "{309, -176}";
},
{
name = top;
position = "{451, 1111}";
}
);
layerId = "184155C8-9F61-4F1C-9784-DDA8EA717636";
paths = (
{
closed = 1;
nodes = (
"611 0 LINE",
"611 38 LINE",
"463 73 LINE",
"462 699 LINE",
"507 746 OFFCURVE",
"568 759 OFFCURVE",
"642 759 CURVE SMOOTH",
"705 759 OFFCURVE",
"752 730 OFFCURVE",
"769 714 CURVE",
"769 1020 LINE",
"757 1027 OFFCURVE",
"740 1032 OFFCURVE",
"711 1032 CURVE SMOOTH",
"566 1032 OFFCURVE",
"467 809 OFFCURVE",
"458 757 CURVE",
"451 757 LINE",
"456 945 LINE",
"456 993 LINE",
"399 1035 LINE",
"359 1035 LINE",
"15 920 LINE",
"15 880 LINE",
"125 834 LINE",
"125 72 LINE",
"12 38 LINE",
"12 0 LINE"
);
}
);
width = 799;
},
{
anchors = (
{
name = bottom;
position = "{276, 0}";
},
{
name = mark0;
position = "{276, -166}";
},
{
name = top;
position = "{434, 1110}";
}
);
layerId = "C9B9556E-C2FD-4F62-BB40-44923C452C22";
paths = (
{
closed = 1;
nodes = (
"426 0 LINE",
"426 36 LINE",
"288 67 LINE",
"288 731 LINE",
"350 856 OFFCURVE",
"465 901 OFFCURVE",
"571 901 CURVE SMOOTH",
"588 901 OFFCURVE",
"600 898 OFFCURVE",
"611 893 CURVE",
"611 1018 LINE",
"600 1022 OFFCURVE",
"585 1025 OFFCURVE",
"561 1025 CURVE SMOOTH",
"427 1025 OFFCURVE",
"304 888 OFFCURVE",
"286 774 CURVE",
"283 774 LINE",
"288 916 LINE",
"289 998 LINE",
"274 1010 LINE",
"217 1010 LINE",
"22 958 LINE",
"22 931 LINE",
"148 896 LINE",
"148 67 LINE",
"30 36 LINE",
"30 0 LINE"
);
}
);
width = 651;
}
);
leftKerningGroup = n;
leftMetricsKey = n;
rightKerningGroup = r;
unicode = 0072;
category = Letter;
subCategory = Lowercase;
},
{
color = 3;
glyphname = s;
lastChange = "2019-07-26 15:57:21 +0000";
layers = (
{
anchors = (
{
name = bottom;
position = "{418, -9}";
},
{
name = mark0;
position = "{434, -176}";
},
{
name = top;
position = "{432, 1111}";
}
);
layerId = "184155C8-9F61-4F1C-9784-DDA8EA717636";
paths = (
{
closed = 1;
nodes = (
"49 308 LINE",
"40 41 LINE",
"104 40 OFFCURVE",
"253 -25 OFFCURVE",
"416 -25 CURVE SMOOTH",
"757 -25 OFFCURVE",
"871 116 OFFCURVE",
"871 317 CURVE SMOOTH",
"871 471 OFFCURVE",
"728 560 OFFCURVE",
"572 634 CURVE SMOOTH",
"440 697 OFFCURVE",
"312 738 OFFCURVE",
"312 849 CURVE SMOOTH",
"312 927 OFFCURVE",
"354 986 OFFCURVE",
"463 986 CURVE SMOOTH",
"545 986 OFFCURVE",
"623 928 OFFCURVE",
"636 847 CURVE",
"662 713 LINE",
"815 713 LINE",
"826 980 LINE",
"763 987 OFFCURVE",
"666 1039 OFFCURVE",
"480 1039 CURVE SMOOTH",
"204 1039 OFFCURVE",
"39 909 OFFCURVE",
"39 736 CURVE SMOOTH",
"39 526 OFFCURVE",
"201 430 OFFCURVE",
"348 364 CURVE SMOOTH",
"522 286 OFFCURVE",
"616 240 OFFCURVE",
"616 159 CURVE SMOOTH",
"616 98 OFFCURVE",
"572 31 OFFCURVE",
"442 31 CURVE SMOOTH",
"361 31 OFFCURVE",
"265 91 OFFCURVE",
"247 195 CURVE",
"227 308 LINE"
);
}
);
width = 907;
},
{
anchors = (
{
name = bottom;
position = "{381, 0}";
},
{
name = mark0;
position = "{393, -166}";
},
{
name = top;
position = "{401, 1110}";
}
);
layerId = "C9B9556E-C2FD-4F62-BB40-44923C452C22";
paths = (
{
closed = 1;
nodes = (
"60 288 LINE",
"60 55 LINE",
"101 48 OFFCURVE",
"208 -22 OFFCURVE",
"357 -22 CURVE SMOOTH",
"584 -22 OFFCURVE",
"725 87 OFFCURVE",
"725 271 CURVE SMOOTH",
"725 455 OFFCURVE",
"567 528 OFFCURVE",
"399 599 CURVE SMOOTH",
"278 650 OFFCURVE",
"186 718 OFFCURVE",
"186 820 CURVE SMOOTH",
"186 940 OFFCURVE",
"276 987 OFFCURVE",
"392 987 CURVE SMOOTH",
"505 987 OFFCURVE",
"542 945 OFFCURVE",
"558 913 CURVE",
"610 761 LINE",
"670 761 LINE",
"670 980 LINE",
"636 989 OFFCURVE",
"562 1037 OFFCURVE",
"402 1037 CURVE SMOOTH",
"235 1037 OFFCURVE",
"84 934 OFFCURVE",
"84 756 CURVE SMOOTH",
"84 611 OFFCURVE",
"167 531 OFFCURVE",
"351 451 CURVE SMOOTH",
"534 371 OFFCURVE",
"622 304 OFFCURVE",
"622 205 CURVE SMOOTH",
"622 78 OFFCURVE",
"540 28 OFFCURVE",
"376 28 CURVE SMOOTH",
"289 28 OFFCURVE",
"188 98 OFFCURVE",
"181 132 CURVE",
"131 288 LINE"
);
}
);
width = 783;
}
);
leftKerningGroup = s;
rightKerningGroup = s;
unicode = 0073;
category = Letter;
subCategory = Lowercase;
},
{
color = 11;
glyphname = germandbls;
lastChange = "2019-07-26 15:57:21 +0000";
layers = (
{
layerId = "184155C8-9F61-4F1C-9784-DDA8EA717636";
paths = (
{
closed = 1;
nodes = (
"12 38 LINE",
"12 0 LINE",
"444 0 LINE",
"444 986 LINE SMOOTH",
"444 1312 OFFCURVE",
"487 1501 OFFCURVE",
"634 1501 CURVE SMOOTH",
"710 1501 OFFCURVE",
"752 1431 OFFCURVE",
"754 1315 CURVE SMOOTH",
"762 899 OFFCURVE",
"586 938 OFFCURVE",
"586 783 CURVE SMOOTH",
"586 660 OFFCURVE",
"798 622 OFFCURVE",
"798 303 CURVE SMOOTH",
"798 213 OFFCURVE",
"796 38 OFFCURVE",
"643 38 CURVE SMOOTH",
"580 38 OFFCURVE",
"553 55 OFFCURVE",
"521 71 CURVE",
"521 0 LINE",
"546 -11 OFFCURVE",
"591 -22 OFFCURVE",
"659 -22 CURVE SMOOTH",
"989 -22 OFFCURVE",
"1152 135 OFFCURVE",
"1152 347 CURVE SMOOTH",
"1152 752 OFFCURVE",
"676 696 OFFCURVE",
"676 818 CURVE SMOOTH",
"676 902 OFFCURVE",
"1055 998 OFFCURVE",
"1055 1299 CURVE SMOOTH",
"1055 1448 OFFCURVE",
"923 1549 OFFCURVE",
"657 1549 CURVE SMOOTH",
"310 1549 OFFCURVE",
"117 1286 OFFCURVE",
"117 925 CURVE SMOOTH",
"117 71 LINE"
);
}
);
width = 1177;
},
{
layerId = "C9B9556E-C2FD-4F62-BB40-44923C452C22";
paths = (
{
closed = 1;
nodes = (
"12 38 LINE",
"12 0 LINE",
"295 0 LINE",
"295 936 LINE SMOOTH",
"295 1249 OFFCURVE",
"388 1502 OFFCURVE",
"600 1502 CURVE SMOOTH",
"720 1502 OFFCURVE",
"796 1415 OFFCURVE",
"796 1261 CURVE SMOOTH",
"796 1002 OFFCURVE",
"586 893 OFFCURVE",
"586 783 CURVE SMOOTH",
"586 589 OFFCURVE",
"858 521 OFFCURVE",
"858 310 CURVE SMOOTH",
"858 153 OFFCURVE",
"821 36 OFFCURVE",
"631 36 CURVE SMOOTH",
"526 36 OFFCURVE",
"459 71 OFFCURVE",
"406 96 CURVE",
"406 0 LINE",
"444 -10 OFFCURVE",
"520 -22 OFFCURVE",
"574 -22 CURVE SMOOTH",
"818 -22 OFFCURVE",
"1012 88 OFFCURVE",
"1012 322 CURVE SMOOTH",
"1012 586 OFFCURVE",
"676 644 OFFCURVE",
"676 818 CURVE SMOOTH",
"676 931 OFFCURVE",
"934 1024 OFFCURVE",
"934 1269 CURVE SMOOTH",
"934 1464 OFFCURVE",
"796 1548 OFFCURVE",
"615 1548 CURVE SMOOTH",
"358 1548 OFFCURVE",
"156 1290 OFFCURVE",
"156 893 CURVE SMOOTH",
"156 73 LINE"
);
}
);
width = 1030;
}
);
leftKerningGroup = f;
rightKerningGroup = o;
unicode = 00DF;
category = Letter;
subCategory = Lowercase;
},
{
color = 11;
glyphname = t;
lastChange = "2019-07-26 15:57:21 +0000";
layers = (
{
anchors = (
{
name = bottom;
position = "{344, 0}";
},
{
name = center;
position = "{349, 556}";
},
{
name = mark0;
position = "{381, -166}";
},
{
name = top;
position = "{348, 1356}";
},
{
name = topright;
position = "{618, 1111}";
}
);
layerId = "184155C8-9F61-4F1C-9784-DDA8EA717636";
paths = (
{
closed = 1;
nodes = (
"530 -26 OFFCURVE",
"621 33 OFFCURVE",
"681 89 CURVE",
"650 151 LINE",
"615 131 OFFCURVE",
"575 110 OFFCURVE",
"537 110 CURVE SMOOTH",
"476 110 OFFCURVE",
"454 126 OFFCURVE",
"454 270 CURVE SMOOTH",
"454 917 LINE",
"643 917 LINE",
"643 1005 LINE",
"451 1005 LINE",
"452 1334 LINE",
"306 1334 LINE",
"280 1281 OFFCURVE",
"244 1185 OFFCURVE",
"220 1148 CURVE SMOOTH",
"192 1104 OFFCURVE",
"162 1033 OFFCURVE",
"122 1010 CURVE",
"87 990 OFFCURVE",
"30 972 OFFCURVE",
"-15 956 CURVE",
"-15 917 LINE",
"108 917 LINE",
"108 224 LINE SMOOTH",
"108 55 OFFCURVE",
"177 -26 OFFCURVE",
"353 -26 CURVE"
);
}
);
width = 672;
},
{
anchors = (
{
name = bottom;
position = "{339, 0}";
},
{
name = center;
position = "{326, 556}";
},
{
name = mark0;
position = "{394, -166}";
},
{
name = top;
position = "{266, 1310}";
},
{
name = topright;
position = "{552, 1110}";
}
);
layerId = "C9B9556E-C2FD-4F62-BB40-44923C452C22";
paths = (
{
closed = 1;
nodes = (
"416 -14 OFFCURVE",
"531 26 OFFCURVE",
"578 67 CURVE",
"561 106 LINE",
"527 84 OFFCURVE",
"427 64 OFFCURVE",
"372 64 CURVE SMOOTH",
"335 64 OFFCURVE",
"307 86 OFFCURVE",
"307 169 CURVE SMOOTH",
"307 943 LINE",
"525 943 LINE",
"525 1005 LINE",
"308 1005 LINE",
"308 1329 LINE",
"243 1329 LINE",
"225 1236 OFFCURVE",
"192 1112 OFFCURVE",
"176 1067 CURVE SMOOTH",
"164 1034 OFFCURVE",
"153 1017 OFFCURVE",
"125 1005 CURVE SMOOTH",
"106 997 OFFCURVE",
"46 985 OFFCURVE",
"30 980 CURVE",
"30 943 LINE",
"165 943 LINE",
"165 158 LINE SMOOTH",
"165 22 OFFCURVE",
"231 -14 OFFCURVE",
"314 -14 CURVE SMOOTH"
);
}
);
width = 584;
}
);
leftKerningGroup = t;
rightKerningGroup = t;
unicode = 0074;
category = Letter;
subCategory = Lowercase;
},
{
color = 11;
glyphname = tbar;
lastChange = "2019-07-26 15:57:21 +0000";
layers = (
{
components = (
{
name = t;
}
);
layerId = "184155C8-9F61-4F1C-9784-DDA8EA717636";
paths = (
{
closed = 1;
nodes = (
"18 640 LINE",
"17 553 LINE",
"637 553 LINE",
"638 640 LINE"
);
}
);
width = 672;
},
{
components = (
{
name = t;
}
);
layerId = "C9B9556E-C2FD-4F62-BB40-44923C452C22";
paths = (
{
closed = 1;
nodes = (
"30 640 LINE",
"30 578 LINE",
"525 578 LINE",
"525 640 LINE"
);
}
);
width = 584;
}
);
leftKerningGroup = t;
leftMetricsKey = t;
rightKerningGroup = t;
rightMetricsKey = t;
unicode = 0167;
category = Letter;
subCategory = Lowercase;
},
{
color = 10;
glyphname = u;
lastChange = "2019-07-26 15:57:21 +0000";
layers = (
{
anchors = (
{
name = bottom;
position = "{598, 0}";
},
{
name = mark0;
position = "{636, -166}";
},
{
name = ogonek;
position = "{1066, 20}";
},
{
name = top;
position = "{574, 1112}";
},
{
name = topright;
position = "{1172, 1112}";
}
);
layerId = "184155C8-9F61-4F1C-9784-DDA8EA717636";
paths = (
{
closed = 1;
nodes = (
"979 -19 OFFCURVE",
"1062 0 OFFCURVE",
"1112 10 CURVE",
"1112 48 LINE",
"1038 68 LINE",
"1038 992 LINE",
"979 1035 LINE",
"941 1035 LINE",
"598 921 LINE",
"598 880 LINE",
"704 833 LINE",
"704 208 LINE",
"668 183 OFFCURVE",
"624 156 OFFCURVE",
"547 156 CURVE SMOOTH",
"471 156 OFFCURVE",
"440 202 OFFCURVE",
"440 336 CURVE SMOOTH",
"440 992 LINE",
"386 1035 LINE",
"351 1035 LINE",
"10 921 LINE",
"10 880 LINE",
"104 833 LINE",
"104 344 LINE SMOOTH",
"104 87 OFFCURVE",
"196 -20 OFFCURVE",
"391 -20 CURVE SMOOTH",
"528 -20 OFFCURVE",
"647 56 OFFCURVE",
"717 177 CURVE",
"717 71 LINE SMOOTH",
"717 -12 OFFCURVE",
"776 -19 OFFCURVE",
"869 -19 CURVE SMOOTH"
);
}
);
width = 1132;
},
{
anchors = (
{
name = bottom;
position = "{542, 0}";
},
{
name = mark0;
position = "{562, -166}";
},
{
name = ogonek;
position = "{984, 20}";
},
{
name = top;
position = "{514, 1110}";
},
{
name = topright;
position = "{1022, 1110}";
}
);
layerId = "C9B9556E-C2FD-4F62-BB40-44923C452C22";
paths = (
{
closed = 1;
nodes = (
"890 -16 OFFCURVE",
"938 0 OFFCURVE",
"980 14 CURVE",
"980 47 LINE",
"872 47 LINE",
"872 998 LINE",
"856 1010 LINE",
"819 1010 LINE",
"609 958 LINE",
"609 931 LINE",
"734 896 LINE",
"734 193 LINE",
"667 127 OFFCURVE",
"551 76 OFFCURVE",
"427 76 CURVE SMOOTH",
"298 76 OFFCURVE",
"269 153 OFFCURVE",
"269 292 CURVE SMOOTH",
"269 998 LINE",
"253 1010 LINE",
"214 1010 LINE",
"6 958 LINE",
"6 931 LINE",
"131 896 LINE",
"132 286 LINE SMOOTH",
"132 91 OFFCURVE",
"190 -20 OFFCURVE",
"401 -20 CURVE SMOOTH",
"576 -20 OFFCURVE",
"676 84 OFFCURVE",
"735 158 CURVE",
"735 66 LINE SMOOTH",
"735 8 OFFCURVE",
"771 -16 OFFCURVE",
"828 -16 CURVE SMOOTH"
);
}
);
width = 1008;
}
);
leftKerningGroup = u;
rightKerningGroup = u;
unicode = 0075;
category = Letter;
subCategory = Lowercase;
},
{
color = 0;
glyphname = uhorn;
lastChange = "2019-07-26 15:57:21 +0000";
layers = (
{
anchors = (
{
name = bottom;
position = "{610, 0}";
},
{
name = mark0;
position = "{676, -166}";
},
{
name = top;
position = "{582, 1110}";
}
);
components = (
{
name = u;
}
);
layerId = "184155C8-9F61-4F1C-9784-DDA8EA717636";
paths = (
{
closed = 1;
nodes = (
"1132 1026 LINE",
"1288 1058 OFFCURVE",
"1374 1190 OFFCURVE",
"1374 1336 CURVE SMOOTH",
"1374 1362 OFFCURVE",
"1372 1388 OFFCURVE",
"1370 1402 CURVE",
"1144 1402 LINE",
"1148 1390 OFFCURVE",
"1150 1368 OFFCURVE",
"1150 1332 CURVE SMOOTH",
"1150 1272 OFFCURVE",
"1116 1172 OFFCURVE",
"1026 1136 CURVE",
"722 1090 LINE"
);
}
);
width = 1298;
},
{
anchors = (
{
name = bottom;
position = "{610, 0}";
},
{
name = mark0;
position = "{-28, -166}";
},
{
name = top;
position = "{582, 1110}";
}
);
components = (
{
name = u;
}
);
layerId = "C9B9556E-C2FD-4F62-BB40-44923C452C22";
paths = (
{
closed = 1;
nodes = (
"1030 1054 LINE",
"1156 1082 OFFCURVE",
"1244 1138 OFFCURVE",
"1244 1288 CURVE SMOOTH",
"1244 1302 OFFCURVE",
"1242 1316 OFFCURVE",
"1240 1332 CURVE",
"1086 1332 LINE",
"1088 1324 OFFCURVE",
"1088 1312 OFFCURVE",
"1088 1298 CURVE SMOOTH",
"1088 1178 OFFCURVE",
"1030 1138 OFFCURVE",
"942 1130 CURVE",
"756 1088 LINE"
);
}
);
width = 1248;
}
);
leftKerningGroup = u;
leftMetricsKey = u;
widthMetricsKey = u;
rightKerningGroup = u;
unicode = 01B0;
category = Letter;
subCategory = Lowercase;
},
{
color = 0;
glyphname = uogonek;
lastChange = "2019-07-26 15:57:21 +0000";
layers = (
{
anchors = (
{
name = _ogonek;
position = "{1113, 20}";
},
{
name = bottom;
position = "{644, 0}";
},
{
name = mark0;
position = "{682, -166}";
},
{
name = ogonek;
position = "{1113, 20}";
},
{
name = top;
position = "{620, 1111}";
},
{
name = topright;
position = "{1219, 1111}";
}
);
layerId = "184155C8-9F61-4F1C-9784-DDA8EA717636";
paths = (
{
closed = 1;
nodes = (
"650 -22 OFFCURVE",
"791 63 OFFCURVE",
"850 145 CURVE",
"850 101 LINE SMOOTH",
"850 34 OFFCURVE",
"880 -11 OFFCURVE",
"957 -19 CURVE",
"804 -90 OFFCURVE",
"737 -178 OFFCURVE",
"737 -284 CURVE SMOOTH",
"737 -426 OFFCURVE",
"884 -483 OFFCURVE",
"999 -483 CURVE SMOOTH",
"1090 -483 OFFCURVE",
"1194 -456 OFFCURVE",
"1248 -415 CURVE",
"1246 -274 LINE",
"1203 -291 OFFCURVE",
"1180 -305 OFFCURVE",
"1116 -305 CURVE SMOOTH",
"1032 -305 OFFCURVE",
"998 -266 OFFCURVE",
"998 -199 CURVE SMOOTH",
"998 -137 OFFCURVE",
"1057 -59 OFFCURVE",
"1184 -2 CURVE",
"1244 11 LINE",
"1245 138 LINE",
"1139 138 LINE",
"1139 1109 LINE",
"1090 1135 LINE",
"1085 1135 LINE",
"687 1109 LINE",
"687 985 LINE",
"813 956 LINE",
"813 235 LINE",
"782 207 OFFCURVE",
"719 159 OFFCURVE",
"625 159 CURVE SMOOTH",
"516 159 OFFCURVE",
"478 217 OFFCURVE",
"478 392 CURVE SMOOTH",
"478 1109 LINE",
"434 1135 LINE",
"432 1135 LINE",
"56 1109 LINE",
"56 982 LINE",
"150 956 LINE",
"150 400 LINE SMOOTH",
"150 96 OFFCURVE",
"251 -22 OFFCURVE",
"513 -22 CURVE SMOOTH"
);
}
);
width = 1287;
},
{
anchors = (
{
name = _ogonek;
position = "{1070, 20}";
},
{
name = bottom;
position = "{628, 0}";
},
{
name = mark0;
position = "{648, -166}";
},
{
name = ogonek;
position = "{1070, 20}";
},
{
name = top;
position = "{596, 1110}";
},
{
name = topright;
position = "{1108, 1110}";
}
);
layerId = "C9B9556E-C2FD-4F62-BB40-44923C452C22";
paths = (
{
closed = 1;
nodes = (
"680 -22 OFFCURVE",
"826 72 OFFCURVE",
"906 144 CURVE",
"906 66 LINE SMOOTH",
"906 17 OFFCURVE",
"924 -5 OFFCURVE",
"958 -13 CURVE",
"808 -84 OFFCURVE",
"728 -201 OFFCURVE",
"728 -300 CURVE SMOOTH",
"728 -436 OFFCURVE",
"868 -486 OFFCURVE",
"952 -486 CURVE SMOOTH",
"1074 -486 OFFCURVE",
"1136 -456 OFFCURVE",
"1186 -418 CURVE",
"1184 -324 LINE",
"1150 -344 OFFCURVE",
"1106 -376 OFFCURVE",
"1014 -376 CURVE SMOOTH",
"920 -376 OFFCURVE",
"880 -344 OFFCURVE",
"880 -248 CURVE SMOOTH",
"880 -168 OFFCURVE",
"976 -62 OFFCURVE",
"1112 -4 CURVE",
"1172 12 LINE",
"1174 88 LINE",
"1050 88 LINE",
"1050 1110 LINE",
"1004 1134 LINE",
"1002 1134 LINE",
"736 1108 LINE",
"736 1034 LINE",
"888 1000 LINE",
"888 228 LINE",
"826 174 OFFCURVE",
"712 100 OFFCURVE",
"582 100 CURVE SMOOTH",
"396 100 OFFCURVE",
"358 198 OFFCURVE",
"358 436 CURVE SMOOTH",
"358 1110 LINE",
"322 1134 LINE",
"320 1134 LINE",
"78 1108 LINE",
"78 1034 LINE",
"196 1000 LINE",
"196 412 LINE SMOOTH",
"196 108 OFFCURVE",
"286 -22 OFFCURVE",
"532 -22 CURVE SMOOTH"
);
}
);
width = 1256;
}
);
leftKerningGroup = u;
rightKerningGroup = u;
unicode = 0173;
category = Letter;
subCategory = Lowercase;
},
{
color = 11;
glyphname = v;
lastChange = "2019-07-26 15:57:21 +0000";
layers = (
{
anchors = (
{
name = mark0;
position = "{523, -166}";
}
);
layerId = "184155C8-9F61-4F1C-9784-DDA8EA717636";
paths = (
{
closed = 1;
nodes = (
"29 921 LINE",
"340 0 LINE",
"670 0 LINE",
"962 921 LINE",
"1073 967 LINE",
"1073 1005 LINE",
"717 1005 LINE",
"717 966 LINE",
"849 921 LINE",
"706 329 LINE",
"646 120 LINE",
"585 349 LINE",
"423 921 LINE",
"528 967 LINE",
"528 1005 LINE",
"-62 1005 LINE",
"-62 967 LINE"
);
}
);
width = 993;
},
{
anchors = (
{
name = mark0;
position = "{544, -166}";
}
);
layerId = "C9B9556E-C2FD-4F62-BB40-44923C452C22";
paths = (
{
closed = 1;
nodes = (
"54 943 LINE",
"392 0 LINE",
"529 0 LINE",
"867 943 LINE",
"952 970 LINE",
"952 1005 LINE",
"684 1005 LINE",
"684 970 LINE",
"774 943 LINE",
"536 184 LINE",
"503 55 LINE",
"468 183 LINE",
"222 943 LINE",
"317 970 LINE",
"317 1005 LINE",
"-25 1005 LINE",
"-25 970 LINE"
);
}
);
width = 912;
}
);
leftKerningGroup = v;
rightKerningGroup = v;
unicode = 0076;
category = Letter;
subCategory = Lowercase;
},
{
color = 10;
glyphname = w;
lastChange = "2019-07-26 15:57:21 +0000";
layers = (
{
anchors = (
{
name = bottom;
position = "{745, 0}";
},
{
name = mark0;
position = "{714, -166}";
},
{
name = top;
position = "{791, 1111}";
}
);
layerId = "184155C8-9F61-4F1C-9784-DDA8EA717636";
paths = (
{
closed = 1;
nodes = (
"-5 921 LINE",
"257 0 LINE",
"552 0 LINE",
"695 614 LINE",
"736 805 LINE",
"779 615 LINE",
"916 0 LINE",
"1232 0 LINE",
"1518 921 LINE",
"1636 967 LINE",
"1636 1005 LINE",
"1291 1005 LINE",
"1291 968 LINE",
"1418 921 LINE",
"1272 350 LINE",
"1221 140 LINE",
"1174 350 LINE",
"1037 1005 LINE",
"707 1005 LINE",
"577 349 LINE",
"530 140 LINE",
"486 350 LINE",
"353 921 LINE",
"448 968 LINE",
"448 1005 LINE",
"-87 1005 LINE",
"-87 967 LINE"
);
}
);
width = 1521;
},
{
anchors = (
{
name = bottom;
position = "{837, 0}";
},
{
name = mark0;
position = "{831, -166}";
},
{
name = top;
position = "{857, 1110}";
}
);
layerId = "C9B9556E-C2FD-4F62-BB40-44923C452C22";
paths = (
{
closed = 1;
nodes = (
"60 943 LINE",
"358 0 LINE",
"481 0 LINE",
"673 644 LINE",
"730 907 LINE",
"793 644 LINE",
"986 0 LINE",
"1109 0 LINE",
"1410 943 LINE",
"1500 970 LINE",
"1500 1005 LINE",
"1212 1005 LINE",
"1212 970 LINE",
"1312 943 LINE",
"1114 214 LINE",
"1089 52 LINE",
"1061 182 LINE",
"844 1005 LINE",
"695 1005 LINE",
"486 214 LINE",
"461 52 LINE",
"433 182 LINE",
"227 943 LINE",
"322 970 LINE",
"322 1005 LINE",
"-20 1005 LINE",
"-20 970 LINE"
);
}
);
width = 1478;
}
);
leftKerningGroup = w;
rightKerningGroup = w;
unicode = 0077;
category = Letter;
subCategory = Lowercase;
},
{
color = 5;
glyphname = x;
lastChange = "2019-07-26 15:57:21 +0000";
layers = (
{
anchors = (
{
name = mark0;
position = "{534, -166}";
}
);
layerId = "184155C8-9F61-4F1C-9784-DDA8EA717636";
paths = (
{
closed = 1;
nodes = (
"-29 38 LINE",
"-29 0 LINE",
"358 0 LINE",
"358 38 LINE",
"226 71 LINE",
"368 296 LINE",
"422 383 LINE",
"475 295 LINE",
"607 71 LINE",
"500 38 LINE",
"500 0 LINE",
"1089 0 LINE",
"1089 38 LINE",
"992 71 LINE",
"682 557 LINE",
"976 935 LINE",
"1084 966 LINE",
"1084 1005 LINE",
"704 1005 LINE",
"704 966 LINE",
"825 934 LINE",
"692 711 LINE",
"640 622 LINE",
"585 712 LINE",
"453 935 LINE",
"560 966 LINE",
"560 1005 LINE",
"-28 1005 LINE",
"-28 966 LINE",
"67 935 LINE",
"376 450 LINE",
"80 71 LINE"
);
}
);
width = 1060;
},
{
anchors = (
{
name = mark0;
position = "{540, -166}";
}
);
layerId = "C9B9556E-C2FD-4F62-BB40-44923C452C22";
paths = (
{
closed = 1;
nodes = (
"33 37 LINE",
"33 0 LINE",
"339 0 LINE",
"339 37 LINE",
"233 71 LINE",
"378 310 LINE",
"457 451 LINE",
"543 300 LINE",
"693 71 LINE",
"568 37 LINE",
"568 0 LINE",
"973 0 LINE",
"973 37 LINE",
"868 71 LINE",
"553 532 LINE",
"831 936 LINE",
"926 970 LINE",
"926 1005 LINE",
"633 1005 LINE",
"633 970 LINE",
"736 936 LINE",
"572 675 LINE",
"518 564 LINE",
"449 685 LINE",
"301 936 LINE",
"427 970 LINE",
"427 1005 LINE",
"23 1005 LINE",
"23 970 LINE",
"124 936 LINE",
"424 487 LINE",
"131 71 LINE"
);
}
);
width = 996;
}
);
leftKerningGroup = x;
rightKerningGroup = x;
unicode = 0078;
category = Letter;
subCategory = Lowercase;
},
{
color = 11;
glyphname = y;
lastChange = "2019-07-26 15:57:21 +0000";
layers = (
{
anchors = (
{
name = bottom;
position = "{988, 0}";
},
{
name = mark0;
position = "{659, -166}";
},
{
name = top;
position = "{656, 1111}";
}
);
layerId = "184155C8-9F61-4F1C-9784-DDA8EA717636";
paths = (
{
closed = 1;
nodes = (
"532 -468 OFFCURVE",
"635 -334 OFFCURVE",
"749 -25 CURVE",
"765 12 OFFCURVE",
"927 543 OFFCURVE",
"1051 921 CURVE",
"1162 967 LINE",
"1162 1005 LINE",
"806 1005 LINE",
"806 966 LINE",
"938 921 LINE",
"795 329 LINE",
"735 120 LINE",
"674 349 LINE",
"512 921 LINE",
"617 967 LINE",
"617 1005 LINE",
"27 1005 LINE",
"27 967 LINE",
"118 921 LINE",
"428 0 LINE",
"674 0 LINE",
"611 -171 OFFCURVE",
"487 -231 OFFCURVE",
"339 -231 CURVE SMOOTH",
"291 -231 OFFCURVE",
"254 -224 OFFCURVE",
"228 -216 CURVE",
"228 -451 LINE",
"245 -462 OFFCURVE",
"281 -468 OFFCURVE",
"333 -468 CURVE SMOOTH"
);
}
);
width = 1199;
},
{
anchors = (
{
name = bottom;
position = "{783, 0}";
},
{
name = mark0;
position = "{495, -166}";
},
{
name = top;
position = "{483, 1110}";
}
);
layerId = "C9B9556E-C2FD-4F62-BB40-44923C452C22";
paths = (
{
closed = 1;
nodes = (
"308 -496 OFFCURVE",
"382 -372 OFFCURVE",
"515 -37 CURVE SMOOTH",
"550 51 OFFCURVE",
"721 567 OFFCURVE",
"862 943 CURVE",
"947 970 LINE",
"947 1005 LINE",
"679 1005 LINE",
"679 970 LINE",
"769 943 LINE",
"535 183 LINE",
"503 54 LINE",
"468 185 LINE",
"226 943 LINE",
"321 969 LINE",
"321 1005 LINE",
"-20 1005 LINE",
"-20 970 LINE",
"58 943 LINE",
"392 0 LINE",
"466 0 LINE",
"427 -127 OFFCURVE",
"273 -375 OFFCURVE",
"134 -375 CURVE SMOOTH",
"94 -375 OFFCURVE",
"59 -371 OFFCURVE",
"43 -363 CURVE",
"43 -482 LINE",
"59 -490 OFFCURVE",
"90 -496 OFFCURVE",
"145 -496 CURVE SMOOTH"
);
}
);
width = 912;
}
);
leftKerningGroup = y;
rightKerningGroup = y;
unicode = 0079;
category = Letter;
subCategory = Lowercase;
},
{
color = 5;
glyphname = z;
lastChange = "2019-07-26 15:57:21 +0000";
layers = (
{
anchors = (
{
name = bottom;
position = "{534, 0}";
},
{
name = mark0;
position = "{532, -176}";
},
{
name = top;
position = "{505, 1111}";
}
);
layerId = "184155C8-9F61-4F1C-9784-DDA8EA717636";
paths = (
{
closed = 1;
nodes = (
"542 875 LINE",
"15 54 LINE",
"61 0 LINE",
"921 0 LINE",
"971 375 LINE",
"815 402 LINE",
"685 82 LINE",
"389 54 LINE",
"482 170 LINE",
"984 948 LINE",
"940 1005 LINE",
"81 1002 LINE",
"64 651 LINE",
"235 654 LINE",
"315 928 LINE",
"616 949 LINE"
);
}
);
width = 984;
},
{
anchors = (
{
name = bottom;
position = "{454, 0}";
},
{
name = mark0;
position = "{440, -166}";
},
{
name = top;
position = "{478, 1110}";
}
);
layerId = "C9B9556E-C2FD-4F62-BB40-44923C452C22";
paths = (
{
closed = 1;
nodes = (
"574 806 LINE",
"47 54 LINE",
"78 0 LINE",
"817 0 LINE",
"853 313 LINE",
"785 325 LINE",
"689 71 LINE",
"183 36 LINE",
"337 224 LINE",
"846 951 LINE",
"817 1005 LINE",
"104 1005 LINE",
"104 699 LINE",
"169 699 LINE",
"219 936 LINE",
"708 970 LINE"
);
}
);
width = 906;
}
);
leftKerningGroup = z;
rightKerningGroup = z;
unicode = 007A;
category = Letter;
subCategory = Lowercase;
},
{
glyphname = germandbls.sc;
lastChange = "2019-07-31 17:48:50 +0000";
layers = (
{
layerId = "184155C8-9F61-4F1C-9784-DDA8EA717636";
paths = (
{
closed = 1;
nodes = (
"-10 0 LINE",
"501 0 LINE",
"501 698 LINE SMOOTH",
"501 950 OFFCURVE",
"606 1263 OFFCURVE",
"870 1263 CURVE SMOOTH",
"950 1263 OFFCURVE",
"1006 1240 OFFCURVE",
"1033 1191 CURVE",
"741 792 LINE",
"741 722 LINE",
"1045 704 OFFCURVE",
"1110 517 OFFCURVE",
"1110 396 CURVE SMOOTH",
"1110 108 OFFCURVE",
"1038 46 OFFCURVE",
"972 46 CURVE SMOOTH",
"920 46 OFFCURVE",
"862 55 OFFCURVE",
"848 135 CURVE",
"830 303 LINE",
"662 303 LINE",
"640 19 LINE",
"755 19 OFFCURVE",
"766 -8 OFFCURVE",
"962 -8 CURVE SMOOTH",
"1352 -8 OFFCURVE",
"1480 163 OFFCURVE",
"1480 385 CURVE SMOOTH",
"1480 601 OFFCURVE",
"1305 724 OFFCURVE",
"1047 749 CURVE",
"1331 1084 LINE",
"1332 1246 LINE",
"1237 1235 OFFCURVE",
"1110 1307 OFFCURVE",
"871 1307 CURVE SMOOTH",
"313 1307 OFFCURVE",
"121 979 OFFCURVE",
"120 651 CURVE SMOOTH",
"118 66 LINE",
"-10 30 LINE"
);
}
);
userData = {
RMXScaler = {
adjustSpace = 2;
height = 87;
weight = 2;
width = 96;
};
};
width = 1484;
},
{
layerId = "C9B9556E-C2FD-4F62-BB40-44923C452C22";
paths = (
{
closed = 1;
nodes = (
"8 -13 LINE",
"304 -13 LINE",
"304 783 LINE SMOOTH",
"304 1099 OFFCURVE",
"449 1269 OFFCURVE",
"692 1269 CURVE SMOOTH",
"828 1269 OFFCURVE",
"922 1220 OFFCURVE",
"963 1184 CURVE",
"609 726 LINE",
"609 686 LINE",
"908 678 OFFCURVE",
"1065 550 OFFCURVE",
"1065 331 CURVE SMOOTH",
"1065 113 OFFCURVE",
"928 18 OFFCURVE",
"790 18 CURVE SMOOTH",
"696 18 OFFCURVE",
"614 68 OFFCURVE",
"581 115 CURVE",
"548 268 LINE",
"457 268 LINE",
"445 36 LINE",
"531 36 OFFCURVE",
"604 -30 OFFCURVE",
"792 -30 CURVE SMOOTH",
"1065 -30 OFFCURVE",
"1221 132 OFFCURVE",
"1221 358 CURVE SMOOTH",
"1221 633 OFFCURVE",
"953 702 OFFCURVE",
"787 731 CURVE",
"1120 1139 LINE",
"1120 1195 LINE",
"1051 1225 OFFCURVE",
"943 1314 OFFCURVE",
"700 1314 CURVE SMOOTH",
"408 1314 OFFCURVE",
"137 1103 OFFCURVE",
"137 750 CURVE SMOOTH",
"137 47 LINE",
"8 19 LINE"
);
}
);
userData = {
RMXScaler = {
adjustSpace = 2;
height = 87;
weight = 2;
width = 96;
};
};
width = 1247;
}
);
leftKerningGroup = s.sc;
rightKerningGroup = s.sc;
category = Letter;
subCategory = Lowercase;
userData = {
RMXScaler = {
source = Germandbls;
};
};
},
{
color = 6;
glyphname = a.sc;
lastChange = "2019-08-12 19:17:42 +0000";
layers = (
{
anchors = (
{
name = bottom;
position = "{533, 0}";
},
{
name = ogonek;
position = "{1110, 17}";
},
{
name = top;
position = "{587, 1293}";
}
);
annotations = (
{
position = "{2881, -2146}";
type = Arrow;
}
);
background = {
paths = (
{
closed = 1;
nodes = (
"140 386 LINE",
"186 415 LINE",
"48 74 LINE",
"49 136 LINE",
"224 38 LINE",
"224 0 LINE",
"-145 0 LINE",
"-145 38 LINE",
"24 140 LINE",
"-18 74 LINE",
"462 1292 LINE",
"717 1292 LINE",
"1189 15 LINE",
"1026 109 LINE",
"1280 38 LINE",
"1280 0 LINE",
"640 0 LINE",
"640 38 LINE",
"923 107 LINE",
"801 15 LINE",
"653 405 LINE",
"705 386 LINE"
);
},
{
closed = 1;
nodes = (
"650 415 LINE",
"457 965 LINE",
"419 1085 LINE",
"434 1085 LINE",
"391 965 LINE",
"190 426 LINE",
"157 443 LINE",
"679 443 LINE"
);
}
);
};
layerId = "184155C8-9F61-4F1C-9784-DDA8EA717636";
paths = (
{
closed = 1;
nodes = (
"-143 34 LINE",
"-143 0 LINE",
"244 0 LINE",
"244 34 LINE",
"88 66 LINE",
"191 372 LINE",
"630 372 LINE",
"739 66 LINE",
"583 34 LINE",
"583 0 LINE",
"1268 0 LINE",
"1268 34 LINE",
"1160 62 LINE",
"725 1292 LINE",
"447 1292 LINE",
"-4 71 LINE"
);
},
{
closed = 1;
nodes = (
"213 427 LINE",
"383 935 LINE",
"415 1037 LINE",
"448 935 LINE",
"608 427 LINE"
);
}
);
userData = {
RMXScaler = {
adjustSpace = 3;
height = 87;
weight = 2;
width = 96;
};
};
width = 1188;
},
{
anchors = (
{
name = bottom;
position = "{618, 0}";
},
{
name = ogonek;
position = "{1153, 17}";
},
{
name = top;
position = "{633, 1280}";
}
);
layerId = "C9B9556E-C2FD-4F62-BB40-44923C452C22";
paths = (
{
closed = 1;
nodes = (
"-10 32 LINE",
"-10 0 LINE",
"341 0 LINE",
"341 32 LINE",
"214 53 LINE",
"335 393 LINE",
"856 393 LINE",
"969 53 LINE",
"840 32 LINE",
"840 0 LINE",
"1266 0 LINE",
"1266 32 LINE",
"1143 52 LINE",
"717 1292 LINE",
"576 1292 LINE",
"100 52 LINE"
);
},
{
closed = 1;
nodes = (
"355 449 LINE",
"574 1057 LINE",
"607 1157 LINE",
"638 1057 LINE",
"836 449 LINE"
);
}
);
userData = {
RMXScaler = {
adjustSpace = 2;
height = 87;
weight = 2;
width = 96;
};
};
width = 1256;
}
);
leftKerningGroup = a.sc;
rightKerningGroup = a.sc;
userData = {
RMXScaler = {
source = A;
};
};
},
{
glyphname = ae.sc;
lastChange = "2019-07-26 15:57:21 +0000";
layers = (
{
anchors = (
{
name = bottom;
position = "{915, 0}";
},
{
name = mark0;
position = "{878, -144}";
},
{
name = top;
position = "{915, 1287}";
}
);
layerId = "184155C8-9F61-4F1C-9784-DDA8EA717636";
paths = (
{
closed = 1;
nodes = (
"621 124 LINE",
"621 0 LINE",
"1766 0 LINE",
"1831 332 LINE",
"1640 384 LINE",
"1519 155 LINE",
"1110 130 LINE",
"1110 583 LINE",
"1337 578 LINE",
"1368 426 LINE",
"1503 426 LINE",
"1503 877 LINE",
"1367 877 LINE",
"1335 738 LINE",
"1110 732 LINE",
"1110 1170 LINE",
"1480 1147 LINE",
"1549 969 LINE",
"1705 969 LINE",
"1677 1292 LINE",
"198 1292 LINE",
"198 1158 LINE",
"443 1132 LINE",
"-18 145 LINE",
"-153 124 LINE",
"-153 0 LINE",
"391 0 LINE",
"391 124 LINE",
"249 145 LINE",
"338 350 LINE",
"768 350 LINE",
"768 145 LINE"
);
},
{
closed = 1;
nodes = (
"394 500 LINE",
"564 905 LINE",
"658 1155 LINE",
"768 1155 LINE",
"768 500 LINE"
);
}
);
width = 1827;
},
{
anchors = (
{
name = bottom;
position = "{882, 0}";
},
{
name = mark0;
position = "{840, -144}";
},
{
name = top;
position = "{882, 1272}";
}
);
layerId = "C9B9556E-C2FD-4F62-BB40-44923C452C22";
paths = (
{
closed = 1;
nodes = (
"606 80 LINE",
"606 0 LINE",
"1654 0 LINE",
"1728 302 LINE",
"1630 328 LINE",
"1518 108 LINE",
"940 90 LINE",
"940 620 LINE",
"1282 616 LINE",
"1306 466 LINE",
"1404 466 LINE",
"1404 858 LINE",
"1306 858 LINE",
"1282 714 LINE",
"940 710 LINE",
"940 1210 LINE",
"1442 1200 LINE",
"1500 1024 LINE",
"1596 1024 LINE",
"1562 1292 LINE",
"260 1292 LINE",
"260 1214 LINE",
"520 1194 LINE",
"-28 96 LINE",
"-168 80 LINE",
"-168 0 LINE",
"276 0 LINE",
"276 80 LINE",
"128 96 LINE",
"260 378 LINE",
"774 378 LINE",
"774 96 LINE"
);
},
{
closed = 1;
nodes = (
"302 476 LINE",
"536 976 LINE",
"642 1202 LINE",
"774 1202 LINE",
"774 476 LINE"
);
}
);
userData = {
RMXScaler = {
adjustSpace = 2;
height = 87;
weight = 2;
width = 96;
};
};
width = 1762;
}
);
leftKerningGroup = ae.sc;
rightKerningGroup = e.sc;
userData = {
RMXScaler = {
source = AE;
};
};
},
{
glyphname = b.sc;
lastChange = "2019-08-01 09:56:35 +0000";
layers = (
{
anchors = (
{
name = bottom;
position = "{640, 0}";
},
{
name = mark0;
position = "{652, -144}";
},
{
name = top;
position = "{640, 1293}";
}
);
layerId = "184155C8-9F61-4F1C-9784-DDA8EA717636";
paths = (
{
closed = 1;
nodes = (
"20 32 LINE",
"20 0 LINE",
"329 0 LINE SMOOTH",
"453 0 OFFCURVE",
"511 -10 OFFCURVE",
"660 -10 CURVE SMOOTH",
"1145 -10 OFFCURVE",
"1262 164 OFFCURVE",
"1262 395 CURVE SMOOTH",
"1262 591 OFFCURVE",
"1127 694 OFFCURVE",
"868 697 CURVE",
"1050 717 OFFCURVE",
"1186 825 OFFCURVE",
"1186 1008 CURVE SMOOTH",
"1186 1187 OFFCURVE",
"1081 1303 OFFCURVE",
"640 1303 CURVE SMOOTH",
"542 1303 OFFCURVE",
"445 1292 OFFCURVE",
"324 1292 CURVE SMOOTH",
"21 1292 LINE",
"21 1261 LINE",
"146 1225 LINE",
"147 65 LINE"
);
},
{
closed = 1;
nodes = (
"518 1242 LINE",
"542 1246 OFFCURVE",
"604 1251 OFFCURVE",
"621 1251 CURVE SMOOTH",
"764 1251 OFFCURVE",
"815 1154 OFFCURVE",
"815 986 CURVE SMOOTH",
"815 844 OFFCURVE",
"771 691 OFFCURVE",
"611 691 CURVE SMOOTH",
"574 691 OFFCURVE",
"545 692 OFFCURVE",
"519 695 CURVE"
);
},
{
closed = 1;
nodes = (
"519 627 LINE",
"545 628 OFFCURVE",
"578 632 OFFCURVE",
"628 632 CURVE SMOOTH",
"806 632 OFFCURVE",
"869 570 OFFCURVE",
"869 367 CURVE SMOOTH",
"869 170 OFFCURVE",
"810 46 OFFCURVE",
"639 46 CURVE SMOOTH",
"595 46 OFFCURVE",
"543 50 OFFCURVE",
"519 60 CURVE"
);
}
);
userData = {
RMXScaler = {
adjustSpace = 2;
height = 87;
weight = 2;
width = 96;
};
};
width = 1330;
},
{
anchors = (
{
name = bottom;
position = "{579, 0}";
},
{
name = mark0;
position = "{623, -144}";
},
{
name = top;
position = "{579, 1293}";
}
);
layerId = "C9B9556E-C2FD-4F62-BB40-44923C452C22";
paths = (
{
closed = 1;
nodes = (
"26 31 LINE",
"26 0 LINE",
"246 0 LINE SMOOTH",
"374 0 OFFCURVE",
"410 -10 OFFCURVE",
"507 -10 CURVE SMOOTH",
"952 -10 OFFCURVE",
"1093 146 OFFCURVE",
"1093 355 CURVE SMOOTH",
"1093 554 OFFCURVE",
"933 678 OFFCURVE",
"707 672 CURVE",
"896 704 OFFCURVE",
"994 854 OFFCURVE",
"994 1011 CURVE SMOOTH",
"994 1196 OFFCURVE",
"850 1306 OFFCURVE",
"517 1306 CURVE SMOOTH",
"421 1306 OFFCURVE",
"368 1292 OFFCURVE",
"253 1292 CURVE SMOOTH",
"27 1292 LINE",
"27 1261 LINE",
"169 1233 LINE",
"169 59 LINE"
);
},
{
closed = 1;
nodes = (
"331 1248 LINE",
"371 1252 OFFCURVE",
"417 1262 OFFCURVE",
"508 1262 CURVE SMOOTH",
"749 1262 OFFCURVE",
"837 1180 OFFCURVE",
"837 1003 CURVE SMOOTH",
"837 817 OFFCURVE",
"743 693 OFFCURVE",
"564 693 CURVE SMOOTH",
"506 693 OFFCURVE",
"393 692 OFFCURVE",
"332 695 CURVE"
);
},
{
closed = 1;
nodes = (
"332 637 LINE",
"392 641 OFFCURVE",
"511 641 OFFCURVE",
"584 641 CURVE SMOOTH",
"802 641 OFFCURVE",
"931 544 OFFCURVE",
"931 362 CURVE SMOOTH",
"931 178 OFFCURVE",
"839 34 OFFCURVE",
"525 34 CURVE SMOOTH",
"457 34 OFFCURVE",
"383 41 OFFCURVE",
"331 55 CURVE"
);
}
);
userData = {
RMXScaler = {
adjustSpace = 2;
height = 87;
weight = 2;
width = 96;
};
};
width = 1133;
}
);
leftKerningGroup = h.sc;
leftMetricsKey = h.sc;
rightKerningGroup = b.sc;
userData = {
RMXScaler = {
source = B;
};
};
},
{
glyphname = c.sc;
lastChange = "2019-07-31 19:30:01 +0000";
layers = (
{
anchors = (
{
name = bottom;
position = "{704, 0}";
},
{
name = mark0;
position = "{706, -144}";
},
{
name = top;
position = "{736, 1293}";
}
);
layerId = "184155C8-9F61-4F1C-9784-DDA8EA717636";
paths = (
{
closed = 1;
nodes = (
"1013 -20 OFFCURVE",
"1063 48 OFFCURVE",
"1163 47 CURVE",
"1197 437 LINE",
"1047 437 LINE",
"964 169 LINE SMOOTH",
"938 88 OFFCURVE",
"864 33 OFFCURVE",
"773 33 CURVE SMOOTH",
"547 33 OFFCURVE",
"472 335 OFFCURVE",
"472 663 CURVE SMOOTH",
"472 1101 OFFCURVE",
"566 1258 OFFCURVE",
"747 1258 CURVE SMOOTH",
"849 1258 OFFCURVE",
"892 1215 OFFCURVE",
"908 1127 CURVE SMOOTH",
"960 848 LINE",
"1155 848 LINE",
"1210 1250 LINE",
"1017 1250 OFFCURVE",
"967 1312 OFFCURVE",
"723 1312 CURVE SMOOTH",
"309 1312 OFFCURVE",
"60 1064 OFFCURVE",
"60 641 CURVE SMOOTH",
"60 246 OFFCURVE",
"251 -20 OFFCURVE",
"736 -20 CURVE SMOOTH"
);
}
);
userData = {
RMXScaler = {
adjustSpace = 2;
height = 87;
weight = 2;
width = 96;
};
};
width = 1225;
},
{
anchors = (
{
name = bottom;
position = "{648, 0}";
},
{
name = mark0;
position = "{665, -144}";
},
{
name = top;
position = "{650, 1293}";
}
);
layerId = "C9B9556E-C2FD-4F62-BB40-44923C452C22";
paths = (
{
closed = 1;
nodes = (
"921 -25 OFFCURVE",
"972 38 OFFCURVE",
"1074 41 CURVE",
"1114 305 LINE",
"1033 318 LINE",
"960 130 LINE",
"913 85 OFFCURVE",
"833 20 OFFCURVE",
"700 20 CURVE SMOOTH",
"326 20 OFFCURVE",
"209 333 OFFCURVE",
"209 653 CURVE SMOOTH",
"209 1044 OFFCURVE",
"397 1277 OFFCURVE",
"730 1277 CURVE SMOOTH",
"846 1277 OFFCURVE",
"928 1243 OFFCURVE",
"963 1210 CURVE",
"994 960 LINE",
"1100 960 LINE",
"1118 1267 LINE",
"1043 1267 OFFCURVE",
"951 1324 OFFCURVE",
"717 1324 CURVE SMOOTH",
"319 1324 OFFCURVE",
"29 1042 OFFCURVE",
"29 634 CURVE SMOOTH",
"29 263 OFFCURVE",
"248 -25 OFFCURVE",
"658 -25 CURVE SMOOTH"
);
}
);
userData = {
RMXScaler = {
adjustSpace = 2;
height = 87;
weight = 2;
width = 96;
};
};
width = 1195;
}
);
leftKerningGroup = o.sc;
rightKerningGroup = c.sc;
userData = {
RMXScaler = {
source = C;
};
};
},
{
glyphname = d.sc;
lastChange = "2019-08-01 09:55:02 +0000";
layers = (
{
anchors = (
{
name = bottom;
position = "{688, 0}";
},
{
name = center;
position = "{688, 647}";
},
{
name = mark0;
position = "{720, -144}";
},
{
name = top;
position = "{688, 1293}";
}
);
layerId = "184155C8-9F61-4F1C-9784-DDA8EA717636";
paths = (
{
closed = 1;
nodes = (
"20 32 LINE",
"20 0 LINE",
"279 0 LINE SMOOTH",
"356 0 OFFCURVE",
"520 -12 OFFCURVE",
"614 -14 CURVE SMOOTH",
"1086 -25 OFFCURVE",
"1341 244 OFFCURVE",
"1341 692 CURVE SMOOTH",
"1341 1048 OFFCURVE",
"1200 1305 OFFCURVE",
"663 1305 CURVE SMOOTH",
"551 1305 OFFCURVE",
"399 1292 OFFCURVE",
"271 1292 CURVE SMOOTH",
"21 1292 LINE",
"21 1261 LINE",
"148 1225 LINE",
"148 71 LINE"
);
},
{
closed = 1;
nodes = (
"532 1237 LINE",
"550 1239 OFFCURVE",
"589 1250 OFFCURVE",
"627 1250 CURVE SMOOTH",
"866 1250 OFFCURVE",
"918 976 OFFCURVE",
"918 649 CURVE SMOOTH",
"918 225 OFFCURVE",
"812 49 OFFCURVE",
"615 42 CURVE SMOOTH",
"587 41 OFFCURVE",
"561 44 OFFCURVE",
"532 55 CURVE"
);
}
);
userData = {
RMXScaler = {
adjustSpace = 2;
height = 87;
weight = 2;
width = 96;
};
};
width = 1387;
},
{
anchors = (
{
name = bottom;
position = "{678, 0}";
},
{
name = center;
position = "{678, 647}";
},
{
name = mark0;
position = "{707, -144}";
},
{
name = top;
position = "{678, 1293}";
}
);
layerId = "C9B9556E-C2FD-4F62-BB40-44923C452C22";
paths = (
{
closed = 1;
nodes = (
"26 31 LINE",
"26 0 LINE",
"244 0 LINE SMOOTH",
"301 0 OFFCURVE",
"455 -15 OFFCURVE",
"572 -15 CURVE SMOOTH",
"959 -16 OFFCURVE",
"1245 264 OFFCURVE",
"1245 684 CURVE SMOOTH",
"1245 1033 OFFCURVE",
"1053 1303 OFFCURVE",
"566 1303 CURVE SMOOTH",
"458 1303 OFFCURVE",
"323 1292 OFFCURVE",
"242 1292 CURVE SMOOTH",
"28 1292 LINE",
"28 1261 LINE",
"161 1233 LINE",
"161 60 LINE"
);
},
{
closed = 1;
nodes = (
"322 1242 LINE",
"337 1244 OFFCURVE",
"439 1258 OFFCURVE",
"523 1258 CURVE SMOOTH",
"887 1258 OFFCURVE",
"1080 1058 OFFCURVE",
"1080 662 CURVE SMOOTH",
"1080 282 OFFCURVE",
"885 30 OFFCURVE",
"533 30 CURVE SMOOTH",
"473 30 OFFCURVE",
"365 42 OFFCURVE",
"322 58 CURVE"
);
}
);
userData = {
RMXScaler = {
adjustSpace = 2;
height = 87;
weight = 2;
width = 96;
};
};
width = 1308;
}
);
leftKerningGroup = h.sc;
leftMetricsKey = h.sc;
rightKerningGroup = d.sc;
userData = {
RMXScaler = {
source = D;
};
};
},
{
glyphname = eth.sc;
lastChange = "2019-07-26 15:57:21 +0000";
layers = (
{
layerId = "184155C8-9F61-4F1C-9784-DDA8EA717636";
paths = (
{
closed = 1;
nodes = (
"79 734 LINE",
"79 602 LINE",
"209 602 LINE",
"209 147 LINE",
"64 126 LINE",
"64 0 LINE",
"379 0 LINE SMOOTH",
"450 0 OFFCURVE",
"580 -11 OFFCURVE",
"684 -14 CURVE SMOOTH",
"1151 -22 OFFCURVE",
"1418 296 OFFCURVE",
"1418 693 CURVE SMOOTH",
"1418 1086 OFFCURVE",
"1186 1303 OFFCURVE",
"712 1303 CURVE SMOOTH",
"591 1303 OFFCURVE",
"500 1292 OFFCURVE",
"375 1292 CURVE SMOOTH",
"70 1292 LINE",
"70 1158 LINE",
"209 1133 LINE",
"209 734 LINE"
);
},
{
closed = 1;
nodes = (
"549 734 LINE",
"549 1157 LINE",
"569 1159 OFFCURVE",
"608 1172 OFFCURVE",
"671 1172 CURVE SMOOTH",
"942 1172 OFFCURVE",
"1041 944 OFFCURVE",
"1041 648 CURVE SMOOTH",
"1041 277 OFFCURVE",
"911 126 OFFCURVE",
"694 125 CURVE SMOOTH",
"642 125 OFFCURVE",
"592 129 OFFCURVE",
"549 142 CURVE",
"549 602 LINE",
"808 602 LINE",
"808 734 LINE"
);
}
);
width = 1469;
},
{
layerId = "C9B9556E-C2FD-4F62-BB40-44923C452C22";
paths = (
{
closed = 1;
nodes = (
"116 718 LINE",
"116 632 LINE",
"262 632 LINE",
"262 98 LINE",
"98 80 LINE",
"98 0 LINE",
"346 0 LINE SMOOTH",
"456 0 OFFCURVE",
"562 -12 OFFCURVE",
"660 -14 CURVE SMOOTH",
"1092 -22 OFFCURVE",
"1388 266 OFFCURVE",
"1388 686 CURVE SMOOTH",
"1388 1062 OFFCURVE",
"1180 1306 OFFCURVE",
"684 1306 CURVE SMOOTH",
"570 1306 OFFCURVE",
"462 1292 OFFCURVE",
"344 1292 CURVE SMOOTH",
"110 1292 LINE",
"110 1210 LINE",
"262 1192 LINE",
"262 718 LINE"
);
},
{
closed = 1;
nodes = (
"428 718 LINE",
"428 1206 LINE",
"480 1208 OFFCURVE",
"550 1218 OFFCURVE",
"636 1218 CURVE SMOOTH",
"1020 1218 OFFCURVE",
"1208 1022 OFFCURVE",
"1208 654 CURVE SMOOTH",
"1208 292 OFFCURVE",
"1004 82 OFFCURVE",
"682 78 CURVE SMOOTH",
"596 76 OFFCURVE",
"530 76 OFFCURVE",
"428 92 CURVE",
"428 632 LINE",
"784 632 LINE",
"784 718 LINE"
);
}
);
userData = {
RMXScaler = {
adjustSpace = 2;
height = 87;
weight = 2;
width = 96;
};
};
width = 1460;
}
);
leftKerningGroup = h.sc;
rightKerningGroup = d.sc;
userData = {
RMXScaler = {
source = Eth;
};
};
},
{
glyphname = e.sc;
lastChange = "2019-08-01 09:54:50 +0000";
layers = (
{
anchors = (
{
name = bottom;
position = "{631, 0}";
},
{
name = mark0;
position = "{670, -144}";
},
{
name = ogonek;
position = "{1025, 17}";
},
{
name = top;
position = "{654, 1293}";
},
{
name = topleft;
position = "{38, 1293}";
}
);
layerId = "184155C8-9F61-4F1C-9784-DDA8EA717636";
paths = (
{
closed = 1;
nodes = (
"19 32 LINE",
"19 0 LINE",
"1150 0 LINE",
"1244 407 LINE",
"1070 421 LINE",
"904 117 LINE",
"533 54 LINE",
"533 638 LINE",
"728 635 LINE",
"811 381 LINE",
"857 381 LINE",
"857 923 LINE",
"811 923 LINE",
"728 687 LINE",
"533 685 LINE",
"533 1238 LINE",
"876 1199 LINE",
"1012 942 LINE",
"1149 942 LINE",
"1116 1292 LINE",
"20 1292 LINE",
"20 1261 LINE",
"147 1225 LINE",
"147 71 LINE"
);
}
);
userData = {
RMXScaler = {
adjustSpace = 2;
height = 87;
weight = 2;
width = 96;
};
};
width = 1235;
},
{
anchors = (
{
name = bottom;
position = "{612, 1}";
},
{
name = mark0;
position = "{643, -142}";
},
{
name = ogonek;
position = "{1103, 18}";
},
{
name = top;
position = "{642, 1292}";
},
{
name = topleft;
position = "{27, 1292}";
}
);
layerId = "C9B9556E-C2FD-4F62-BB40-44923C452C22";
paths = (
{
closed = 1;
nodes = (
"26 31 LINE",
"26 0 LINE",
"1021 0 LINE",
"1082 307 LINE",
"1008 327 LINE",
"889 70 LINE",
"321 43 LINE",
"321 644 LINE",
"679 629 LINE",
"715 461 LINE",
"767 461 LINE",
"767 864 LINE",
"715 864 LINE",
"679 701 LINE",
"321 684 LINE",
"321 1246 LINE",
"808 1232 LINE",
"898 1025 LINE",
"964 1025 LINE",
"937 1292 LINE",
"27 1292 LINE",
"27 1261 LINE",
"161 1233 LINE",
"161 60 LINE"
);
}
);
userData = {
RMXScaler = {
adjustSpace = 2;
height = 87;
weight = 2;
width = 96;
};
};
width = 1115;
}
);
leftKerningGroup = h.sc;
leftMetricsKey = h.sc;
rightKerningGroup = e.sc;
userData = {
RMXScaler = {
source = E;
};
};
},
{
color = 7;
glyphname = eogonek.sc;
lastChange = "2019-07-26 15:57:21 +0000";
layers = (
{
components = (
{
name = e.sc;
}
);
layerId = "184155C8-9F61-4F1C-9784-DDA8EA717636";
paths = (
{
closed = 1;
nodes = (
"1034 -437 OFFCURVE",
"1138 -415 OFFCURVE",
"1188 -380 CURVE",
"1188 -244 LINE",
"1144 -261 OFFCURVE",
"1118 -264 OFFCURVE",
"1075 -264 CURVE SMOOTH",
"1000 -264 OFFCURVE",
"954 -228 OFFCURVE",
"954 -177 CURVE SMOOTH",
"954 -120 OFFCURVE",
"1058 -30 OFFCURVE",
"1186 0 CURVE",
"1058 38 LINE",
"972 0 LINE",
"793 -57 OFFCURVE",
"693 -155 OFFCURVE",
"693 -259 CURVE SMOOTH",
"693 -365 OFFCURVE",
"791 -437 OFFCURVE",
"951 -437 CURVE SMOOTH"
);
}
);
width = 1265;
},
{
components = (
{
name = e.sc;
}
);
layerId = "C9B9556E-C2FD-4F62-BB40-44923C452C22";
paths = (
{
closed = 1;
nodes = (
"1010 -434 OFFCURVE",
"1094 -408 OFFCURVE",
"1142 -374 CURVE",
"1142 -294 LINE",
"1098 -314 OFFCURVE",
"1050 -328 OFFCURVE",
"994 -328 CURVE SMOOTH",
"916 -328 OFFCURVE",
"848 -296 OFFCURVE",
"848 -218 CURVE SMOOTH",
"848 -142 OFFCURVE",
"990 -24 OFFCURVE",
"1118 0 CURVE",
"1081 108 LINE",
"962 0 LINE",
"808 -56 OFFCURVE",
"690 -174 OFFCURVE",
"690 -268 CURVE SMOOTH",
"690 -390 OFFCURVE",
"806 -434 OFFCURVE",
"924 -434 CURVE SMOOTH"
);
}
);
width = 1256;
}
);
leftKerningGroup = h.sc;
rightKerningGroup = e.sc;
userData = {
RMXScaler = {
source = Eogonek;
};
};
},
{
color = 6;
glyphname = schwa.sc;
lastChange = "2019-07-26 15:57:21 +0000";
layers = (
{
layerId = "184155C8-9F61-4F1C-9784-DDA8EA717636";
paths = (
{
closed = 1;
nodes = (
"1003 -20 OFFCURVE",
"1287 219 OFFCURVE",
"1287 658 CURVE SMOOTH",
"1287 1085 OFFCURVE",
"1052 1306 OFFCURVE",
"651 1306 CURVE SMOOTH",
"384 1306 OFFCURVE",
"262 1235 OFFCURVE",
"73 1235 CURVE",
"107 935 LINE",
"376 935 LINE",
"397 1049 LINE",
"421 1184 OFFCURVE",
"475 1246 OFFCURVE",
"658 1246 CURVE SMOOTH",
"849 1246 OFFCURVE",
"932 983 OFFCURVE",
"932 674 CURVE",
"85 677 LINE",
"73 630 OFFCURVE",
"66 559 OFFCURVE",
"66 485 CURVE",
"77 124 OFFCURVE",
"332 -20 OFFCURVE",
"618 -20 CURVE SMOOTH"
);
},
{
closed = 1;
nodes = (
"464 35 OFFCURVE",
"409 278 OFFCURVE",
"409 471 CURVE SMOOTH",
"409 506 OFFCURVE",
"410 579 OFFCURVE",
"413 609 CURVE",
"935 607 LINE",
"935 228 OFFCURVE",
"840 35 OFFCURVE",
"663 35 CURVE SMOOTH"
);
}
);
width = 1333;
},
{
layerId = "C9B9556E-C2FD-4F62-BB40-44923C452C22";
paths = (
{
closed = 1;
nodes = (
"932 -20 OFFCURVE",
"1198 250 OFFCURVE",
"1198 654 CURVE SMOOTH",
"1198 1048 OFFCURVE",
"974 1306 OFFCURVE",
"626 1306 CURVE SMOOTH",
"360 1306 OFFCURVE",
"246 1244 OFFCURVE",
"140 1238 CURVE",
"128 984 LINE",
"236 984 LINE",
"270 1120 LINE",
"326 1164 OFFCURVE",
"412 1216 OFFCURVE",
"596 1216 CURVE SMOOTH",
"840 1216 OFFCURVE",
"1012 1010 OFFCURVE",
"1028 670 CURVE",
"104 670 LINE",
"94 628 OFFCURVE",
"94 566 OFFCURVE",
"94 492 CURVE",
"102 162 OFFCURVE",
"292 -20 OFFCURVE",
"580 -20 CURVE SMOOTH"
);
},
{
closed = 1;
nodes = (
"372 82 OFFCURVE",
"266 296 OFFCURVE",
"266 480 CURVE SMOOTH",
"266 516 OFFCURVE",
"268 548 OFFCURVE",
"274 576 CURVE",
"1028 576 LINE",
"1018 226 OFFCURVE",
"844 82 OFFCURVE",
"620 82 CURVE SMOOTH"
);
}
);
userData = {
RMXScaler = {
adjustSpace = 2;
height = 87;
weight = 2;
width = 96;
};
};
width = 1268;
}
);
leftKerningGroup = o.sc;
rightKerningGroup = o.sc;
userData = {
RMXScaler = {
source = Schwa;
};
};
},
{
glyphname = ezh.sc;
lastChange = "2019-07-26 15:57:21 +0000";
layers = (
{
layerId = "184155C8-9F61-4F1C-9784-DDA8EA717636";
paths = (
{
closed = 1;
nodes = (
"1130 1152 LINE",
"1130 1292 LINE",
"94 1292 LINE",
"118 916 LINE",
"318 916 LINE",
"364 1120 LINE",
"780 1128 LINE",
"694 998 OFFCURVE",
"524 848 OFFCURVE",
"434 716 CURVE",
"478 626 LINE",
"506 630 OFFCURVE",
"534 630 OFFCURVE",
"558 630 CURVE",
"780 628 OFFCURVE",
"808 504 OFFCURVE",
"808 380 CURVE SMOOTH",
"808 208 OFFCURVE",
"694 106 OFFCURVE",
"532 106 CURVE SMOOTH",
"430 106 OFFCURVE",
"384 140 OFFCURVE",
"374 154 CURVE",
"308 402 LINE",
"118 402 LINE",
"74 68 LINE",
"136 38 OFFCURVE",
"340 -20 OFFCURVE",
"542 -20 CURVE SMOOTH",
"1034 -20 OFFCURVE",
"1184 196 OFFCURVE",
"1184 434 CURVE SMOOTH",
"1184 620 OFFCURVE",
"1066 766 OFFCURVE",
"792 766 CURVE SMOOTH",
"770 766 OFFCURVE",
"744 764 OFFCURVE",
"720 762 CURVE"
);
}
);
width = 1243;
},
{
layerId = "C9B9556E-C2FD-4F62-BB40-44923C452C22";
paths = (
{
closed = 1;
nodes = (
"1010 1212 LINE",
"1010 1292 LINE",
"108 1292 LINE",
"128 992 LINE",
"232 992 LINE",
"262 1174 LINE",
"814 1180 LINE",
"810 1164 OFFCURVE",
"380 756 OFFCURVE",
"364 728 CURVE",
"388 664 LINE",
"414 664 OFFCURVE",
"442 664 OFFCURVE",
"468 664 CURVE",
"782 654 OFFCURVE",
"894 564 OFFCURVE",
"894 392 CURVE SMOOTH",
"894 234 OFFCURVE",
"750 86 OFFCURVE",
"470 86 CURVE SMOOTH",
"336 86 OFFCURVE",
"284 118 OFFCURVE",
"266 126 CURVE",
"224 336 LINE",
"128 336 LINE",
"92 52 LINE",
"142 38 OFFCURVE",
"262 -12 OFFCURVE",
"450 -12 CURVE SMOOTH",
"820 -12 OFFCURVE",
"1060 156 OFFCURVE",
"1060 408 CURVE SMOOTH",
"1060 628 OFFCURVE",
"918 742 OFFCURVE",
"656 742 CURVE SMOOTH",
"614 742 OFFCURVE",
"560 740 OFFCURVE",
"522 736 CURVE"
);
}
);
userData = {
RMXScaler = {
adjustSpace = 2;
height = 87;
weight = 2;
width = 96;
};
};
width = 1134;
}
);
leftKerningGroup = ezh.sc;
rightKerningGroup = ezh.sc;
userData = {
RMXScaler = {
source = Ezh;
};
};
},
{
color = 6;
glyphname = f.sc;
lastChange = "2019-08-01 09:54:34 +0000";
layers = (
{
anchors = (
{
name = bottom;
position = "{338, 0}";
},
{
name = mark0;
position = "{627, -144}";
},
{
name = top;
position = "{650, 1293}";
}
);
layerId = "184155C8-9F61-4F1C-9784-DDA8EA717636";
paths = (
{
closed = 1;
nodes = (
"19 34 LINE",
"19 0 LINE",
"743 0 LINE",
"743 34 LINE",
"533 64 LINE",
"533 612 LINE",
"727 608 LINE",
"811 354 LINE",
"857 354 LINE",
"857 896 LINE",
"812 896 LINE",
"727 660 LINE",
"533 656 LINE",
"533 1238 LINE",
"824 1199 LINE",
"954 918 LINE",
"1095 918 LINE",
"1067 1292 LINE",
"20 1292 LINE",
"20 1261 LINE",
"147 1225 LINE",
"147 64 LINE"
);
}
);
userData = {
RMXScaler = {
adjustSpace = 2;
height = 87;
weight = 2;
width = 96;
};
};
width = 1141;
},
{
anchors = (
{
name = bottom;
position = "{238, 0}";
},
{
name = mark0;
position = "{540, -144}";
},
{
name = top;
position = "{587, 1293}";
}
);
layerId = "C9B9556E-C2FD-4F62-BB40-44923C452C22";
paths = (
{
closed = 1;
nodes = (
"26 32 LINE",
"26 0 LINE",
"511 0 LINE",
"511 32 LINE",
"321 59 LINE",
"321 635 LINE",
"679 625 LINE",
"715 457 LINE",
"766 457 LINE",
"766 860 LINE",
"715 860 LINE",
"679 697 LINE",
"321 684 LINE",
"321 1245 LINE",
"817 1232 LINE",
"903 1022 LINE",
"971 1022 LINE",
"945 1292 LINE",
"27 1292 LINE",
"27 1261 LINE",
"161 1233 LINE",
"161 59 LINE"
);
}
);
userData = {
RMXScaler = {
adjustSpace = 2;
height = 87;
weight = 2;
width = 96;
};
};
width = 1006;
}
);
leftKerningGroup = h.sc;
leftMetricsKey = h.sc;
rightKerningGroup = f.sc;
userData = {
RMXScaler = {
source = F;
};
};
},
{
glyphname = g.sc;
lastChange = "2019-07-31 18:43:24 +0000";
layers = (
{
anchors = (
{
name = bottom;
position = "{715, 0}";
},
{
name = mark0;
position = "{723, -144}";
},
{
name = top;
position = "{772, 1293}";
}
);
layerId = "184155C8-9F61-4F1C-9784-DDA8EA717636";
paths = (
{
closed = 1;
nodes = (
"972 -20 OFFCURVE",
"1084 71 OFFCURVE",
"1277 70 CURVE",
"1277 538 LINE",
"1354 555 LINE",
"1354 597 LINE",
"768 597 LINE",
"768 555 LINE",
"931 538 LINE",
"931 177 LINE",
"896 88 OFFCURVE",
"834 32 OFFCURVE",
"739 32 CURVE SMOOTH",
"550 32 OFFCURVE",
"465 247 OFFCURVE",
"468 661 CURVE SMOOTH",
"470 1095 OFFCURVE",
"560 1258 OFFCURVE",
"736 1258 CURVE SMOOTH",
"850 1258 OFFCURVE",
"916 1216 OFFCURVE",
"936 1100 CURVE SMOOTH",
"978 848 LINE",
"1206 848 LINE",
"1261 1250 LINE",
"1068 1250 OFFCURVE",
"995 1312 OFFCURVE",
"715 1312 CURVE SMOOTH",
"280 1312 OFFCURVE",
"30 1068 OFFCURVE",
"30 641 CURVE SMOOTH",
"30 211 OFFCURVE",
"260 -20 OFFCURVE",
"689 -20 CURVE SMOOTH"
);
}
);
userData = {
RMXScaler = {
adjustSpace = 2;
height = 87;
weight = 2;
width = 96;
};
};
width = 1370;
},
{
anchors = (
{
name = bottom;
position = "{658, -13}";
},
{
name = mark0;
position = "{685, -160}";
},
{
name = top;
position = "{716, 1306}";
}
);
layerId = "C9B9556E-C2FD-4F62-BB40-44923C452C22";
paths = (
{
closed = 1;
nodes = (
"945 -25 OFFCURVE",
"1049 59 OFFCURVE",
"1150 62 CURVE",
"1150 547 LINE",
"1268 566 LINE",
"1268 624 LINE",
"757 624 LINE",
"757 566 LINE",
"992 547 LINE",
"992 107 LINE",
"919 54 OFFCURVE",
"805 22 OFFCURVE",
"697 22 CURVE SMOOTH",
"390 22 OFFCURVE",
"207 258 OFFCURVE",
"208 658 CURVE SMOOTH",
"209 1053 OFFCURVE",
"401 1279 OFFCURVE",
"743 1279 CURVE SMOOTH",
"843 1279 OFFCURVE",
"937 1252 OFFCURVE",
"979 1211 CURVE",
"1011 961 LINE",
"1119 961 LINE",
"1135 1268 LINE",
"1061 1268 OFFCURVE",
"969 1325 OFFCURVE",
"720 1325 CURVE SMOOTH",
"313 1325 OFFCURVE",
"29 1039 OFFCURVE",
"28 634 CURVE SMOOTH",
"27 238 OFFCURVE",
"279 -25 OFFCURVE",
"655 -25 CURVE SMOOTH"
);
}
);
userData = {
RMXScaler = {
adjustSpace = 2;
height = 87;
weight = 2;
width = 96;
};
};
width = 1282;
}
);
leftKerningGroup = o.sc;
rightKerningGroup = g.sc;
userData = {
RMXScaler = {
source = G;
};
};
},
{
glyphname = gstroke.sc;
lastChange = "2019-07-26 15:57:21 +0000";
layers = (
{
anchors = (
{
name = bottom;
position = "{734, 0}";
},
{
name = mark0;
position = "{742, -144}";
},
{
name = top;
position = "{792, 1292}";
}
);
layerId = "184155C8-9F61-4F1C-9784-DDA8EA717636";
paths = (
{
closed = 1;
nodes = (
"1012 -20 OFFCURVE",
"1208 66 OFFCURVE",
"1310 70 CURVE",
"1310 523 LINE",
"1415 537 LINE",
"1415 673 LINE",
"814 673 LINE",
"814 537 LINE",
"994 517 LINE",
"994 164 LINE",
"959 135 OFFCURVE",
"872 113 OFFCURVE",
"784 113 CURVE SMOOTH",
"556 113 OFFCURVE",
"470 328 OFFCURVE",
"470 656 CURVE SMOOTH",
"470 999 OFFCURVE",
"592 1183 OFFCURVE",
"813 1183 CURVE SMOOTH",
"918 1183 OFFCURVE",
"969 1161 OFFCURVE",
"988 1144 CURVE",
"1043 906 LINE",
"1286 906 LINE",
"1309 1257 LINE",
"1235 1271 OFFCURVE",
"1022 1311 OFFCURVE",
"820 1311 CURVE SMOOTH",
"354 1311 OFFCURVE",
"70 1074 OFFCURVE",
"70 638 CURVE SMOOTH",
"70 269 OFFCURVE",
"310 -20 OFFCURVE",
"753 -20 CURVE SMOOTH"
);
},
{
closed = 1;
nodes = (
"698 442 LINE",
"698 251 LINE",
"1482 251 LINE",
"1482 442 LINE"
);
}
);
width = 1521;
},
{
anchors = (
{
name = bottom;
position = "{688, 0}";
},
{
name = mark0;
position = "{714, -144}";
},
{
name = top;
position = "{746, 1292}";
}
);
layerId = "C9B9556E-C2FD-4F62-BB40-44923C452C22";
paths = (
{
closed = 1;
nodes = (
"988 -20 OFFCURVE",
"1140 66 OFFCURVE",
"1242 70 CURVE",
"1242 538 LINE",
"1360 556 LINE",
"1360 654 LINE",
"812 654 LINE",
"812 556 LINE",
"1074 538 LINE",
"1074 146 LINE",
"1006 100 OFFCURVE",
"876 70 OFFCURVE",
"744 70 CURVE SMOOTH",
"414 70 OFFCURVE",
"260 362 OFFCURVE",
"260 668 CURVE SMOOTH",
"260 1032 OFFCURVE",
"480 1218 OFFCURVE",
"774 1218 CURVE SMOOTH",
"952 1218 OFFCURVE",
"1034 1182 OFFCURVE",
"1062 1162 CURVE",
"1106 958 LINE",
"1212 958 LINE",
"1228 1254 LINE",
"1158 1268 OFFCURVE",
"988 1308 OFFCURVE",
"792 1308 CURVE SMOOTH",
"386 1308 OFFCURVE",
"70 1062 OFFCURVE",
"70 626 CURVE SMOOTH",
"70 260 OFFCURVE",
"314 -20 OFFCURVE",
"732 -20 CURVE SMOOTH"
);
},
{
closed = 1;
nodes = (
"652 404 LINE",
"652 288 LINE",
"1426 288 LINE",
"1426 404 LINE"
);
}
);
userData = {
RMXScaler = {
adjustSpace = 2;
height = 87;
weight = 2;
width = 96;
};
};
width = 1440;
}
);
leftKerningGroup = o.sc;
leftMetricsKey = g.sc;
rightKerningGroup = g.sc;
userData = {
RMXScaler = {
source = Gstroke;
};
};
},
{
color = 6;
glyphname = h.sc;
lastChange = "2019-08-01 09:54:09 +0000";
layers = (
{
anchors = (
{
name = bottom;
position = "{746, 0}";
},
{
name = center;
position = "{727, 646}";
},
{
name = top;
position = "{749, 1293}";
},
{
name = topleft;
position = "{15, 1293}";
}
);
layerId = "184155C8-9F61-4F1C-9784-DDA8EA717636";
paths = (
{
closed = 1;
nodes = (
"20 34 LINE",
"20 0 LINE",
"673 0 LINE",
"673 34 LINE",
"535 64 LINE",
"535 637 LINE",
"939 637 LINE",
"939 64 LINE",
"803 34 LINE",
"803 0 LINE",
"1454 0 LINE",
"1454 34 LINE",
"1327 64 LINE",
"1327 1225 LINE",
"1452 1261 LINE",
"1452 1292 LINE",
"803 1292 LINE",
"803 1261 LINE",
"939 1225 LINE",
"939 694 LINE",
"535 694 LINE",
"535 1225 LINE",
"672 1261 LINE",
"672 1292 LINE",
"21 1292 LINE",
"21 1261 LINE",
"147 1225 LINE",
"147 64 LINE"
);
}
);
userData = {
RMXScaler = {
adjustSpace = 2;
height = 87;
weight = 2;
width = 96;
};
};
width = 1474;
},
{
anchors = (
{
name = bottom;
position = "{691, 0}";
},
{
name = center;
position = "{668, 646}";
},
{
name = top;
position = "{706, 1293}";
},
{
name = topleft;
position = "{-2, 1293}";
}
);
layerId = "C9B9556E-C2FD-4F62-BB40-44923C452C22";
paths = (
{
closed = 1;
nodes = (
"26 32 LINE",
"26 0 LINE",
"460 0 LINE",
"460 32 LINE",
"322 59 LINE",
"322 637 LINE",
"1013 637 LINE",
"1013 59 LINE",
"875 32 LINE",
"875 0 LINE",
"1309 0 LINE",
"1309 32 LINE",
"1174 59 LINE",
"1174 1233 LINE",
"1308 1261 LINE",
"1308 1292 LINE",
"875 1292 LINE",
"875 1261 LINE",
"1013 1233 LINE",
"1013 691 LINE",
"322 691 LINE",
"322 1233 LINE",
"460 1261 LINE",
"460 1292 LINE",
"27 1292 LINE",
"27 1261 LINE",
"161 1233 LINE",
"161 59 LINE"
);
}
);
userData = {
RMXScaler = {
adjustSpace = 2;
height = 87;
weight = 2;
width = 96;
};
};
width = 1335;
}
);
leftKerningGroup = h.sc;
rightKerningGroup = h.sc;
userData = {
RMXScaler = {
source = H;
};
};
},
{
glyphname = hbar.sc;
lastChange = "2019-07-26 15:57:21 +0000";
layers = (
{
layerId = "184155C8-9F61-4F1C-9784-DDA8EA717636";
paths = (
{
closed = 1;
nodes = (
"51 965 LINE",
"51 842 LINE",
"210 842 LINE",
"210 145 LINE",
"72 126 LINE",
"72 0 LINE",
"709 0 LINE",
"709 126 LINE",
"552 147 LINE",
"553 488 LINE",
"1062 488 LINE",
"1060 147 LINE",
"916 127 LINE",
"916 0 LINE",
"1546 0 LINE",
"1546 127 LINE",
"1404 145 LINE",
"1404 842 LINE",
"1586 842 LINE",
"1586 965 LINE",
"1404 965 LINE",
"1404 1134 LINE",
"1546 1158 LINE",
"1546 1293 LINE",
"917 1293 LINE",
"917 1158 LINE",
"1062 1133 LINE",
"1062 965 LINE",
"553 965 LINE",
"553 1134 LINE",
"709 1158 LINE",
"709 1293 LINE",
"75 1293 LINE",
"75 1158 LINE",
"210 1134 LINE",
"210 965 LINE"
);
},
{
closed = 1;
nodes = (
"1062 652 LINE",
"553 652 LINE",
"553 842 LINE",
"1062 842 LINE"
);
}
);
width = 1616;
},
{
layerId = "C9B9556E-C2FD-4F62-BB40-44923C452C22";
paths = (
{
closed = 1;
nodes = (
"50 966 LINE",
"50 880 LINE",
"268 880 LINE",
"268 96 LINE",
"106 80 LINE",
"106 0 LINE",
"600 0 LINE",
"600 80 LINE",
"432 98 LINE",
"432 532 LINE",
"1158 532 LINE",
"1158 98 LINE",
"1000 80 LINE",
"1000 0 LINE",
"1482 0 LINE",
"1482 80 LINE",
"1324 98 LINE",
"1324 880 LINE",
"1542 880 LINE",
"1542 966 LINE",
"1324 966 LINE",
"1324 1192 LINE",
"1482 1210 LINE",
"1482 1294 LINE",
"1000 1294 LINE",
"1000 1210 LINE",
"1158 1192 LINE",
"1158 966 LINE",
"432 966 LINE",
"432 1192 LINE",
"598 1210 LINE",
"598 1294 LINE",
"112 1294 LINE",
"112 1210 LINE",
"268 1192 LINE",
"268 966 LINE"
);
},
{
closed = 1;
nodes = (
"1158 630 LINE",
"432 630 LINE",
"432 880 LINE",
"1158 880 LINE"
);
}
);
userData = {
RMXScaler = {
adjustSpace = 2;
height = 87;
weight = 2;
width = 96;
};
};
width = 1592;
}
);
leftKerningGroup = h.sc;
rightKerningGroup = h.sc;
userData = {
RMXScaler = {
source = Hbar;
};
};
},
{
color = 6;
glyphname = i.sc;
lastChange = "2019-08-01 09:26:22 +0000";
layers = (
{
anchors = (
{
name = bottom;
position = "{341, 0}";
},
{
name = mark0;
position = "{343, -144}";
},
{
name = ogonek;
position = "{631, 17}";
},
{
name = top;
position = "{341, 1293}";
},
{
name = topleft;
position = "{33, 1293}";
}
);
layerId = "184155C8-9F61-4F1C-9784-DDA8EA717636";
paths = (
{
closed = 1;
nodes = (
"14 34 LINE",
"14 0 LINE",
"681 0 LINE",
"681 34 LINE",
"531 64 LINE",
"531 1225 LINE",
"680 1261 LINE",
"680 1292 LINE",
"15 1292 LINE",
"15 1261 LINE",
"142 1225 LINE",
"142 64 LINE"
);
}
);
userData = {
RMXScaler = {
adjustSpace = 2;
height = 87;
weight = 2;
width = 96;
};
};
width = 695;
},
{
anchors = (
{
name = bottom;
position = "{264, 1}";
},
{
name = mark0;
position = "{266, -142}";
},
{
name = ogonek;
position = "{553, 18}";
},
{
name = top;
position = "{264, 1292}";
},
{
name = topleft;
position = "{39, 1292}";
}
);
layerId = "C9B9556E-C2FD-4F62-BB40-44923C452C22";
paths = (
{
closed = 1;
nodes = (
"53 32 LINE",
"53 0 LINE",
"475 0 LINE",
"475 32 LINE",
"343 59 LINE",
"343 1234 LINE",
"475 1262 LINE",
"475 1293 LINE",
"53 1293 LINE",
"53 1262 LINE",
"184 1234 LINE",
"184 59 LINE"
);
}
);
userData = {
RMXScaler = {
adjustSpace = 2;
height = 87;
weight = 2;
width = 96;
};
};
width = 528;
}
);
leftKerningGroup = i.sc;
rightKerningGroup = i.sc;
userData = {
RMXScaler = {
source = I;
};
};
},
{
glyphname = ij_acutecomb.sc;
lastChange = "2019-07-26 15:57:21 +0000";
layers = (
{
anchors = (
{
name = _top;
position = "{404, 1292}";
},
{
name = mark0;
position = "{406, -144}";
},
{
name = ogonek;
position = "{702, 18}";
},
{
name = top;
position = "{404, 1710}";
},
{
name = topleft;
position = "{38, 1292}";
}
);
layerId = "184155C8-9F61-4F1C-9784-DDA8EA717636";
paths = (
{
closed = 1;
nodes = (
"424 1372 OFFCURVE",
"590 1464 OFFCURVE",
"701 1577 CURVE",
"482 1710 LINE",
"221 1441 LINE",
"354 1356 LINE"
);
},
{
closed = 1;
nodes = (
"1201 1373 OFFCURVE",
"1367 1466 OFFCURVE",
"1476 1577 CURVE",
"1257 1710 LINE",
"995 1441 LINE",
"1130 1356 LINE"
);
},
{
closed = 1;
nodes = (
"77 126 LINE",
"77 0 LINE",
"731 0 LINE",
"731 124 LINE",
"573 145 LINE",
"573 1133 LINE",
"731 1158 LINE",
"731 1292 LINE",
"75 1292 LINE",
"75 1158 LINE",
"228 1133 LINE",
"228 147 LINE"
);
},
{
closed = 1;
nodes = (
"844 -347 LINE",
"1120 -306 OFFCURVE",
"1295 -163 OFFCURVE",
"1355 22 CURVE SMOOTH",
"1378 94 OFFCURVE",
"1383 257 OFFCURVE",
"1383 478 CURVE SMOOTH",
"1383 1134 LINE",
"1534 1158 LINE",
"1534 1292 LINE",
"881 1292 LINE",
"881 1158 LINE",
"1042 1132 LINE",
"1042 300 LINE SMOOTH",
"1042 145 OFFCURVE",
"1028 60 OFFCURVE",
"1002 -10 CURVE SMOOTH",
"953 -137 OFFCURVE",
"856 -207 OFFCURVE",
"769 -235 CURVE"
);
}
);
width = 1572;
},
{
anchors = (
{
name = _top;
position = "{388, 1292}";
},
{
name = mark0;
position = "{390, -144}";
},
{
name = ogonek;
position = "{584, 18}";
},
{
name = top;
position = "{388, 1706}";
},
{
name = topleft;
position = "{44, 1292}";
}
);
layerId = "C9B9556E-C2FD-4F62-BB40-44923C452C22";
paths = (
{
closed = 1;
nodes = (
"368 1424 OFFCURVE",
"552 1530 OFFCURVE",
"618 1612 CURVE",
"504 1706 LINE",
"228 1444 LINE",
"282 1394 LINE"
);
},
{
closed = 1;
nodes = (
"1126 1426 OFFCURVE",
"1306 1534 OFFCURVE",
"1370 1612 CURVE",
"1256 1706 LINE",
"980 1444 LINE",
"1034 1394 LINE"
);
},
{
closed = 1;
nodes = (
"118 80 LINE",
"118 0 LINE",
"656 0 LINE",
"656 80 LINE",
"470 96 LINE",
"470 1192 LINE",
"656 1210 LINE",
"656 1292 LINE",
"118 1292 LINE",
"118 1210 LINE",
"302 1192 LINE",
"302 98 LINE"
);
},
{
closed = 1;
nodes = (
"810 -306 LINE",
"984 -276 OFFCURVE",
"1162 -160 OFFCURVE",
"1206 34 CURVE SMOOTH",
"1230 138 OFFCURVE",
"1226 294 OFFCURVE",
"1226 478 CURVE SMOOTH",
"1226 1190 LINE",
"1408 1210 LINE",
"1408 1292 LINE",
"868 1292 LINE",
"868 1210 LINE",
"1058 1190 LINE",
"1058 424 LINE SMOOTH",
"1058 200 OFFCURVE",
"1058 94 OFFCURVE",
"1020 -14 CURVE SMOOTH",
"978 -134 OFFCURVE",
"878 -210 OFFCURVE",
"766 -238 CURVE"
);
}
);
userData = {
RMXScaler = {
adjustSpace = 2;
height = 87;
weight = 2;
width = 96;
};
};
width = 1494;
}
);
leftKerningGroup = i.sc;
rightKerningGroup = j.sc;
userData = {
RMXScaler = {
source = IJ_acutecomb;
};
};
},
